{
.appVersion = "1352";
copyright = "Copyright 2011 The Explora Project Authors (https://github.com/googlefonts/explora)";
customParameters = (
{
name = licenseURL;
value = "https://scripts.sil.org/OFL";
},
{
name = license;
value = "This Font Software is licensed under the SIL Open Font License, Version 1.1. This license is available with a FAQ at: https://scripts.sil.org/OFL";
},
{
name = panose;
value = (
2,
0,
6,
5,
6,
0,
0,
2,
0,
2
);
},
{
name = blueScale;
value = 0;
},
{
name = "Disable Subroutines";
value = 1;
},
{
name = glyphOrder;
value = (
.notdef,
CR,
NULL,
space,
nbspace
);
},
{
name = fsType;
value = (
);
},
{
name = "Use Typo Metrics";
value = 1;
},
{
name = Axes;
value = (
{
Name = Weight;
Tag = wght;
}
);
}
);
date = "2011-06-20 19:00:00 +0000";
designer = "Robert E. Leuschke";
designerURL = www.typesetit.com;
disablesNiceNames = 1;
familyName = Explora;
featurePrefixes = (
{
automatic = 1;
code = "languagesystem DFLT dflt;\012\012languagesystem latn dflt;\012languagesystem latn AZE;\012languagesystem latn CRT;\012languagesystem latn KAZ;\012languagesystem latn TAT;\012languagesystem latn TRK;\012languagesystem latn ROM;\012languagesystem latn MOL;\012languagesystem latn CAT;\012";
name = Languagesystems;
}
);
features = (
{
automatic = 1;
code = "feature calt;\012feature clig;\012feature salt;\012feature ss01;\012feature ss02;\012feature ss03;\012feature swsh;\012feature locl;\012feature sups;\012feature frac;\012feature ordn;\012";
name = aalt;
},
{
code = "sub A by A.1;\012sub B by B.1;\012sub C by C.1;\012sub D by D.1;\012sub E by E.1;\012sub F by F.1;\012sub G by G.1;\012sub H by H.1;\012sub I by I.1;\012sub J by J.1;\012sub K by K.1;\012sub L by L.1;\012sub M by M.1;\012sub N by N.1;\012sub O by O.1;\012sub P by P.1;\012sub Q by Q.1;\012sub R by R.1;\012sub S by S.1;\012sub T by T.1;\012sub U by U.1;\012sub V by V.1;\012sub W by W.1;\012sub X by X.1;\012sub Y by Y.1;\012sub Z by Z.1;\012";
name = calt;
},
{

glyphs = (
{
color = 5;
glyphname = .notdef;
lastChange = "2021-04-20 17:45:09 +0000";
layers = (
{
background = {
paths = (
{
closed = 1;
nodes = (
"379 0 LINE",
"379 650 LINE",
"50 650 LINE",
"50 0 LINE"
);
},
{
closed = 1;
nodes = (
"212 287 LINE",
"309 64 LINE",
"115 64 LINE"
);
},
{
closed = 1;
nodes = (
"104 534 LINE",
"193 330 LINE",
"104 129 LINE"
);
},
{
closed = 1;
nodes = (
"231 330 LINE",
"321 537 LINE",
"321 127 LINE"
);
},
{
closed = 1;
nodes = (
"119 584 LINE",
"305 584 LINE",
"212 374 LINE"
);
}
);
};
hints = (
{
horizontal = 1;
place = "{643.284, -20}";
target = down;
type = TopGhost;
},
{
place = "{51.326, 478.561}";
type = Stem;
}
);
layerId = "DB049CBD-EE5A-4C6A-B8D5-3A4D87564362";
paths = (
{
closed = 1;
nodes = (
"379 0 LINE",
"379 650 LINE",
"50 650 LINE",
"50 0 LINE"
);
},
{
closed = 1;
nodes = (
"323 567 OFFCURVE",
"268 455 OFFCURVE",
"214 343 CURVE",
"159 455 OFFCURVE",
"104 567 OFFCURVE",
"75 631 CURVE",
"352 631 LINE"
);
},
{
closed = 1;
nodes = (
"277 443 OFFCURVE",
"333 557 OFFCURVE",
"360 610 CURVE",
"360 45 LINE",
"333 100 OFFCURVE",
"277 212 OFFCURVE",
"221 328 CURVE"
);
},
{
closed = 1;
nodes = (
"98 549 OFFCURVE",
"152 439 OFFCURVE",
"206 328 CURVE",
"152 217 OFFCURVE",
"98 108 OFFCURVE",
"70 51 CURVE",
"70 604 LINE"
);
},
{
closed = 1;
nodes = (
"273 191 OFFCURVE",
"332 70 OFFCURVE",
"355 20 CURVE",
"72 20 LINE",
"95 70 OFFCURVE",
"154 191 OFFCURVE",
"214 313 CURVE"
);
}
);
width = 429;
}
);
note = .notdef;
},
{
color = 5;
glyphname = A;
lastChange = "2021-04-20 17:45:09 +0000";
layers = (
{
hints = (
{
horizontal = 1;
place = "{-2, 18}";
type = Stem;
},
{
horizontal = 1;
place = "{171, 8}";
type = Stem;
},
{
place = "{408, 9}";
type = Stem;
},
{
place = "{626, 28}";
type = Stem;
}
);
layerId = "DB049CBD-EE5A-4C6A-B8D5-3A4D87564362";
paths = (
{
closed = 1;
nodes = (
"583 541 OFFCURVE",
"578 544 OFFCURVE",
"574 541 CURVE SMOOTH",
"567 535 OFFCURVE",
"551 528 OFFCURVE",
"542 526 CURVE SMOOTH",
"529 523 OFFCURVE",
"520 520 OFFCURVE",
"512 514 CURVE SMOOTH",
"430 447 OFFCURVE",
"298 328 OFFCURVE",
"185 209 CURVE",
"168 209 LINE SMOOTH",
"142 208 OFFCURVE",
"84 214 OFFCURVE",
"67 240 CURVE SMOOTH",
"64 245 OFFCURVE",
"62 242 OFFCURVE",
"63 238 CURVE SMOOTH",
"79 189 OFFCURVE",
"126 196 OFFCURVE",
"175 199 CURVE SMOOTH",
"176 199 LINE",
"150 172 OFFCURVE",
"126 145 OFFCURVE",
"104 119 CURVE SMOOTH",
"57 65 OFFCURVE",
"18 15 OFFCURVE",
"-6 -28 CURVE SMOOTH",
"-18 -48 OFFCURVE",
"-20 -67 OFFCURVE",
"-17 -76 CURVE",
"-13 -96 OFFCURVE",
"10 -110 OFFCURVE",
"8 -95 CURVE SMOOTH",
"0 -20 OFFCURVE",
"117 119 OFFCURVE",
"191 200 CURVE",
"231 203 OFFCURVE",
"323 206 OFFCURVE",
"395 208 CURVE SMOOTH",
"419 209 OFFCURVE",
"460 204 OFFCURVE",
"481 184 CURVE",
"467 94 LINE SMOOTH",
"462 64 OFFCURVE",
"457 31 OFFCURVE",
"456 4 CURVE SMOOTH",
"456 -22 OFFCURVE",
"484 -11 OFFCURVE",
"499 -5 CURVE SMOOTH",
"530 6 OFFCURVE",
"557 25 OFFCURVE",
"577 46 CURVE",
"582 50 OFFCURVE",
"581 57 OFFCURVE",
"576 51 CURVE SMOOTH",
"560 34 OFFCURVE",
"540 19 OFFCURVE",
"516 9 CURVE SMOOTH",
"480 -7 OFFCURVE",
"484 35 OFFCURVE",
"486 58 CURVE SMOOTH",
"488 91 OFFCURVE",
"497 179 OFFCURVE",
"509 252 CURVE SMOOTH",
"525 353 OFFCURVE",
"554 489 OFFCURVE",
"559 512 CURVE SMOOTH",
"561 521 OFFCURVE",
"570 532 OFFCURVE",
"578 538 CURVE SMOOTH"
);
},
{
closed = 1;
nodes = (
"225 236 LINE SMOOTH",
"310 326 OFFCURVE",
"403 405 OFFCURVE",
"471 461 CURVE SMOOTH",
"512 494 OFFCURVE",
"525 499 OFFCURVE",
"523 479 CURVE SMOOTH",
"520 447 OFFCURVE",
"501 317 OFFCURVE",
"483 196 CURVE",
"478 204 OFFCURVE",
"472 211 OFFCURVE",
"467 215 CURVE SMOOTH",
"459 221 OFFCURVE",
"391 219 OFFCURVE",
"379 218 CURVE SMOOTH",
"200 210 LINE"
);
}
);
width = 563;
}
);
note = A;
unicode = 0041;
},
{
color = 11;
glyphname = Aacute;
lastChange = "2021-07-14 20:19:39 +0000";
layers = (
{
hints = (
{
horizontal = 1;
place = "{-2, 18}";
type = Stem;
},
{
horizontal = 1;
place = "{171, 8}";
type = Stem;
},
{
place = "{408, 9}";
type = Stem;
},
{
place = "{626, 28}";
type = Stem;
},
{
horizontal = 1;
place = "{563, 103}";
type = Stem;
},
{
place = "{502, 151}";
type = Stem;
}
);
layerId = "DB049CBD-EE5A-4C6A-B8D5-3A4D87564362";
paths = (
{
closed = 1;
nodes = (
"583 541 OFFCURVE",
"578 544 OFFCURVE",
"574 541 CURVE SMOOTH",
"567 535 OFFCURVE",
"551 528 OFFCURVE",
"542 526 CURVE SMOOTH",
"529 523 OFFCURVE",
"520 520 OFFCURVE",
"512 514 CURVE SMOOTH",
"430 447 OFFCURVE",
"298 328 OFFCURVE",
"185 209 CURVE",
"168 209 LINE SMOOTH",
"142 208 OFFCURVE",
"84 214 OFFCURVE",
"67 240 CURVE SMOOTH",
"64 245 OFFCURVE",
"62 242 OFFCURVE",
"63 238 CURVE SMOOTH",
"79 189 OFFCURVE",
"126 196 OFFCURVE",
"175 199 CURVE SMOOTH",
"176 199 LINE",
"150 172 OFFCURVE",
"126 145 OFFCURVE",
"104 119 CURVE SMOOTH",
"57 65 OFFCURVE",
"18 15 OFFCURVE",
"-6 -28 CURVE SMOOTH",
"-18 -48 OFFCURVE",
"-20 -67 OFFCURVE",
"-17 -76 CURVE",
"-13 -96 OFFCURVE",
"10 -110 OFFCURVE",
"8 -95 CURVE SMOOTH",
"0 -20 OFFCURVE",
"117 119 OFFCURVE",
"191 200 CURVE",
"231 203 OFFCURVE",
"323 206 OFFCURVE",
"395 208 CURVE SMOOTH",
"419 209 OFFCURVE",
"460 204 OFFCURVE",
"481 184 CURVE",
"467 94 LINE SMOOTH",
"462 64 OFFCURVE",
"457 31 OFFCURVE",
"456 4 CURVE SMOOTH",
"456 -22 OFFCURVE",
"484 -11 OFFCURVE",
"499 -5 CURVE SMOOTH",
"530 6 OFFCURVE",
"557 25 OFFCURVE",
"577 46 CURVE",
"582 50 OFFCURVE",
"581 57 OFFCURVE",
"576 51 CURVE SMOOTH",
"560 34 OFFCURVE",
"540 19 OFFCURVE",
"516 9 CURVE SMOOTH",
"480 -7 OFFCURVE",
"484 35 OFFCURVE",
"486 58 CURVE SMOOTH",
"488 91 OFFCURVE",
"497 179 OFFCURVE",
"509 252 CURVE SMOOTH",
"525 353 OFFCURVE",
"554 489 OFFCURVE",
"559 512 CURVE SMOOTH",
"561 521 OFFCURVE",
"570 532 OFFCURVE",
"578 538 CURVE SMOOTH"
);
},
{
closed = 1;
nodes = (
"225 236 LINE SMOOTH",
"310 326 OFFCURVE",
"403 405 OFFCURVE",
"471 461 CURVE SMOOTH",
"512 494 OFFCURVE",
"525 499 OFFCURVE",
"523 479 CURVE SMOOTH",
"520 447 OFFCURVE",
"501 317 OFFCURVE",
"483 196 CURVE",
"478 204 OFFCURVE",
"472 211 OFFCURVE",
"467 215 CURVE SMOOTH",
"459 221 OFFCURVE",
"391 219 OFFCURVE",
"379 218 CURVE SMOOTH",
"200 210 LINE"
);
},
{
closed = 1;
nodes = (
"556 594 OFFCURVE",
"624 632 OFFCURVE",
"636 641 CURVE SMOOTH",
"639 643 OFFCURVE",
"633 655 OFFCURVE",
"631 653 CURVE",
"541 590 LINE SMOOTH",
"538 588 OFFCURVE",
"537 580 OFFCURVE",
"541 583 CURVE SMOOTH"
);
}
);
width = 563;
}
);
note = Aacute;
unicode = 00C1;
},
{
color = 11;
glyphname = Abreve;
lastChange = "2021-07-14 20:19:39 +0000";
layers = (
{
hints = (
{
horizontal = 1;
place = "{-2, 18}";
type = Stem;
},
{
horizontal = 1;
place = "{171, 8}";
type = Stem;
},
{
place = "{408, 9}";
type = Stem;
},
{
place = "{626, 28}";
type = Stem;
}
);
layerId = "DB049CBD-EE5A-4C6A-B8D5-3A4D87564362";
paths = (
{
closed = 1;
nodes = (
"583 541 OFFCURVE",
"578 544 OFFCURVE",
"574 541 CURVE SMOOTH",
"567 535 OFFCURVE",
"551 528 OFFCURVE",
"542 526 CURVE SMOOTH",
"529 523 OFFCURVE",
"520 520 OFFCURVE",
"512 514 CURVE SMOOTH",
"430 447 OFFCURVE",
"298 328 OFFCURVE",
"185 209 CURVE",
"168 209 LINE SMOOTH",
"142 208 OFFCURVE",
"84 214 OFFCURVE",
"67 240 CURVE SMOOTH",
"64 245 OFFCURVE",
"62 242 OFFCURVE",
"63 238 CURVE SMOOTH",
"79 189 OFFCURVE",
"126 196 OFFCURVE",
"175 199 CURVE SMOOTH",
"176 199 LINE",
"150 172 OFFCURVE",
"126 145 OFFCURVE",
"104 119 CURVE SMOOTH",
"57 65 OFFCURVE",
"18 15 OFFCURVE",
"-6 -28 CURVE SMOOTH",
"-18 -48 OFFCURVE",
"-20 -67 OFFCURVE",
"-17 -76 CURVE",
"-13 -96 OFFCURVE",
"10 -110 OFFCURVE",
"8 -95 CURVE SMOOTH",
"0 -20 OFFCURVE",
"117 119 OFFCURVE",
"191 200 CURVE",
"231 203 OFFCURVE",
"323 206 OFFCURVE",
"395 208 CURVE SMOOTH",
"419 209 OFFCURVE",
"460 204 OFFCURVE",
"481 184 CURVE",
"467 94 LINE SMOOTH",
"462 64 OFFCURVE",
"457 31 OFFCURVE",
"456 4 CURVE SMOOTH",
"456 -22 OFFCURVE",
"484 -11 OFFCURVE",
"499 -5 CURVE SMOOTH",
"530 6 OFFCURVE",
"557 25 OFFCURVE",
"577 46 CURVE",
"582 50 OFFCURVE",
"581 57 OFFCURVE",
"576 51 CURVE SMOOTH",
"560 34 OFFCURVE",
"540 19 OFFCURVE",
"516 9 CURVE SMOOTH",
"480 -7 OFFCURVE",
"484 35 OFFCURVE",
"486 58 CURVE SMOOTH",
"488 91 OFFCURVE",
"497 179 OFFCURVE",
"509 252 CURVE SMOOTH",
"525 353 OFFCURVE",
"554 489 OFFCURVE",
"559 512 CURVE SMOOTH",
"561 521 OFFCURVE",
"570 532 OFFCURVE",
"578 538 CURVE SMOOTH"
);
},
{
closed = 1;
nodes = (
"225 236 LINE SMOOTH",
"310 326 OFFCURVE",
"403 405 OFFCURVE",
"471 461 CURVE SMOOTH",
"512 494 OFFCURVE",
"525 499 OFFCURVE",
"523 479 CURVE SMOOTH",
"520 447 OFFCURVE",
"501 317 OFFCURVE",
"483 196 CURVE",
"478 204 OFFCURVE",
"472 211 OFFCURVE",
"467 215 CURVE SMOOTH",
"459 221 OFFCURVE",
"391 219 OFFCURVE",
"379 218 CURVE SMOOTH",
"200 210 LINE"
);
},
{
closed = 1;
nodes = (
"646 650 OFFCURVE",
"645 650 OFFCURVE",
"643 650 CURVE SMOOTH",
"641 650 LINE",
"621 629 OFFCURVE",
"602 600 OFFCURVE",
"568 600 CURVE SMOOTH",
"542 600 OFFCURVE",
"536 621 OFFCURVE",
"536 643 CURVE SMOOTH",
"536 646 OFFCURVE",
"535 649 OFFCURVE",
"531 649 CURVE SMOOTH",
"521 649 OFFCURVE",
"513 639 OFFCURVE",
"513 629 CURVE SMOOTH",
"513 603 OFFCURVE",
"530 586 OFFCURVE",
"556 586 CURVE SMOOTH",
"587 586 OFFCURVE",
"618 607 OFFCURVE",
"637 631 CURVE SMOOTH",
"640 635 OFFCURVE",
"646 643 OFFCURVE",
"646 648 CURVE SMOOTH"
);
}
);
width = 563;
}
);
note = Abreve;
unicode = 0102;
},
{
color = 11;
glyphname = Acircumflex;
lastChange = "2021-07-14 20:19:39 +0000";
layers = (
{
hints = (
{
horizontal = 1;
place = "{-2, 18}";
type = Stem;
},
{
horizontal = 1;
place = "{148, 21}";
target = up;
type = BottomGhost;
},
{
horizontal = 1;
place = "{171, 8}";
type = Stem;
},
{
horizontal = 1;
place = "{677, 7}";
type = Stem;
},
{
horizontal = 1;
place = "{687, -20}";
target = down;
type = TopGhost;
},
{
place = "{408, 9}";
type = Stem;
},
{
place = "{454, 222}";
type = Stem;
},
{
place = "{626, 28}";
type = Stem;
},
{
place = "{628, 48}";
type = Stem;
}
);
layerId = "DB049CBD-EE5A-4C6A-B8D5-3A4D87564362";
paths = (
{
closed = 1;
nodes = (
"583 541 OFFCURVE",
"578 544 OFFCURVE",
"574 541 CURVE SMOOTH",
"567 535 OFFCURVE",
"551 528 OFFCURVE",
"542 526 CURVE SMOOTH",
"529 523 OFFCURVE",
"520 520 OFFCURVE",
"512 514 CURVE SMOOTH",
"430 447 OFFCURVE",
"298 328 OFFCURVE",
"185 209 CURVE",
"168 209 LINE SMOOTH",
"142 208 OFFCURVE",
"84 214 OFFCURVE",
"67 240 CURVE SMOOTH",
"64 245 OFFCURVE",
"62 242 OFFCURVE",
"63 238 CURVE SMOOTH",
"79 189 OFFCURVE",
"126 196 OFFCURVE",
"175 199 CURVE SMOOTH",
"176 199 LINE",
"150 172 OFFCURVE",
"126 145 OFFCURVE",
"104 119 CURVE SMOOTH",
"57 65 OFFCURVE",
"18 15 OFFCURVE",
"-6 -28 CURVE SMOOTH",
"-18 -48 OFFCURVE",
"-20 -67 OFFCURVE",
"-17 -76 CURVE",
"-13 -96 OFFCURVE",
"10 -110 OFFCURVE",
"8 -95 CURVE SMOOTH",
"0 -20 OFFCURVE",
"117 119 OFFCURVE",
"191 200 CURVE",
"231 203 OFFCURVE",
"323 206 OFFCURVE",
"395 208 CURVE SMOOTH",
"419 209 OFFCURVE",
"460 204 OFFCURVE",
"481 184 CURVE",
"467 94 LINE SMOOTH",
"462 64 OFFCURVE",
"457 31 OFFCURVE",
"456 4 CURVE SMOOTH",
"456 -22 OFFCURVE",
"484 -11 OFFCURVE",
"499 -5 CURVE SMOOTH",
"530 6 OFFCURVE",
"557 25 OFFCURVE",
"577 46 CURVE",
"582 50 OFFCURVE",
"581 57 OFFCURVE",
"576 51 CURVE SMOOTH",
"560 34 OFFCURVE",
"540 19 OFFCURVE",
"516 9 CURVE SMOOTH",
"480 -7 OFFCURVE",
"484 35 OFFCURVE",
"486 58 CURVE SMOOTH",
"488 91 OFFCURVE",
"497 179 OFFCURVE",
"509 252 CURVE SMOOTH",
"525 353 OFFCURVE",
"554 489 OFFCURVE",
"559 512 CURVE SMOOTH",
"561 521 OFFCURVE",
"570 532 OFFCURVE",
"578 538 CURVE SMOOTH"
);
},
{
closed = 1;
nodes = (
"225 236 LINE SMOOTH",
"310 326 OFFCURVE",
"403 405 OFFCURVE",
"471 461 CURVE SMOOTH",
"512 494 OFFCURVE",
"525 499 OFFCURVE",
"523 479 CURVE SMOOTH",
"520 447 OFFCURVE",
"501 317 OFFCURVE",
"483 196 CURVE",
"478 204 OFFCURVE",
"472 211 OFFCURVE",
"467 215 CURVE SMOOTH",
"459 221 OFFCURVE",
"391 219 OFFCURVE",
"379 218 CURVE SMOOTH",
"200 210 LINE"
);
},
{
closed = 1;
nodes = (
"513 572 OFFCURVE",
"514 556 OFFCURVE",
"518 561 CURVE SMOOTH",
"537 585 OFFCURVE",
"576 637 OFFCURVE",
"586 647 CURVE",
"591 638 OFFCURVE",
"617 572 OFFCURVE",
"617 564 CURVE",
"631 564 LINE",
"628 570 OFFCURVE",
"604 625 OFFCURVE",
"594 656 CURVE",
"586 656 LINE",
"586 656 OFFCURVE",
"530 588 OFFCURVE",
"516 573 CURVE"
);
}
);
width = 563;
}
);
note = Acircumflex;
unicode = 00C2;
},
{
color = 11;
glyphname = Adieresis;
lastChange = "2021-07-14 20:19:39 +0000";
layers = (
{
hints = (
{
horizontal = 1;
place = "{-2, 18}";
type = Stem;
},
{
horizontal = 1;
place = "{171, 8}";
type = Stem;
},
{
horizontal = 1;
place = "{591, 55}";
type = Stem;
},
{
place = "{408, 9}";
type = Stem;
},
{
place = "{626, 28}";
type = Stem;
},
{
place = "{481, 173}";
type = Stem;
}
);
layerId = "DB049CBD-EE5A-4C6A-B8D5-3A4D87564362";
paths = (
{
closed = 1;
nodes = (
"583 541 OFFCURVE",
"578 544 OFFCURVE",
"574 541 CURVE SMOOTH",
"567 535 OFFCURVE",
"551 528 OFFCURVE",
"542 526 CURVE SMOOTH",
"529 523 OFFCURVE",
"520 520 OFFCURVE",
"512 514 CURVE SMOOTH",
"430 447 OFFCURVE",
"298 328 OFFCURVE",
"185 209 CURVE",
"168 209 LINE SMOOTH",
"142 208 OFFCURVE",
"84 214 OFFCURVE",
"67 240 CURVE SMOOTH",
"64 245 OFFCURVE",
"62 242 OFFCURVE",
"63 238 CURVE SMOOTH",
"79 189 OFFCURVE",
"126 196 OFFCURVE",
"175 199 CURVE SMOOTH",
"176 199 LINE",
"150 172 OFFCURVE",
"126 145 OFFCURVE",
"104 119 CURVE SMOOTH",
"57 65 OFFCURVE",
"18 15 OFFCURVE",
"-6 -28 CURVE SMOOTH",
"-18 -48 OFFCURVE",
"-20 -67 OFFCURVE",
"-17 -76 CURVE",
"-13 -96 OFFCURVE",
"10 -110 OFFCURVE",
"8 -95 CURVE SMOOTH",
"0 -20 OFFCURVE",
"117 119 OFFCURVE",
"191 200 CURVE",
"231 203 OFFCURVE",
"323 206 OFFCURVE",
"395 208 CURVE SMOOTH",
"419 209 OFFCURVE",
"460 204 OFFCURVE",
"481 184 CURVE",
"467 94 LINE SMOOTH",
"462 64 OFFCURVE",
"457 31 OFFCURVE",
"456 4 CURVE SMOOTH",
"456 -22 OFFCURVE",
"484 -11 OFFCURVE",
"499 -5 CURVE SMOOTH",
"530 6 OFFCURVE",
"557 25 OFFCURVE",
"577 46 CURVE",
"582 50 OFFCURVE",
"581 57 OFFCURVE",
"576 51 CURVE SMOOTH",
"560 34 OFFCURVE",
"540 19 OFFCURVE",
"516 9 CURVE SMOOTH",
"480 -7 OFFCURVE",
"484 35 OFFCURVE",
"486 58 CURVE SMOOTH",
"488 91 OFFCURVE",
"497 179 OFFCURVE",
"509 252 CURVE SMOOTH",
"525 353 OFFCURVE",
"554 489 OFFCURVE",
"559 512 CURVE SMOOTH",
"561 521 OFFCURVE",
"570 532 OFFCURVE",
"578 538 CURVE SMOOTH"
);
},
{
closed = 1;
nodes = (
"225 236 LINE SMOOTH",
"310 326 OFFCURVE",
"403 405 OFFCURVE",
"471 461 CURVE SMOOTH",
"512 494 OFFCURVE",
"525 499 OFFCURVE",
"523 479 CURVE SMOOTH",
"520 447 OFFCURVE",
"501 317 OFFCURVE",
"483 196 CURVE",
"478 204 OFFCURVE",
"472 211 OFFCURVE",
"467 215 CURVE SMOOTH",
"459 221 OFFCURVE",
"391 219 OFFCURVE",
"379 218 CURVE SMOOTH",
"200 210 LINE"
);
},
{
closed = 1;
nodes = (
"633 646 OFFCURVE",
"600 632 OFFCURVE",
"596 613 CURVE SMOOTH",
"593 602 OFFCURVE",
"606 591 OFFCURVE",
"617 603 CURVE SMOOTH",
"623 609 OFFCURVE",
"631 623 OFFCURVE",
"632 632 CURVE SMOOTH"
);
},
{
closed = 1;
nodes = (
"554 646 OFFCURVE",
"521 632 OFFCURVE",
"517 613 CURVE",
"513 602 OFFCURVE",
"526 591 OFFCURVE",
"536 603 CURVE SMOOTH",
"542 609 OFFCURVE",
"551 623 OFFCURVE",
"552 632 CURVE SMOOTH"
);
}
);
width = 563;
}
);
note = Adieresis;
unicode = 00C4;
},
{
color = 11;
glyphname = Agrave;
lastChange = "2021-07-14 20:19:39 +0000";
layers = (
{
hints = (
{
horizontal = 1;
place = "{-2, 18}";
type = Stem;
},
{
horizontal = 1;
place = "{171, 8}";
type = Stem;
},
{
horizontal = 1;
place = "{586, 117}";
type = Stem;
},
{
horizontal = 1;
place = "{595, 103}";
type = Stem;
},
{
place = "{408, 9}";
type = Stem;
},
{
place = "{457, 151}";
type = Stem;
},
{
place = "{510, 76}";
type = Stem;
},
{
place = "{626, 28}";
type = Stem;
}
);
layerId = "DB049CBD-EE5A-4C6A-B8D5-3A4D87564362";
paths = (
{
closed = 1;
nodes = (
"583 541 OFFCURVE",
"578 544 OFFCURVE",
"574 541 CURVE SMOOTH",
"567 535 OFFCURVE",
"551 528 OFFCURVE",
"542 526 CURVE SMOOTH",
"529 523 OFFCURVE",
"520 520 OFFCURVE",
"512 514 CURVE SMOOTH",
"430 447 OFFCURVE",
"298 328 OFFCURVE",
"185 209 CURVE",
"168 209 LINE SMOOTH",
"142 208 OFFCURVE",
"84 214 OFFCURVE",
"67 240 CURVE SMOOTH",
"64 245 OFFCURVE",
"62 242 OFFCURVE",
"63 238 CURVE SMOOTH",
"79 189 OFFCURVE",
"126 196 OFFCURVE",
"175 199 CURVE SMOOTH",
"176 199 LINE",
"150 172 OFFCURVE",
"126 145 OFFCURVE",
"104 119 CURVE SMOOTH",
"57 65 OFFCURVE",
"18 15 OFFCURVE",
"-6 -28 CURVE SMOOTH",
"-18 -48 OFFCURVE",
"-20 -67 OFFCURVE",
"-17 -76 CURVE",
"-13 -96 OFFCURVE",
"10 -110 OFFCURVE",
"8 -95 CURVE SMOOTH",
"0 -20 OFFCURVE",
"117 119 OFFCURVE",
"191 200 CURVE",
"231 203 OFFCURVE",
"323 206 OFFCURVE",
"395 208 CURVE SMOOTH",
"419 209 OFFCURVE",
"460 204 OFFCURVE",
"481 184 CURVE",
"467 94 LINE SMOOTH",
"462 64 OFFCURVE",
"457 31 OFFCURVE",
"456 4 CURVE SMOOTH",
"456 -22 OFFCURVE",
"484 -11 OFFCURVE",
"499 -5 CURVE SMOOTH",
"530 6 OFFCURVE",
"557 25 OFFCURVE",
"577 46 CURVE",
"582 50 OFFCURVE",
"581 57 OFFCURVE",
"576 51 CURVE SMOOTH",
"560 34 OFFCURVE",
"540 19 OFFCURVE",
"516 9 CURVE SMOOTH",
"480 -7 OFFCURVE",
"484 35 OFFCURVE",
"486 58 CURVE SMOOTH",
"488 91 OFFCURVE",
"497 179 OFFCURVE",
"509 252 CURVE SMOOTH",
"525 353 OFFCURVE",
"554 489 OFFCURVE",
"559 512 CURVE SMOOTH",
"561 521 OFFCURVE",
"570 532 OFFCURVE",
"578 538 CURVE SMOOTH"
);
},
{
closed = 1;
nodes = (
"225 236 LINE SMOOTH",
"310 326 OFFCURVE",
"403 405 OFFCURVE",
"471 461 CURVE SMOOTH",
"512 494 OFFCURVE",
"525 499 OFFCURVE",
"523 479 CURVE SMOOTH",
"520 447 OFFCURVE",
"501 317 OFFCURVE",
"483 196 CURVE",
"478 204 OFFCURVE",
"472 211 OFFCURVE",
"467 215 CURVE SMOOTH",
"459 221 OFFCURVE",
"391 219 OFFCURVE",
"379 218 CURVE SMOOTH",
"200 210 LINE"
);
},
{
closed = 1;
nodes = (
"572 611 OFFCURVE",
"534 679 OFFCURVE",
"525 691 CURVE SMOOTH",
"523 694 OFFCURVE",
"511 688 OFFCURVE",
"513 686 CURVE",
"576 596 LINE SMOOTH",
"578 593 OFFCURVE",
"586 592 OFFCURVE",
"583 596 CURVE SMOOTH"
);
}
);
width = 563;
}
);
note = Agrave;
unicode = 00C0;
},
{
color = 11;
glyphname = Amacron;
lastChange = "2021-07-14 20:19:39 +0000";
layers = (
{
hints = (
{
horizontal = 1;
place = "{-2, 18}";
type = Stem;
},
{
horizontal = 1;
place = "{171, 8}";
type = Stem;
},
{
place = "{408, 9}";
type = Stem;
},
{
place = "{626, 28}";
type = Stem;
},
{
horizontal = 1;
place = "{372, 16}";
type = Stem;
},
{
place = "{437, 197}";
type = Stem;
}
);
layerId = "DB049CBD-EE5A-4C6A-B8D5-3A4D87564362";
paths = (
{
closed = 1;
nodes = (
"583 541 OFFCURVE",
"578 544 OFFCURVE",
"574 541 CURVE SMOOTH",
"567 535 OFFCURVE",
"551 528 OFFCURVE",
"542 526 CURVE SMOOTH",
"529 523 OFFCURVE",
"520 520 OFFCURVE",
"512 514 CURVE SMOOTH",
"430 447 OFFCURVE",
"298 328 OFFCURVE",
"185 209 CURVE",
"168 209 LINE SMOOTH",
"142 208 OFFCURVE",
"84 214 OFFCURVE",
"67 240 CURVE SMOOTH",
"64 245 OFFCURVE",
"62 242 OFFCURVE",
"63 238 CURVE SMOOTH",
"79 189 OFFCURVE",
"126 196 OFFCURVE",
"175 199 CURVE SMOOTH",
"176 199 LINE",
"150 172 OFFCURVE",
"126 145 OFFCURVE",
"104 119 CURVE SMOOTH",
"57 65 OFFCURVE",
"18 15 OFFCURVE",
"-6 -28 CURVE SMOOTH",
"-18 -48 OFFCURVE",
"-20 -67 OFFCURVE",
"-17 -76 CURVE",
"-13 -96 OFFCURVE",
"10 -110 OFFCURVE",
"8 -95 CURVE SMOOTH",
"0 -20 OFFCURVE",
"117 119 OFFCURVE",
"191 200 CURVE",
"231 203 OFFCURVE",
"323 206 OFFCURVE",
"395 208 CURVE SMOOTH",
"419 209 OFFCURVE",
"460 204 OFFCURVE",
"481 184 CURVE",
"467 94 LINE SMOOTH",
"462 64 OFFCURVE",
"457 31 OFFCURVE",
"456 4 CURVE SMOOTH",
"456 -22 OFFCURVE",
"484 -11 OFFCURVE",
"499 -5 CURVE SMOOTH",
"530 6 OFFCURVE",
"557 25 OFFCURVE",
"577 46 CURVE",
"582 50 OFFCURVE",
"581 57 OFFCURVE",
"576 51 CURVE SMOOTH",
"560 34 OFFCURVE",
"540 19 OFFCURVE",
"516 9 CURVE SMOOTH",
"480 -7 OFFCURVE",
"484 35 OFFCURVE",
"486 58 CURVE SMOOTH",
"488 91 OFFCURVE",
"497 179 OFFCURVE",
"509 252 CURVE SMOOTH",
"525 353 OFFCURVE",
"554 489 OFFCURVE",
"559 512 CURVE SMOOTH",
"561 521 OFFCURVE",
"570 532 OFFCURVE",
"578 538 CURVE SMOOTH"
);
},
{
closed = 1;
nodes = (
"225 236 LINE SMOOTH",
"310 326 OFFCURVE",
"403 405 OFFCURVE",
"471 461 CURVE SMOOTH",
"512 494 OFFCURVE",
"525 499 OFFCURVE",
"523 479 CURVE SMOOTH",
"520 447 OFFCURVE",
"501 317 OFFCURVE",
"483 196 CURVE",
"478 204 OFFCURVE",
"472 211 OFFCURVE",
"467 215 CURVE SMOOTH",
"459 221 OFFCURVE",
"391 219 OFFCURVE",
"379 218 CURVE SMOOTH",
"200 210 LINE"
);
},
{
closed = 1;
nodes = (
"513 614 LINE SMOOTH",
"510 614 OFFCURVE",
"505 597 OFFCURVE",
"508 598 CURVE",
"524 599 OFFCURVE",
"612 598 OFFCURVE",
"631 598 CURVE SMOOTH",
"633 598 OFFCURVE",
"638 614 OFFCURVE",
"635 614 CURVE SMOOTH"
);
}
);
width = 563;
}
);
note = Amacron;
unicode = 0100;
},
{
color = 11;
glyphname = Aogonek;
lastChange = "2021-07-14 20:19:39 +0000";
layers = (
{
hints = (
{
horizontal = 1;
place = "{-2, 18}";
type = Stem;
},
{
horizontal = 1;
place = "{171, 8}";
type = Stem;
},
{
place = "{408, 9}";
type = Stem;
},
{
place = "{626, 28}";
type = Stem;
}
);
layerId = "DB049CBD-EE5A-4C6A-B8D5-3A4D87564362";
paths = (
{
closed = 1;
nodes = (
"583 541 OFFCURVE",
"578 544 OFFCURVE",
"574 541 CURVE SMOOTH",
"567 535 OFFCURVE",
"551 528 OFFCURVE",
"542 526 CURVE SMOOTH",
"529 523 OFFCURVE",
"520 520 OFFCURVE",
"512 514 CURVE SMOOTH",
"430 447 OFFCURVE",
"298 328 OFFCURVE",
"185 209 CURVE",
"168 209 LINE SMOOTH",
"142 208 OFFCURVE",
"84 214 OFFCURVE",
"67 240 CURVE SMOOTH",
"64 245 OFFCURVE",
"62 242 OFFCURVE",
"63 238 CURVE SMOOTH",
"79 189 OFFCURVE",
"126 196 OFFCURVE",
"175 199 CURVE SMOOTH",
"176 199 LINE",
"150 172 OFFCURVE",
"126 145 OFFCURVE",
"104 119 CURVE SMOOTH",
"57 65 OFFCURVE",
"18 15 OFFCURVE",
"-6 -28 CURVE SMOOTH",
"-18 -48 OFFCURVE",
"-20 -67 OFFCURVE",
"-17 -76 CURVE",
"-13 -96 OFFCURVE",
"10 -110 OFFCURVE",
"8 -95 CURVE SMOOTH",
"0 -20 OFFCURVE",
"117 119 OFFCURVE",
"191 200 CURVE",
"231 203 OFFCURVE",
"323 206 OFFCURVE",
"395 208 CURVE SMOOTH",
"419 209 OFFCURVE",
"460 204 OFFCURVE",
"481 184 CURVE",
"467 94 LINE SMOOTH",
"462 64 OFFCURVE",
"457 31 OFFCURVE",
"456 4 CURVE SMOOTH",
"456 -22 OFFCURVE",
"484 -11 OFFCURVE",
"499 -5 CURVE SMOOTH",
"530 6 OFFCURVE",
"557 25 OFFCURVE",
"577 46 CURVE",
"582 50 OFFCURVE",
"581 57 OFFCURVE",
"576 51 CURVE SMOOTH",
"560 34 OFFCURVE",
"540 19 OFFCURVE",
"516 9 CURVE SMOOTH",
"480 -7 OFFCURVE",
"484 35 OFFCURVE",
"486 58 CURVE SMOOTH",
"488 91 OFFCURVE",
"497 179 OFFCURVE",
"509 252 CURVE SMOOTH",
"525 353 OFFCURVE",
"554 489 OFFCURVE",
"559 512 CURVE SMOOTH",
"561 521 OFFCURVE",
"570 532 OFFCURVE",
"578 538 CURVE SMOOTH"
);
},
{
closed = 1;
nodes = (
"225 236 LINE SMOOTH",
"310 326 OFFCURVE",
"403 405 OFFCURVE",
"471 461 CURVE SMOOTH",
"512 494 OFFCURVE",
"525 499 OFFCURVE",
"523 479 CURVE SMOOTH",
"520 447 OFFCURVE",
"501 317 OFFCURVE",
"483 196 CURVE",
"478 204 OFFCURVE",
"472 211 OFFCURVE",
"467 215 CURVE SMOOTH",
"459 221 OFFCURVE",
"391 219 OFFCURVE",
"379 218 CURVE SMOOTH",
"200 210 LINE"
);
},
{
closed = 1;
nodes = (
"482 -113 OFFCURVE",
"478 -106 OFFCURVE",
"477 -108 CURVE SMOOTH",
"463 -127 OFFCURVE",
"439 -162 OFFCURVE",
"419 -175 CURVE SMOOTH",
"402 -186 OFFCURVE",
"393 -185 OFFCURVE",
"393 -164 CURVE SMOOTH",
"393 -98 OFFCURVE",
"439 -37 OFFCURVE",
"471 -18 CURVE",
"476 -16 OFFCURVE",
"476 -4 OFFCURVE",
"469 -9 CURVE SMOOTH",
"421 -46 OFFCURVE",
"376 -116 OFFCURVE",
"376 -176 CURVE SMOOTH",
"376 -207 OFFCURVE",
"400 -196 OFFCURVE",
"419 -181 CURVE SMOOTH",
"439 -166 OFFCURVE",
"464 -137 OFFCURVE",
"478 -118 CURVE SMOOTH"
);
}
);
width = 563;
}
);
note = Aogonek;
unicode = 0104;
},
{
color = 11;
glyphname = Aring;
lastChange = "2021-07-14 20:19:39 +0000";
layers = (
{
hints = (
{
horizontal = 1;
place = "{-2, 18}";
type = Stem;
},
{
horizontal = 1;
place = "{171, 8}";
type = Stem;
},
{
place = "{408, 9}";
type = Stem;
},
{
place = "{626, 28}";
type = Stem;
}
);
layerId = "DB049CBD-EE5A-4C6A-B8D5-3A4D87564362";
paths = (
{
closed = 1;
nodes = (
"583 541 OFFCURVE",
"578 544 OFFCURVE",
"574 541 CURVE SMOOTH",
"567 535 OFFCURVE",
"551 528 OFFCURVE",
"542 526 CURVE SMOOTH",
"529 523 OFFCURVE",
"520 520 OFFCURVE",
"512 514 CURVE SMOOTH",
"430 447 OFFCURVE",
"298 328 OFFCURVE",
"185 209 CURVE",
"168 209 LINE SMOOTH",
"142 208 OFFCURVE",
"84 214 OFFCURVE",
"67 240 CURVE SMOOTH",
"64 245 OFFCURVE",
"62 242 OFFCURVE",
"63 238 CURVE SMOOTH",
"79 189 OFFCURVE",
"126 196 OFFCURVE",
"175 199 CURVE SMOOTH",
"176 199 LINE",
"150 172 OFFCURVE",
"126 145 OFFCURVE",
"104 119 CURVE SMOOTH",
"57 65 OFFCURVE",
"18 15 OFFCURVE",
"-6 -28 CURVE SMOOTH",
"-18 -48 OFFCURVE",
"-20 -67 OFFCURVE",
"-17 -76 CURVE",
"-13 -96 OFFCURVE",
"10 -110 OFFCURVE",
"8 -95 CURVE SMOOTH",
"0 -20 OFFCURVE",
"117 119 OFFCURVE",
"191 200 CURVE",
"231 203 OFFCURVE",
"323 206 OFFCURVE",
"395 208 CURVE SMOOTH",
"419 209 OFFCURVE",
"460 204 OFFCURVE",
"481 184 CURVE",
"467 94 LINE SMOOTH",
"462 64 OFFCURVE",
"457 31 OFFCURVE",
"456 4 CURVE SMOOTH",
"456 -22 OFFCURVE",
"484 -11 OFFCURVE",
"499 -5 CURVE SMOOTH",
"530 6 OFFCURVE",
"557 25 OFFCURVE",
"577 46 CURVE",
"582 50 OFFCURVE",
"581 57 OFFCURVE",
"576 51 CURVE SMOOTH",
"560 34 OFFCURVE",
"540 19 OFFCURVE",
"516 9 CURVE SMOOTH",
"480 -7 OFFCURVE",
"484 35 OFFCURVE",
"486 58 CURVE SMOOTH",
"488 91 OFFCURVE",
"497 179 OFFCURVE",
"509 252 CURVE SMOOTH",
"525 353 OFFCURVE",
"554 489 OFFCURVE",
"559 512 CURVE SMOOTH",
"561 521 OFFCURVE",
"570 532 OFFCURVE",
"578 538 CURVE SMOOTH"
);
},
{
closed = 1;
nodes = (
"225 236 LINE SMOOTH",
"310 326 OFFCURVE",
"403 405 OFFCURVE",
"471 461 CURVE SMOOTH",
"512 494 OFFCURVE",
"525 499 OFFCURVE",
"523 479 CURVE SMOOTH",
"520 447 OFFCURVE",
"501 317 OFFCURVE",
"483 196 CURVE",
"478 204 OFFCURVE",
"472 211 OFFCURVE",
"467 215 CURVE SMOOTH",
"459 221 OFFCURVE",
"391 219 OFFCURVE",
"379 218 CURVE SMOOTH",
"200 210 LINE"
);
},
{
closed = 1;
nodes = (
"618 626 OFFCURVE",
"598 640 OFFCURVE",
"572 640 CURVE SMOOTH",
"532 640 OFFCURVE",
"497 613 OFFCURVE",
"497 571 CURVE SMOOTH",
"497 543 OFFCURVE",
"518 529 OFFCURVE",
"544 529 CURVE SMOOTH",
"584 529 OFFCURVE",
"618 557 OFFCURVE",
"618 598 CURVE SMOOTH"
);
},
{
closed = 1;
nodes = (
"602 563 OFFCURVE",
"582 535 OFFCURVE",
"549 535 CURVE SMOOTH",
"524 535 OFFCURVE",
"512 554 OFFCURVE",
"512 577 CURVE SMOOTH",
"512 610 OFFCURVE",
"535 634 OFFCURVE",
"568 634 CURVE SMOOTH",
"592 634 OFFCURVE",
"602 616 OFFCURVE",
"602 594 CURVE SMOOTH"
);
}
);
width = 563;
}
);
note = Aring;
unicode = 00C5;
},
{
color = 11;
glyphname = Atilde;
lastChange = "2021-07-14 20:19:39 +0000";
layers = (
{
hints = (
{
horizontal = 1;
place = "{-2, 18}";
type = Stem;
},
{
horizontal = 1;
place = "{171, 8}";
type = Stem;
},
{
place = "{408, 9}";
type = Stem;
},
{
place = "{626, 28}";
type = Stem;
},
{
horizontal = 1;
place = "{604, 15}";
type = Stem;
},
{
horizontal = 1;
place = "{642, 15}";
type = Stem;
},
{
place = "{468, 204}";
type = Stem;
}
);
layerId = "DB049CBD-EE5A-4C6A-B8D5-3A4D87564362";
paths = (
{
closed = 1;
nodes = (
"583 541 OFFCURVE",
"578 544 OFFCURVE",
"574 541 CURVE SMOOTH",
"567 535 OFFCURVE",
"551 528 OFFCURVE",
"542 526 CURVE SMOOTH",
"529 523 OFFCURVE",
"520 520 OFFCURVE",
"512 514 CURVE SMOOTH",
"430 447 OFFCURVE",
"298 328 OFFCURVE",
"185 209 CURVE",
"168 209 LINE SMOOTH",
"142 208 OFFCURVE",
"84 214 OFFCURVE",
"67 240 CURVE SMOOTH",
"64 245 OFFCURVE",
"62 242 OFFCURVE",
"63 238 CURVE SMOOTH",
"79 189 OFFCURVE",
"126 196 OFFCURVE",
"175 199 CURVE SMOOTH",
"176 199 LINE",
"150 172 OFFCURVE",
"126 145 OFFCURVE",
"104 119 CURVE SMOOTH",
"57 65 OFFCURVE",
"18 15 OFFCURVE",
"-6 -28 CURVE SMOOTH",
"-18 -48 OFFCURVE",
"-20 -67 OFFCURVE",
"-17 -76 CURVE",
"-13 -96 OFFCURVE",
"10 -110 OFFCURVE",
"8 -95 CURVE SMOOTH",
"0 -20 OFFCURVE",
"117 119 OFFCURVE",
"191 200 CURVE",
"231 203 OFFCURVE",
"323 206 OFFCURVE",
"395 208 CURVE SMOOTH",
"419 209 OFFCURVE",
"460 204 OFFCURVE",
"481 184 CURVE",
"467 94 LINE SMOOTH",
"462 64 OFFCURVE",
"457 31 OFFCURVE",
"456 4 CURVE SMOOTH",
"456 -22 OFFCURVE",
"484 -11 OFFCURVE",
"499 -5 CURVE SMOOTH",
"530 6 OFFCURVE",
"557 25 OFFCURVE",
"577 46 CURVE",
"582 50 OFFCURVE",
"581 57 OFFCURVE",
"576 51 CURVE SMOOTH",
"560 34 OFFCURVE",
"540 19 OFFCURVE",
"516 9 CURVE SMOOTH",
"480 -7 OFFCURVE",
"484 35 OFFCURVE",
"486 58 CURVE SMOOTH",
"488 91 OFFCURVE",
"497 179 OFFCURVE",
"509 252 CURVE SMOOTH",
"525 353 OFFCURVE",
"554 489 OFFCURVE",
"559 512 CURVE SMOOTH",
"561 521 OFFCURVE",
"570 532 OFFCURVE",
"578 538 CURVE SMOOTH"
);
},
{
closed = 1;
nodes = (
"225 236 LINE SMOOTH",
"310 326 OFFCURVE",
"403 405 OFFCURVE",
"471 461 CURVE SMOOTH",
"512 494 OFFCURVE",
"525 499 OFFCURVE",
"523 479 CURVE SMOOTH",
"520 447 OFFCURVE",
"501 317 OFFCURVE",
"483 196 CURVE",
"478 204 OFFCURVE",
"472 211 OFFCURVE",
"467 215 CURVE SMOOTH",
"459 221 OFFCURVE",
"391 219 OFFCURVE",
"379 218 CURVE SMOOTH",
"200 210 LINE"
);
},
{
closed = 1;
nodes = (
"657 641 OFFCURVE",
"657 649 OFFCURVE",
"656 646 CURVE SMOOTH",
"638 609 OFFCURVE",
"618 612 OFFCURVE",
"572 643 CURVE SMOOTH",
"529 672 OFFCURVE",
"500 648 OFFCURVE",
"487 617 CURVE SMOOTH",
"486 614 OFFCURVE",
"486 606 OFFCURVE",
"487 609 CURVE SMOOTH",
"500 639 OFFCURVE",
"522 656 OFFCURVE",
"563 628 CURVE SMOOTH",
"609 597 OFFCURVE",
"638 596 OFFCURVE",
"656 638 CURVE SMOOTH"
);
}
);
width = 563;
}
);
note = Atilde;
unicode = 00C3;
},
{
color = 5;
glyphname = AE;
lastChange = "2021-04-20 17:45:09 +0000";
layers = (
{
hints = (
{
horizontal = 1;
place = "{-2, 18}";
type = Stem;
},
{
horizontal = 1;
place = "{171, 8}";
type = Stem;
},
{
place = "{410, 9}";
type = Stem;
},
{
place = "{628, 28}";
type = Stem;
}
);
layerId = "DB049CBD-EE5A-4C6A-B8D5-3A4D87564362";
paths = (
{
closed = 1;
nodes = (
"763 259 OFFCURVE",
"768 267 OFFCURVE",
"762 267 CURVE SMOOTH",
"734 267 OFFCURVE",
"619 267 OFFCURVE",
"506 266 CURVE SMOOTH",
"487 266 LINE",
"523 355 OFFCURVE",
"563 443 OFFCURVE",
"584 487 CURVE SMOOTH",
"593 507 OFFCURVE",
"596 512 OFFCURVE",
"620 515 CURVE SMOOTH",
"654 519 OFFCURVE",
"694 519 OFFCURVE",
"729 518 CURVE SMOOTH",
"783 516 OFFCURVE",
"811 508 OFFCURVE",
"806 482 CURVE SMOOTH",
"804 469 OFFCURVE",
"793 434 OFFCURVE",
"789 424 CURVE",
"787 421 OFFCURVE",
"794 422 OFFCURVE",
"797 425 CURVE",
"797 426 OFFCURVE",
"811 478 OFFCURVE",
"819 499 CURVE SMOOTH",
"821 505 OFFCURVE",
"825 514 OFFCURVE",
"828 519 CURVE",
"828 520 OFFCURVE",
"833 527 OFFCURVE",
"828 527 CURVE SMOOTH",
"773 527 OFFCURVE",
"722 526 OFFCURVE",
"668 525 CURVE SMOOTH",
"638 524 OFFCURVE",
"606 524 OFFCURVE",
"575 524 CURVE SMOOTH",
"548 524 OFFCURVE",
"522 524 OFFCURVE",
"499 525 CURVE SMOOTH",
"494 525 OFFCURVE",
"487 516 OFFCURVE",
"492 517 CURVE SMOOTH",
"498 517 OFFCURVE",
"519 520 OFFCURVE",
"535 520 CURVE SMOOTH",
"541 520 OFFCURVE",
"546 519 OFFCURVE",
"551 519 CURVE",
"561 517 OFFCURVE",
"565 514 OFFCURVE",
"564 507 CURVE",
"488 450 OFFCURVE",
"378 359 OFFCURVE",
"272 264 CURVE",
"241 263 OFFCURVE",
"210 263 OFFCURVE",
"179 263 CURVE SMOOTH",
"166 263 OFFCURVE",
"130 235 OFFCURVE",
"149 239 CURVE SMOOTH",
"159 240 OFFCURVE",
"174 240 OFFCURVE",
"194 244 CURVE",
"255 249 LINE",
"207 206 OFFCURVE",
"160 161 OFFCURVE",
"119 119 CURVE SMOOTH",
"66 65 OFFCURVE",
"22 15 OFFCURVE",
"-8 -28 CURVE SMOOTH",
"-21 -48 OFFCURVE",
"-25 -67 OFFCURVE",
"-24 -76 CURVE SMOOTH",
"-22 -96 OFFCURVE",
"-1 -110 OFFCURVE",
"-1 -95 CURVE SMOOTH",
"-1 -8 OFFCURVE",
"183 169 OFFCURVE",
"254 236 CURVE SMOOTH",
"269 250 LINE",
"323 253 OFFCURVE",
"397 256 OFFCURVE",
"469 257 CURVE",
"446 203 OFFCURVE",
"424 150 OFFCURVE",
"405 101 CURVE SMOOTH",
"394 72 OFFCURVE",
"367 -2 OFFCURVE",
"392 -2 CURVE SMOOTH",
"450 -2 OFFCURVE",
"671 -7 OFFCURVE",
"719 2 CURVE SMOOTH",
"730 4 OFFCURVE",
"748 64 OFFCURVE",
"758 97 CURVE SMOOTH",
"759 99 OFFCURVE",
"749 97 OFFCURVE",
"749 96 CURVE SMOOTH",
"744 62 OFFCURVE",
"724 37 OFFCURVE",
"718 33 CURVE SMOOTH",
"699 19 OFFCURVE",
"658 13 OFFCURVE",
"616 9 CURVE SMOOTH",
"562 5 OFFCURVE",
"483 7 OFFCURVE",
"454 10 CURVE SMOOTH",
"402 14 OFFCURVE",
"411 50 OFFCURVE",
"422 88 CURVE SMOOTH",
"436 135 OFFCURVE",
"459 195 OFFCURVE",
"484 257 CURVE",
"502 257 LINE SMOOTH",
"580 257 OFFCURVE",
"646 258 OFFCURVE",
"663 257 CURVE SMOOTH",
"717 255 OFFCURVE",
"746 248 OFFCURVE",
"741 222 CURVE SMOOTH",
"739 208 OFFCURVE",
"731 188 OFFCURVE",
"728 184 CURVE SMOOTH",
"726 180 OFFCURVE",
"735 180 OFFCURVE",
"736 185 CURVE SMOOTH",
"753 238 LINE SMOOTH",
"755 244 OFFCURVE",
"759 254 OFFCURVE",
"762 258 CURVE SMOOTH"
);
},
{
closed = 1;
nodes = (
"528 400 OFFCURVE",
"501 333 OFFCURVE",
"473 266 CURVE",
"391 265 OFFCURVE",
"317 264 OFFCURVE",
"284 264 CURVE",
"371 342 OFFCURVE",
"460 411 OFFCURVE",
"527 461 CURVE SMOOTH",
"558 485 LINE",
"556 477 OFFCURVE",
"552 470 OFFCURVE",
"550 462 CURVE SMOOTH"
);
}
);
width = 802;
}
);
note = AE;
unicode = 00C6;
},
{
color = 11;
glyphname = AEacute;
lastChange = "2021-07-14 20:19:39 +0000";
layers = (
{
hints = (
{
horizontal = 1;
place = "{-2, 18}";
type = Stem;
},
{
horizontal = 1;
place = "{171, 8}";
type = Stem;
},
{
place = "{410, 9}";
type = Stem;
},
{
place = "{628, 28}";
type = Stem;
},
{
horizontal = 1;
place = "{564, 103}";
type = Stem;
},
{
place = "{664, 151}";
type = Stem;
}
);
layerId = "DB049CBD-EE5A-4C6A-B8D5-3A4D87564362";
paths = (
{
closed = 1;
nodes = (
"763 259 OFFCURVE",
"768 267 OFFCURVE",
"762 267 CURVE SMOOTH",
"734 267 OFFCURVE",
"619 267 OFFCURVE",
"506 266 CURVE SMOOTH",
"487 266 LINE",
"523 355 OFFCURVE",
"563 443 OFFCURVE",
"584 487 CURVE SMOOTH",
"593 507 OFFCURVE",
"596 512 OFFCURVE",
"620 515 CURVE SMOOTH",
"654 519 OFFCURVE",
"694 519 OFFCURVE",
"729 518 CURVE SMOOTH",
"783 516 OFFCURVE",
"811 508 OFFCURVE",
"806 482 CURVE SMOOTH",
"804 469 OFFCURVE",
"793 434 OFFCURVE",
"789 424 CURVE",
"787 421 OFFCURVE",
"794 422 OFFCURVE",
"797 425 CURVE",
"797 426 OFFCURVE",
"811 478 OFFCURVE",
"819 499 CURVE SMOOTH",
"821 505 OFFCURVE",
"825 514 OFFCURVE",
"828 519 CURVE",
"828 520 OFFCURVE",
"833 527 OFFCURVE",
"828 527 CURVE SMOOTH",
"773 527 OFFCURVE",
"722 526 OFFCURVE",
"668 525 CURVE SMOOTH",
"638 524 OFFCURVE",
"606 524 OFFCURVE",
"575 524 CURVE SMOOTH",
"548 524 OFFCURVE",
"522 524 OFFCURVE",
"499 525 CURVE SMOOTH",
"494 525 OFFCURVE",
"487 516 OFFCURVE",
"492 517 CURVE SMOOTH",
"498 517 OFFCURVE",
"519 520 OFFCURVE",
"535 520 CURVE SMOOTH",
"541 520 OFFCURVE",
"546 519 OFFCURVE",
"551 519 CURVE",
"561 517 OFFCURVE",
"565 514 OFFCURVE",
"564 507 CURVE",
"488 450 OFFCURVE",
"378 359 OFFCURVE",
"272 264 CURVE",
"241 263 OFFCURVE",
"210 263 OFFCURVE",
"179 263 CURVE SMOOTH",
"166 263 OFFCURVE",
"130 235 OFFCURVE",
"149 239 CURVE SMOOTH",
"159 240 OFFCURVE",
"174 240 OFFCURVE",
"194 244 CURVE",
"255 249 LINE",
"207 206 OFFCURVE",
"160 161 OFFCURVE",
"119 119 CURVE SMOOTH",
"66 65 OFFCURVE",
"22 15 OFFCURVE",
"-8 -28 CURVE SMOOTH",
"-21 -48 OFFCURVE",
"-25 -67 OFFCURVE",
"-24 -76 CURVE SMOOTH",
"-22 -96 OFFCURVE",
"-1 -110 OFFCURVE",
"-1 -95 CURVE SMOOTH",
"-1 -8 OFFCURVE",
"183 169 OFFCURVE",
"254 236 CURVE SMOOTH",
"269 250 LINE",
"323 253 OFFCURVE",
"397 256 OFFCURVE",
"469 257 CURVE",
"446 203 OFFCURVE",
"424 150 OFFCURVE",
"405 101 CURVE SMOOTH",
"394 72 OFFCURVE",
"367 -2 OFFCURVE",
"392 -2 CURVE SMOOTH",
"450 -2 OFFCURVE",
"671 -7 OFFCURVE",
"719 2 CURVE SMOOTH",
"730 4 OFFCURVE",
"748 64 OFFCURVE",
"758 97 CURVE SMOOTH",
"759 99 OFFCURVE",
"749 97 OFFCURVE",
"749 96 CURVE SMOOTH",
"744 62 OFFCURVE",
"724 37 OFFCURVE",
"718 33 CURVE SMOOTH",
"699 19 OFFCURVE",
"658 13 OFFCURVE",
"616 9 CURVE SMOOTH",
"562 5 OFFCURVE",
"483 7 OFFCURVE",
"454 10 CURVE SMOOTH",
"402 14 OFFCURVE",
"411 50 OFFCURVE",
"422 88 CURVE SMOOTH",
"436 135 OFFCURVE",
"459 195 OFFCURVE",
"484 257 CURVE",
"502 257 LINE SMOOTH",
"580 257 OFFCURVE",
"646 258 OFFCURVE",
"663 257 CURVE SMOOTH",
"717 255 OFFCURVE",
"746 248 OFFCURVE",
"741 222 CURVE SMOOTH",
"739 208 OFFCURVE",
"731 188 OFFCURVE",
"728 184 CURVE SMOOTH",
"726 180 OFFCURVE",
"735 180 OFFCURVE",
"736 185 CURVE SMOOTH",
"753 238 LINE SMOOTH",
"755 244 OFFCURVE",
"759 254 OFFCURVE",
"762 258 CURVE SMOOTH"
);
},
{
closed = 1;
nodes = (
"528 400 OFFCURVE",
"501 333 OFFCURVE",
"473 266 CURVE",
"391 265 OFFCURVE",
"317 264 OFFCURVE",
"284 264 CURVE",
"371 342 OFFCURVE",
"460 411 OFFCURVE",
"527 461 CURVE SMOOTH",
"558 485 LINE",
"556 477 OFFCURVE",
"552 470 OFFCURVE",
"550 462 CURVE SMOOTH"
);
},
{
closed = 1;
nodes = (
"718 595 OFFCURVE",
"786 633 OFFCURVE",
"798 642 CURVE SMOOTH",
"801 644 OFFCURVE",
"795 656 OFFCURVE",
"793 654 CURVE",
"703 591 LINE SMOOTH",
"700 589 OFFCURVE",
"699 581 OFFCURVE",
"703 584 CURVE SMOOTH"
);
}
);
width = 802;
}
);
note = AEacute;
unicode = 01FC;
},
{
color = 5;
glyphname = B;
lastChange = "2021-04-20 17:45:09 +0000";
layers = (
{
hints = (
{
horizontal = 1;
place = "{-10, 10}";
type = Stem;
},
{
horizontal = 1;
place = "{-3, 21}";
target = up;
type = BottomGhost;
},
{
horizontal = 1;
place = "{228, 9}";
type = Stem;
},
{
horizontal = 1;
place = "{231, -20}";
target = down;
type = TopGhost;
},
{
horizontal = 1;
place = "{442, 10}";
type = Stem;
},
{
place = "{465, 48}";
type = Stem;
},
{
place = "{506, 49}";
type = Stem;
}
);
layerId = "DB049CBD-EE5A-4C6A-B8D5-3A4D87564362";
paths = (
{
closed = 1;
nodes = (
"522 508 OFFCURVE",
"460 337 OFFCURVE",
"314 309 CURVE",
"296 310 OFFCURVE",
"281 314 OFFCURVE",
"264 308 CURVE SMOOTH",
"256 305 OFFCURVE",
"254 293 OFFCURVE",
"270 294 CURVE SMOOTH",
"283 294 OFFCURVE",
"297 297 OFFCURVE",
"318 304 CURVE",
"543 270 OFFCURVE",
"454 -4 OFFCURVE",
"205 -4 CURVE SMOOTH",
"162 -4 OFFCURVE",
"128 7 OFFCURVE",
"104 24 CURVE SMOOTH",
"100 27 OFFCURVE",
"100 11 OFFCURVE",
"105 8 CURVE SMOOTH",
"130 -7 OFFCURVE",
"167 -13 OFFCURVE",
"205 -13 CURVE SMOOTH",
"479 -13 OFFCURVE",
"581 261 OFFCURVE",
"332 308 CURVE",
"527 358 OFFCURVE",
"552 547 OFFCURVE",
"312 534 CURVE SMOOTH",
"268 532 OFFCURVE",
"210 531 OFFCURVE",
"164 534 CURVE",
"159 535 OFFCURVE",
"154 524 OFFCURVE",
"159 524 CURVE SMOOTH",
"177 526 OFFCURVE",
"195 527 OFFCURVE",
"210 527 CURVE SMOOTH",
"237 526 OFFCURVE",
"236 523 OFFCURVE",
"230 505 CURVE SMOOTH",
"211 454 OFFCURVE",
"179 362 OFFCURVE",
"142 271 CURVE SMOOTH",
"118 210 OFFCURVE",
"27 -10 OFFCURVE",
"-11 -29 CURVE",
"-9 -34 LINE",
"11 -32 OFFCURVE",
"25 -22 OFFCURVE",
"37 -9 CURVE SMOOTH",
"53 8 OFFCURVE",
"62 30 OFFCURVE",
"71 55 CURVE SMOOTH",
"97 126 OFFCURVE",
"124 197 OFFCURVE",
"154 267 CURVE SMOOTH",
"200 377 OFFCURVE",
"250 483 OFFCURVE",
"264 509 CURVE SMOOTH",
"276 531 OFFCURVE",
"335 529 OFFCURVE",
"356 527 CURVE SMOOTH"
);
}
);
width = 477;
}
);
note = B;
unicode = 0042;
},
{
color = 5;
glyphname = C;
lastChange = "2021-04-20 17:45:09 +0000";
layers = (
{
hints = (
{
horizontal = 1;
place = "{-2, 8}";
type = Stem;
},
{
horizontal = 1;
place = "{454, 9}";
type = Stem;
},
{
place = "{43, 44}";
type = Stem;
},
{
place = "{496, 40}";
type = Stem;
}
);
layerId = "DB049CBD-EE5A-4C6A-B8D5-3A4D87564362";
paths = (
{
closed = 1;
nodes = (
"567 519 OFFCURVE",
"570 526 OFFCURVE",
"556 529 CURVE SMOOTH",
"521 537 OFFCURVE",
"487 544 OFFCURVE",
"450 544 CURVE SMOOTH",
"49 544 OFFCURVE",
"-161 -12 OFFCURVE",
"249 -12 CURVE SMOOTH",
"327 -12 OFFCURVE",
"393 16 OFFCURVE",
"439 47 CURVE SMOOTH",
"466 65 OFFCURVE",
"519 112 OFFCURVE",
"531 145 CURVE SMOOTH",
"534 153 OFFCURVE",
"528 152 OFFCURVE",
"523 145 CURVE SMOOTH",
"499 111 OFFCURVE",
"470 80 OFFCURVE",
"438 56 CURVE SMOOTH",
"385 17 OFFCURVE",
"320 -4 OFFCURVE",
"248 -4 CURVE SMOOTH",
"-118 -4 OFFCURVE",
"90 536 OFFCURVE",
"430 536 CURVE SMOOTH",
"470 536 OFFCURVE",
"549 525 OFFCURVE",
"540 469 CURVE SMOOTH",
"538 455 OFFCURVE",
"528 419 OFFCURVE",
"523 410 CURVE SMOOTH",
"521 406 OFFCURVE",
"529 407 OFFCURVE",
"531 410 CURVE SMOOTH",
"532 411 OFFCURVE",
"538 432 OFFCURVE",
"544 453 CURVE SMOOTH",
"550 473 OFFCURVE",
"557 492 OFFCURVE",
"564 512 CURVE SMOOTH"
);
}
);
width = 518;
}
);
note = C;
unicode = 0043;
},
{
color = 11;
glyphname = Cacute;
lastChange = "2021-07-14 20:19:39 +0000";
layers = (
{
hints = (
{
horizontal = 1;
place = "{-2, 8}";
type = Stem;
},
{
horizontal = 1;
place = "{454, 9}";
type = Stem;
},
{
place = "{43, 44}";
type = Stem;
},
{
place = "{496, 40}";
type = Stem;
},
{
horizontal = 1;
place = "{561, 103}";
type = Stem;
},
{
place = "{423, 151}";
type = Stem;
}
);
layerId = "DB049CBD-EE5A-4C6A-B8D5-3A4D87564362";
paths = (
{
closed = 1;
nodes = (
"567 519 OFFCURVE",
"570 526 OFFCURVE",
"556 529 CURVE SMOOTH",
"521 537 OFFCURVE",
"487 544 OFFCURVE",
"450 544 CURVE SMOOTH",
"49 544 OFFCURVE",
"-161 -12 OFFCURVE",
"249 -12 CURVE SMOOTH",
"327 -12 OFFCURVE",
"393 16 OFFCURVE",
"439 47 CURVE SMOOTH",
"466 65 OFFCURVE",
"519 112 OFFCURVE",
"531 145 CURVE SMOOTH",
"534 153 OFFCURVE",
"528 152 OFFCURVE",
"523 145 CURVE SMOOTH",
"499 111 OFFCURVE",
"470 80 OFFCURVE",
"438 56 CURVE SMOOTH",
"385 17 OFFCURVE",
"320 -4 OFFCURVE",
"248 -4 CURVE SMOOTH",
"-118 -4 OFFCURVE",
"90 536 OFFCURVE",
"430 536 CURVE SMOOTH",
"470 536 OFFCURVE",
"549 525 OFFCURVE",
"540 469 CURVE SMOOTH",
"538 455 OFFCURVE",
"528 419 OFFCURVE",
"523 410 CURVE SMOOTH",
"521 406 OFFCURVE",
"529 407 OFFCURVE",
"531 410 CURVE SMOOTH",
"532 411 OFFCURVE",
"538 432 OFFCURVE",
"544 453 CURVE SMOOTH",
"550 473 OFFCURVE",
"557 492 OFFCURVE",
"564 512 CURVE SMOOTH"
);
},
{
closed = 1;
nodes = (
"477 592 OFFCURVE",
"545 630 OFFCURVE",
"557 639 CURVE SMOOTH",
"560 641 OFFCURVE",
"554 653 OFFCURVE",
"552 651 CURVE",
"462 588 LINE SMOOTH",
"459 586 OFFCURVE",
"458 578 OFFCURVE",
"462 581 CURVE SMOOTH"
);
}
);
width = 518;
}
);
note = Cacute;
unicode = 0106;
},
{
color = 11;
glyphname = Ccaron;
lastChange = "2021-07-14 20:19:39 +0000";
layers = (
{
hints = (
{
horizontal = 1;
place = "{-2, 8}";
type = Stem;
},
{
horizontal = 1;
place = "{454, 9}";
type = Stem;
},
{
place = "{43, 44}";
type = Stem;
},
{
place = "{496, 40}";
type = Stem;
}
);
layerId = "DB049CBD-EE5A-4C6A-B8D5-3A4D87564362";
paths = (
{
closed = 1;
nodes = (
"567 519 OFFCURVE",
"570 526 OFFCURVE",
"556 529 CURVE SMOOTH",
"521 537 OFFCURVE",
"487 544 OFFCURVE",
"450 544 CURVE SMOOTH",
"49 544 OFFCURVE",
"-161 -12 OFFCURVE",
"249 -12 CURVE SMOOTH",
"327 -12 OFFCURVE",
"393 16 OFFCURVE",
"439 47 CURVE SMOOTH",
"466 65 OFFCURVE",
"519 112 OFFCURVE",
"531 145 CURVE SMOOTH",
"534 153 OFFCURVE",
"528 152 OFFCURVE",
"523 145 CURVE SMOOTH",
"499 111 OFFCURVE",
"470 80 OFFCURVE",
"438 56 CURVE SMOOTH",
"385 17 OFFCURVE",
"320 -4 OFFCURVE",
"248 -4 CURVE SMOOTH",
"-118 -4 OFFCURVE",
"90 536 OFFCURVE",
"430 536 CURVE SMOOTH",
"470 536 OFFCURVE",
"549 525 OFFCURVE",
"540 469 CURVE SMOOTH",
"538 455 OFFCURVE",
"528 419 OFFCURVE",
"523 410 CURVE SMOOTH",
"521 406 OFFCURVE",
"529 407 OFFCURVE",
"531 410 CURVE SMOOTH",
"532 411 OFFCURVE",
"538 432 OFFCURVE",
"544 453 CURVE SMOOTH",
"550 473 OFFCURVE",
"557 492 OFFCURVE",
"564 512 CURVE SMOOTH"
);
},
{
closed = 1;
nodes = (
"542 649 OFFCURVE",
"541 665 OFFCURVE",
"537 660 CURVE SMOOTH",
"518 636 OFFCURVE",
"479 584 OFFCURVE",
"469 574 CURVE",
"464 583 OFFCURVE",
"438 649 OFFCURVE",
"438 657 CURVE",
"424 657 LINE",
"427 651 OFFCURVE",
"451 596 OFFCURVE",
"461 565 CURVE",
"469 565 LINE",
"469 565 OFFCURVE",
"525 633 OFFCURVE",
"539 648 CURVE"
);
}
);
width = 518;
}
);
note = Ccaron;
unicode = 010C;
},
{
color = 11;
glyphname = Ccedilla;
lastChange = "2021-07-14 20:19:39 +0000";
layers = (
{
hints = (
{
horizontal = 1;
place = "{-2, 8}";
type = Stem;
},
{
horizontal = 1;
place = "{454, 9}";
type = Stem;
},
{
place = "{43, 44}";
type = Stem;
},
{
place = "{496, 40}";
type = Stem;
}
);
layerId = "DB049CBD-EE5A-4C6A-B8D5-3A4D87564362";
paths = (
{
closed = 1;
nodes = (
"567 519 OFFCURVE",
"570 526 OFFCURVE",
"556 529 CURVE SMOOTH",
"521 537 OFFCURVE",
"487 544 OFFCURVE",
"450 544 CURVE SMOOTH",
"49 544 OFFCURVE",
"-161 -12 OFFCURVE",
"249 -12 CURVE SMOOTH",
"327 -12 OFFCURVE",
"393 16 OFFCURVE",
"439 47 CURVE SMOOTH",
"466 65 OFFCURVE",
"519 112 OFFCURVE",
"531 145 CURVE SMOOTH",
"534 153 OFFCURVE",
"528 152 OFFCURVE",
"523 145 CURVE SMOOTH",
"499 111 OFFCURVE",
"470 80 OFFCURVE",
"438 56 CURVE SMOOTH",
"385 17 OFFCURVE",
"320 -4 OFFCURVE",
"248 -4 CURVE SMOOTH",
"-118 -4 OFFCURVE",
"90 536 OFFCURVE",
"430 536 CURVE SMOOTH",
"470 536 OFFCURVE",
"549 525 OFFCURVE",
"540 469 CURVE SMOOTH",
"538 455 OFFCURVE",
"528 419 OFFCURVE",
"523 410 CURVE SMOOTH",
"521 406 OFFCURVE",
"529 407 OFFCURVE",
"531 410 CURVE SMOOTH",
"532 411 OFFCURVE",
"538 432 OFFCURVE",
"544 453 CURVE SMOOTH",
"550 473 OFFCURVE",
"557 492 OFFCURVE",
"564 512 CURVE SMOOTH"
);
},
{
closed = 1;
nodes = (
"218 -94 OFFCURVE",
"175 -81 OFFCURVE",
"153 -60 CURVE SMOOTH",
"128 -35 OFFCURVE",
"175 -13 OFFCURVE",
"195 -9 CURVE SMOOTH",
"201 -8 OFFCURVE",
"203 0 OFFCURVE",
"191 -4 CURVE SMOOTH",
"150 -18 OFFCURVE",
"112 -47 OFFCURVE",
"142 -71 CURVE SMOOTH",
"158 -84 OFFCURVE",
"178 -95 OFFCURVE",
"188 -113 CURVE SMOOTH",
"218 -166 OFFCURVE",
"140 -183 OFFCURVE",
"90 -164 CURVE SMOOTH",
"80 -160 OFFCURVE",
"81 -176 OFFCURVE",
"99 -180 CURVE SMOOTH",
"139 -188 OFFCURVE",
"202 -169 OFFCURVE",
"212 -124 CURVE SMOOTH"
);
}
);
width = 518;
}
);
note = Ccedilla;
unicode = 00C7;
},
{
color = 11;
glyphname = Ccircumflex;
lastChange = "2021-07-14 20:19:39 +0000";
layers = (
{
hints = (
{
horizontal = 1;
place = "{-2, 8}";
type = Stem;
},
{
horizontal = 1;
place = "{153, 21}";
target = up;
type = BottomGhost;
},
{
horizontal = 1;
place = "{454, 9}";
type = Stem;
},
{
horizontal = 1;
place = "{682, 7}";
type = Stem;
},
{
horizontal = 1;
place = "{692, -20}";
target = down;
type = TopGhost;
},
{
place = "{43, 44}";
type = Stem;
},
{
place = "{348, 222}";
type = Stem;
},
{
place = "{496, 40}";
type = Stem;
},
{
place = "{522, 48}";
type = Stem;
}
);
layerId = "DB049CBD-EE5A-4C6A-B8D5-3A4D87564362";
paths = (
{
closed = 1;
nodes = (
"567 519 OFFCURVE",
"570 526 OFFCURVE",
"556 529 CURVE SMOOTH",
"521 537 OFFCURVE",
"487 544 OFFCURVE",
"450 544 CURVE SMOOTH",
"49 544 OFFCURVE",
"-161 -12 OFFCURVE",
"249 -12 CURVE SMOOTH",
"327 -12 OFFCURVE",
"393 16 OFFCURVE",
"439 47 CURVE SMOOTH",
"466 65 OFFCURVE",
"519 112 OFFCURVE",
"531 145 CURVE SMOOTH",
"534 153 OFFCURVE",
"528 152 OFFCURVE",
"523 145 CURVE SMOOTH",
"499 111 OFFCURVE",
"470 80 OFFCURVE",
"438 56 CURVE SMOOTH",
"385 17 OFFCURVE",
"320 -4 OFFCURVE",
"248 -4 CURVE SMOOTH",
"-118 -4 OFFCURVE",
"90 536 OFFCURVE",
"430 536 CURVE SMOOTH",
"470 536 OFFCURVE",
"549 525 OFFCURVE",
"540 469 CURVE SMOOTH",
"538 455 OFFCURVE",
"528 419 OFFCURVE",
"523 410 CURVE SMOOTH",
"521 406 OFFCURVE",
"529 407 OFFCURVE",
"531 410 CURVE SMOOTH",
"532 411 OFFCURVE",
"538 432 OFFCURVE",
"544 453 CURVE SMOOTH",
"550 473 OFFCURVE",
"557 492 OFFCURVE",
"564 512 CURVE SMOOTH"
);
},
{
closed = 1;
nodes = (
"407 577 OFFCURVE",
"408 561 OFFCURVE",
"412 566 CURVE SMOOTH",
"431 590 OFFCURVE",
"470 642 OFFCURVE",
"480 652 CURVE",
"485 643 OFFCURVE",
"511 577 OFFCURVE",
"511 569 CURVE",
"525 569 LINE",
"522 575 OFFCURVE",
"498 630 OFFCURVE",
"488 661 CURVE",
"480 661 LINE",
"480 661 OFFCURVE",
"424 593 OFFCURVE",
"410 578 CURVE"
);
}
);
width = 518;
}
);
note = Ccircumflex;
unicode = 0108;
},
{
color = 11;
glyphname = Cdotaccent;
lastChange = "2021-07-14 20:19:39 +0000";
layers = (
{
hints = (
{
horizontal = 1;
place = "{-2, 8}";
type = Stem;
},
{
horizontal = 1;
place = "{454, 9}";
type = Stem;
},
{
place = "{43, 44}";
type = Stem;
},
{
place = "{496, 40}";
type = Stem;
}
);
layerId = "DB049CBD-EE5A-4C6A-B8D5-3A4D87564362";
paths = (
{
closed = 1;
nodes = (
"567 519 OFFCURVE",
"570 526 OFFCURVE",
"556 529 CURVE SMOOTH",
"521 537 OFFCURVE",
"487 544 OFFCURVE",
"450 544 CURVE SMOOTH",
"49 544 OFFCURVE",
"-161 -12 OFFCURVE",
"249 -12 CURVE SMOOTH",
"327 -12 OFFCURVE",
"393 16 OFFCURVE",
"439 47 CURVE SMOOTH",
"466 65 OFFCURVE",
"519 112 OFFCURVE",
"531 145 CURVE SMOOTH",
"534 153 OFFCURVE",
"528 152 OFFCURVE",
"523 145 CURVE SMOOTH",
"499 111 OFFCURVE",
"470 80 OFFCURVE",
"438 56 CURVE SMOOTH",
"385 17 OFFCURVE",
"320 -4 OFFCURVE",
"248 -4 CURVE SMOOTH",
"-118 -4 OFFCURVE",
"90 536 OFFCURVE",
"430 536 CURVE SMOOTH",
"470 536 OFFCURVE",
"549 525 OFFCURVE",
"540 469 CURVE SMOOTH",
"538 455 OFFCURVE",
"528 419 OFFCURVE",
"523 410 CURVE SMOOTH",
"521 406 OFFCURVE",
"529 407 OFFCURVE",
"531 410 CURVE SMOOTH",
"532 411 OFFCURVE",
"538 432 OFFCURVE",
"544 453 CURVE SMOOTH",
"550 473 OFFCURVE",
"557 492 OFFCURVE",
"564 512 CURVE SMOOTH"
);
},
{
closed = 1;
nodes = (
"500 655 OFFCURVE",
"455 637 OFFCURVE",
"449 610 CURVE SMOOTH",
"445 594 OFFCURVE",
"463 580 OFFCURVE",
"477 595 CURVE SMOOTH",
"485 604 OFFCURVE",
"496 624 OFFCURVE",
"497 635 CURVE SMOOTH"
);
}
);
width = 518;
}
);
note = Cdotaccent;
unicode = 010A;
},
{
color = 5;
glyphname = D;
lastChange = "2021-04-20 17:45:09 +0000";
layers = (
{
hints = (
{
horizontal = 1;
place = "{-3, 21}";
target = up;
type = BottomGhost;
},
{
horizontal = 1;
place = "{433, 10}";
type = Stem;
},
{
place = "{589, 52}";
type = Stem;
},
{
horizontal = 1;
place = "{-8, 8}";
type = Stem;
}
);
layerId = "DB049CBD-EE5A-4C6A-B8D5-3A4D87564362";
paths = (
{
closed = 1;
nodes = (
"607 166 OFFCURVE",
"706 515 OFFCURVE",
"368 533 CURVE SMOOTH",
"338 535 OFFCURVE",
"307 534 OFFCURVE",
"275 533 CURVE SMOOTH",
"235 531 OFFCURVE",
"196 532 OFFCURVE",
"162 534 CURVE",
"158 535 OFFCURVE",
"153 524 OFFCURVE",
"158 524 CURVE SMOOTH",
"176 526 OFFCURVE",
"194 527 OFFCURVE",
"209 527 CURVE SMOOTH",
"237 526 OFFCURVE",
"235 522 OFFCURVE",
"229 504 CURVE SMOOTH",
"176 350 OFFCURVE",
"107 175 OFFCURVE",
"33 29 CURVE SMOOTH",
"24 11 OFFCURVE",
"15 -2 OFFCURVE",
"5 -8 CURVE",
"7 -14 LINE",
"165 13 OFFCURVE",
"280 -50 OFFCURVE",
"434 52 CURVE SMOOTH"
);
},
{
closed = 1;
nodes = (
"327 -10 OFFCURVE",
"193 -11 OFFCURVE",
"81 9 CURVE SMOOTH",
"62 12 OFFCURVE",
"57 20 OFFCURVE",
"75 68 CURVE SMOOTH",
"128 206 OFFCURVE",
"193 380 OFFCURVE",
"265 508 CURVE SMOOTH",
"278 532 OFFCURVE",
"332 527 OFFCURVE",
"355 527 CURVE SMOOTH",
"657 527 OFFCURVE",
"582 181 OFFCURVE",
"427 65 CURVE SMOOTH"
);
}
);
width = 571;
}
);
note = D;
unicode = 0044;
},
{
color = 5;
glyphname = Eth;
lastChange = "2021-04-20 17:45:09 +0000";
layers = (
{
hints = (
{
horizontal = 1;
place = "{-8, 21}";
target = up;
type = BottomGhost;
},
{
horizontal = 1;
place = "{527, 7}";
type = Stem;
},
{
place = "{6, 58}";
type = Stem;
},
{
place = "{562, 31}";
type = Stem;
}
);
layerId = "DB049CBD-EE5A-4C6A-B8D5-3A4D87564362";
paths = (
{
closed = 1;
nodes = (
"607 166 OFFCURVE",
"706 515 OFFCURVE",
"368 533 CURVE SMOOTH",
"338 535 OFFCURVE",
"307 534 OFFCURVE",
"275 533 CURVE SMOOTH",
"235 531 OFFCURVE",
"196 532 OFFCURVE",
"162 534 CURVE",
"158 535 OFFCURVE",
"153 524 OFFCURVE",
"158 524 CURVE SMOOTH",
"176 526 OFFCURVE",
"194 527 OFFCURVE",
"209 527 CURVE SMOOTH",
"237 526 OFFCURVE",
"235 522 OFFCURVE",
"229 504 CURVE SMOOTH",
"200 420 OFFCURVE",
"166 330 OFFCURVE",
"130 242 CURVE",
"94 229 OFFCURVE",
"62 216 OFFCURVE",
"56 214 CURVE SMOOTH",
"53 213 OFFCURVE",
"43 194 OFFCURVE",
"47 195 CURVE SMOOTH",
"122 224 LINE",
"94 156 OFFCURVE",
"64 90 OFFCURVE",
"33 29 CURVE SMOOTH",
"24 11 OFFCURVE",
"15 -2 OFFCURVE",
"5 -8 CURVE",
"7 -14 LINE",
"165 13 OFFCURVE",
"280 -50 OFFCURVE",
"434 52 CURVE SMOOTH"
);
},
{
closed = 1;
nodes = (
"235 280 OFFCURVE",
"189 264 OFFCURVE",
"144 247 CURVE",
"181 339 OFFCURVE",
"222 431 OFFCURVE",
"265 508 CURVE SMOOTH",
"278 532 OFFCURVE",
"332 527 OFFCURVE",
"355 527 CURVE SMOOTH",
"657 527 OFFCURVE",
"582 181 OFFCURVE",
"427 65 CURVE SMOOTH",
"327 -10 OFFCURVE",
"194 -11 OFFCURVE",
"81 9 CURVE SMOOTH",
"62 12 OFFCURVE",
"57 20 OFFCURVE",
"75 68 CURVE SMOOTH",
"137 229 LINE",
"179 244 OFFCURVE",
"221 260 OFFCURVE",
"236 266 CURVE SMOOTH",
"239 267 OFFCURVE",
"247 285 OFFCURVE",
"244 283 CURVE"
);
}
);
width = 571;
}
);
note = Eth;
unicode = 00D0;
},
{
color = 11;
glyphname = Dcaron;
lastChange = "2021-07-14 20:19:39 +0000";
layers = (
{
hints = (
{
horizontal = 1;
place = "{-3, 21}";
target = up;
type = BottomGhost;
},
{
horizontal = 1;
place = "{433, 10}";
type = Stem;
},
{
place = "{589, 52}";
type = Stem;
},
{
horizontal = 1;
place = "{-8, 8}";
type = Stem;
}
);
layerId = "DB049CBD-EE5A-4C6A-B8D5-3A4D87564362";
paths = (
{
closed = 1;
nodes = (
"607 166 OFFCURVE",
"706 515 OFFCURVE",
"368 533 CURVE SMOOTH",
"338 535 OFFCURVE",
"307 534 OFFCURVE",
"275 533 CURVE SMOOTH",
"235 531 OFFCURVE",
"196 532 OFFCURVE",
"162 534 CURVE",
"158 535 OFFCURVE",
"153 524 OFFCURVE",
"158 524 CURVE SMOOTH",
"176 526 OFFCURVE",
"194 527 OFFCURVE",
"209 527 CURVE SMOOTH",
"237 526 OFFCURVE",
"235 522 OFFCURVE",
"229 504 CURVE SMOOTH",
"176 350 OFFCURVE",
"107 175 OFFCURVE",
"33 29 CURVE SMOOTH",
"24 11 OFFCURVE",
"15 -2 OFFCURVE",
"5 -8 CURVE",
"7 -14 LINE",
"165 13 OFFCURVE",
"280 -50 OFFCURVE",
"434 52 CURVE SMOOTH"
);
},
{
closed = 1;
nodes = (
"327 -10 OFFCURVE",
"193 -11 OFFCURVE",
"81 9 CURVE SMOOTH",
"62 12 OFFCURVE",
"57 20 OFFCURVE",
"75 68 CURVE SMOOTH",
"128 206 OFFCURVE",
"193 380 OFFCURVE",
"265 508 CURVE SMOOTH",
"278 532 OFFCURVE",
"332 527 OFFCURVE",
"355 527 CURVE SMOOTH",
"657 527 OFFCURVE",
"582 181 OFFCURVE",
"427 65 CURVE SMOOTH"
);
},
{
closed = 1;
nodes = (
"474 651 OFFCURVE",
"473 667 OFFCURVE",
"469 662 CURVE SMOOTH",
"450 638 OFFCURVE",
"411 586 OFFCURVE",
"401 576 CURVE",
"396 585 OFFCURVE",
"370 651 OFFCURVE",
"370 659 CURVE",
"356 659 LINE",
"359 653 OFFCURVE",
"383 598 OFFCURVE",
"393 567 CURVE",
"401 567 LINE",
"401 567 OFFCURVE",
"457 635 OFFCURVE",
"471 650 CURVE"
);
}
);
width = 571;
}
);
note = Dcaron;
unicode = 010E;
},
{
color = 11;
glyphname = Dcroat;
lastChange = "2021-07-14 20:19:39 +0000";
layers = (
{
hints = (
{
horizontal = 1;
place = "{-3, 21}";
target = up;
type = BottomGhost;
},
{
horizontal = 1;
place = "{433, 10}";
type = Stem;
},
{
place = "{589, 52}";
type = Stem;
},
{
horizontal = 1;
place = "{-8, 8}";
type = Stem;
},
{
horizontal = 1;
place = "{371, 16}";
type = Stem;
},
{
place = "{285, 197}";
type = Stem;
}
);
layerId = "DB049CBD-EE5A-4C6A-B8D5-3A4D87564362";
paths = (
{
closed = 1;
nodes = (
"607 166 OFFCURVE",
"706 515 OFFCURVE",
"368 533 CURVE SMOOTH",
"338 535 OFFCURVE",
"307 534 OFFCURVE",
"275 533 CURVE SMOOTH",
"235 531 OFFCURVE",
"196 532 OFFCURVE",
"162 534 CURVE",
"158 535 OFFCURVE",
"153 524 OFFCURVE",
"158 524 CURVE SMOOTH",
"176 526 OFFCURVE",
"194 527 OFFCURVE",
"209 527 CURVE SMOOTH",
"237 526 OFFCURVE",
"235 522 OFFCURVE",
"229 504 CURVE SMOOTH",
"176 350 OFFCURVE",
"107 175 OFFCURVE",
"33 29 CURVE SMOOTH",
"24 11 OFFCURVE",
"15 -2 OFFCURVE",
"5 -8 CURVE",
"7 -14 LINE",
"165 13 OFFCURVE",
"280 -50 OFFCURVE",
"434 52 CURVE SMOOTH"
);
},
{
closed = 1;
nodes = (
"327 -10 OFFCURVE",
"193 -11 OFFCURVE",
"81 9 CURVE SMOOTH",
"62 12 OFFCURVE",
"57 20 OFFCURVE",
"75 68 CURVE SMOOTH",
"128 206 OFFCURVE",
"193 380 OFFCURVE",
"265 508 CURVE SMOOTH",
"278 532 OFFCURVE",
"332 527 OFFCURVE",
"355 527 CURVE SMOOTH",
"657 527 OFFCURVE",
"582 181 OFFCURVE",
"427 65 CURVE SMOOTH"
);
},
{
closed = 1;
nodes = (
"361 613 LINE SMOOTH",
"358 613 OFFCURVE",
"353 596 OFFCURVE",
"356 597 CURVE",
"372 598 OFFCURVE",
"460 597 OFFCURVE",
"479 597 CURVE SMOOTH",
"481 597 OFFCURVE",
"486 613 OFFCURVE",
"483 613 CURVE SMOOTH"
);
}
);
width = 571;
}
);
note = Dcroat;
unicode = 0110;
},
{
color = 5;
glyphname = E;
lastChange = "2021-04-20 17:45:09 +0000";
layers = (
{
hints = (
{
horizontal = 1;
place = "{-8, 11}";
type = Stem;
},
{
horizontal = 1;
place = "{225, 13}";
type = Stem;
},
{
horizontal = 1;
place = "{427, 10}";
type = Stem;
},
{
horizontal = 1;
place = "{428, 15}";
type = Stem;
},
{
place = "{135, 61}";
type = Stem;
}
);
layerId = "DB049CBD-EE5A-4C6A-B8D5-3A4D87564362";
paths = (
{
closed = 1;
nodes = (
"366 292 OFFCURVE",
"371 299 OFFCURVE",
"365 299 CURVE SMOOTH",
"311 299 OFFCURVE",
"259 298 OFFCURVE",
"206 297 CURVE SMOOTH",
"193 296 OFFCURVE",
"179 296 OFFCURVE",
"166 296 CURVE",
"200 376 OFFCURVE",
"235 451 OFFCURVE",
"253 490 CURVE SMOOTH",
"261 506 OFFCURVE",
"269 519 OFFCURVE",
"293 522 CURVE SMOOTH",
"325 526 OFFCURVE",
"362 526 OFFCURVE",
"395 525 CURVE SMOOTH",
"450 523 OFFCURVE",
"478 515 OFFCURVE",
"473 489 CURVE SMOOTH",
"471 476 OFFCURVE",
"460 441 OFFCURVE",
"455 431 CURVE SMOOTH",
"453 428 OFFCURVE",
"462 428 OFFCURVE",
"463 432 CURVE SMOOTH",
"473 462 OFFCURVE",
"482 495 OFFCURVE",
"495 526 CURVE",
"495 527 OFFCURVE",
"500 534 OFFCURVE",
"494 534 CURVE SMOOTH",
"440 534 OFFCURVE",
"389 533 OFFCURVE",
"335 532 CURVE SMOOTH",
"307 531 OFFCURVE",
"281 531 OFFCURVE",
"253 531 CURVE SMOOTH",
"229 531 OFFCURVE",
"183 533 OFFCURVE",
"163 534 CURVE SMOOTH",
"159 534 OFFCURVE",
"154 525 OFFCURVE",
"159 525 CURVE SMOOTH",
"172 525 OFFCURVE",
"191 526 OFFCURVE",
"206 526 CURVE SMOOTH",
"225 526 OFFCURVE",
"235 523 OFFCURVE",
"226 495 CURVE SMOOTH",
"203 430 OFFCURVE",
"178 363 OFFCURVE",
"151 296 CURVE",
"113 296 LINE SMOOTH",
"100 296 OFFCURVE",
"85 281 OFFCURVE",
"90 282 CURVE SMOOTH",
"109 284 OFFCURVE",
"128 285 OFFCURVE",
"148 286 CURVE",
"121 220 OFFCURVE",
"93 155 OFFCURVE",
"66 93 CURVE SMOOTH",
"27 6 OFFCURVE",
"33 -2 OFFCURVE",
"42 -2 CURVE SMOOTH",
"100 -2 OFFCURVE",
"334 -7 OFFCURVE",
"382 2 CURVE SMOOTH",
"393 4 OFFCURVE",
"411 64 OFFCURVE",
"422 97 CURVE SMOOTH",
"423 101 OFFCURVE",
"414 102 OFFCURVE",
"413 100 CURVE",
"408 66 OFFCURVE",
"387 37 OFFCURVE",
"382 33 CURVE SMOOTH",
"362 19 OFFCURVE",
"322 13 OFFCURVE",
"280 9 CURVE SMOOTH",
"226 5 OFFCURVE",
"146 7 OFFCURVE",
"118 10 CURVE SMOOTH",
"66 14 OFFCURVE",
"67 34 OFFCURVE",
"80 72 CURVE SMOOTH",
"98 128 OFFCURVE",
"130 209 OFFCURVE",
"163 287 CURVE",
"203 289 OFFCURVE",
"244 288 OFFCURVE",
"285 288 CURVE SMOOTH",
"340 287 OFFCURVE",
"347 274 OFFCURVE",
"343 251 CURVE SMOOTH",
"341 238 OFFCURVE",
"337 230 OFFCURVE",
"334 225 CURVE SMOOTH",
"332 222 OFFCURVE",
"343 224 OFFCURVE",
"344 227 CURVE SMOOTH",
"349 243 OFFCURVE",
"353 260 OFFCURVE",
"366 291 CURVE"
);
}
);
width = 443;
}
);
note = E;
unicode = 0045;
},
{
color = 11;
glyphname = Eacute;
lastChange = "2021-07-14 20:19:39 +0000";
layers = (
{
hints = (
{
horizontal = 1;
place = "{-8, 11}";
type = Stem;
},
{
horizontal = 1;
place = "{225, 13}";
type = Stem;
},
{
horizontal = 1;
place = "{427, 10}";
type = Stem;
},
{
horizontal = 1;
place = "{428, 15}";
type = Stem;
},
{
horizontal = 1;
place = "{564, 103}";
type = Stem;
},
{
place = "{135, 61}";
type = Stem;
},
{
place = "{297, 151}";
type = Stem;
}
);
layerId = "DB049CBD-EE5A-4C6A-B8D5-3A4D87564362";
paths = (
{
closed = 1;
nodes = (
"366 292 OFFCURVE",
"371 299 OFFCURVE",
"365 299 CURVE SMOOTH",
"311 299 OFFCURVE",
"259 298 OFFCURVE",
"206 297 CURVE SMOOTH",
"193 296 OFFCURVE",
"179 296 OFFCURVE",
"166 296 CURVE",
"200 376 OFFCURVE",
"235 451 OFFCURVE",
"253 490 CURVE SMOOTH",
"261 506 OFFCURVE",
"269 519 OFFCURVE",
"293 522 CURVE SMOOTH",
"325 526 OFFCURVE",
"362 526 OFFCURVE",
"395 525 CURVE SMOOTH",
"450 523 OFFCURVE",
"478 515 OFFCURVE",
"473 489 CURVE SMOOTH",
"471 476 OFFCURVE",
"460 441 OFFCURVE",
"455 431 CURVE SMOOTH",
"453 428 OFFCURVE",
"462 428 OFFCURVE",
"463 432 CURVE SMOOTH",
"473 462 OFFCURVE",
"482 495 OFFCURVE",
"495 526 CURVE",
"495 527 OFFCURVE",
"500 534 OFFCURVE",
"494 534 CURVE SMOOTH",
"440 534 OFFCURVE",
"389 533 OFFCURVE",
"335 532 CURVE SMOOTH",
"307 531 OFFCURVE",
"281 531 OFFCURVE",
"253 531 CURVE SMOOTH",
"229 531 OFFCURVE",
"183 533 OFFCURVE",
"163 534 CURVE SMOOTH",
"159 534 OFFCURVE",
"154 525 OFFCURVE",
"159 525 CURVE SMOOTH",
"172 525 OFFCURVE",
"191 526 OFFCURVE",
"206 526 CURVE SMOOTH",
"225 526 OFFCURVE",
"235 523 OFFCURVE",
"226 495 CURVE SMOOTH",
"203 430 OFFCURVE",
"178 363 OFFCURVE",
"151 296 CURVE",
"113 296 LINE SMOOTH",
"100 296 OFFCURVE",
"85 281 OFFCURVE",
"90 282 CURVE SMOOTH",
"109 284 OFFCURVE",
"128 285 OFFCURVE",
"148 286 CURVE",
"121 220 OFFCURVE",
"93 155 OFFCURVE",
"66 93 CURVE SMOOTH",
"27 6 OFFCURVE",
"33 -2 OFFCURVE",
"42 -2 CURVE SMOOTH",
"100 -2 OFFCURVE",
"334 -7 OFFCURVE",
"382 2 CURVE SMOOTH",
"393 4 OFFCURVE",
"411 64 OFFCURVE",
"422 97 CURVE SMOOTH",
"423 101 OFFCURVE",
"414 102 OFFCURVE",
"413 100 CURVE",
"408 66 OFFCURVE",
"387 37 OFFCURVE",
"382 33 CURVE SMOOTH",
"362 19 OFFCURVE",
"322 13 OFFCURVE",
"280 9 CURVE SMOOTH",
"226 5 OFFCURVE",
"146 7 OFFCURVE",
"118 10 CURVE SMOOTH",
"66 14 OFFCURVE",
"67 34 OFFCURVE",
"80 72 CURVE SMOOTH",
"98 128 OFFCURVE",
"130 209 OFFCURVE",
"163 287 CURVE",
"203 289 OFFCURVE",
"244 288 OFFCURVE",
"285 288 CURVE SMOOTH",
"340 287 OFFCURVE",
"347 274 OFFCURVE",
"343 251 CURVE SMOOTH",
"341 238 OFFCURVE",
"337 230 OFFCURVE",
"334 225 CURVE SMOOTH",
"332 222 OFFCURVE",
"343 224 OFFCURVE",
"344 227 CURVE SMOOTH",
"349 243 OFFCURVE",
"353 260 OFFCURVE",
"366 291 CURVE"
);
},
{
closed = 1;
nodes = (
"351 595 OFFCURVE",
"419 633 OFFCURVE",
"431 642 CURVE SMOOTH",
"434 644 OFFCURVE",
"428 656 OFFCURVE",
"426 654 CURVE",
"336 591 LINE SMOOTH",
"333 589 OFFCURVE",
"332 581 OFFCURVE",
"336 584 CURVE SMOOTH"
);
}
);
width = 443;
}
);
note = Eacute;
unicode = 00C9;
},
{
color = 11;
glyphname = Ebreve;
lastChange = "2021-07-14 20:19:39 +0000";
layers = (
{
hints = (
{
horizontal = 1;
place = "{-8, 11}";
type = Stem;
},
{
horizontal = 1;
place = "{225, 13}";
type = Stem;
},
{
horizontal = 1;
place = "{427, 10}";
type = Stem;
},
{
horizontal = 1;
place = "{428, 15}";
type = Stem;
},
{
place = "{135, 61}";
type = Stem;
}
);
layerId = "DB049CBD-EE5A-4C6A-B8D5-3A4D87564362";
paths = (
{
closed = 1;
nodes = (
"366 292 OFFCURVE",
"371 299 OFFCURVE",
"365 299 CURVE SMOOTH",
"311 299 OFFCURVE",
"259 298 OFFCURVE",
"206 297 CURVE SMOOTH",
"193 296 OFFCURVE",
"179 296 OFFCURVE",
"166 296 CURVE",
"200 376 OFFCURVE",
"235 451 OFFCURVE",
"253 490 CURVE SMOOTH",
"261 506 OFFCURVE",
"269 519 OFFCURVE",
"293 522 CURVE SMOOTH",
"325 526 OFFCURVE",
"362 526 OFFCURVE",
"395 525 CURVE SMOOTH",
"450 523 OFFCURVE",
"478 515 OFFCURVE",
"473 489 CURVE SMOOTH",
"471 476 OFFCURVE",
"460 441 OFFCURVE",
"455 431 CURVE SMOOTH",
"453 428 OFFCURVE",
"462 428 OFFCURVE",
"463 432 CURVE SMOOTH",
"473 462 OFFCURVE",
"482 495 OFFCURVE",
"495 526 CURVE",
"495 527 OFFCURVE",
"500 534 OFFCURVE",
"494 534 CURVE SMOOTH",
"440 534 OFFCURVE",
"389 533 OFFCURVE",
"335 532 CURVE SMOOTH",
"307 531 OFFCURVE",
"281 531 OFFCURVE",
"253 531 CURVE SMOOTH",
"229 531 OFFCURVE",
"183 533 OFFCURVE",
"163 534 CURVE SMOOTH",
"159 534 OFFCURVE",
"154 525 OFFCURVE",
"159 525 CURVE SMOOTH",
"172 525 OFFCURVE",
"191 526 OFFCURVE",
"206 526 CURVE SMOOTH",
"225 526 OFFCURVE",
"235 523 OFFCURVE",
"226 495 CURVE SMOOTH",
"203 430 OFFCURVE",
"178 363 OFFCURVE",
"151 296 CURVE",
"113 296 LINE SMOOTH",
"100 296 OFFCURVE",
"85 281 OFFCURVE",
"90 282 CURVE SMOOTH",
"109 284 OFFCURVE",
"128 285 OFFCURVE",
"148 286 CURVE",
"121 220 OFFCURVE",
"93 155 OFFCURVE",
"66 93 CURVE SMOOTH",
"27 6 OFFCURVE",
"33 -2 OFFCURVE",
"42 -2 CURVE SMOOTH",
"100 -2 OFFCURVE",
"334 -7 OFFCURVE",
"382 2 CURVE SMOOTH",
"393 4 OFFCURVE",
"411 64 OFFCURVE",
"422 97 CURVE SMOOTH",
"423 101 OFFCURVE",
"414 102 OFFCURVE",
"413 100 CURVE",
"408 66 OFFCURVE",
"387 37 OFFCURVE",
"382 33 CURVE SMOOTH",
"362 19 OFFCURVE",
"322 13 OFFCURVE",
"280 9 CURVE SMOOTH",
"226 5 OFFCURVE",
"146 7 OFFCURVE",
"118 10 CURVE SMOOTH",
"66 14 OFFCURVE",
"67 34 OFFCURVE",
"80 72 CURVE SMOOTH",
"98 128 OFFCURVE",
"130 209 OFFCURVE",
"163 287 CURVE",
"203 289 OFFCURVE",
"244 288 OFFCURVE",
"285 288 CURVE SMOOTH",
"340 287 OFFCURVE",
"347 274 OFFCURVE",
"343 251 CURVE SMOOTH",
"341 238 OFFCURVE",
"337 230 OFFCURVE",
"334 225 CURVE SMOOTH",
"332 222 OFFCURVE",
"343 224 OFFCURVE",
"344 227 CURVE SMOOTH",
"349 243 OFFCURVE",
"353 260 OFFCURVE",
"366 291 CURVE"
);
},
{
closed = 1;
nodes = (
"460 647 OFFCURVE",
"459 647 OFFCURVE",
"457 647 CURVE SMOOTH",
"455 647 LINE",
"435 626 OFFCURVE",
"416 597 OFFCURVE",
"382 597 CURVE SMOOTH",
"356 597 OFFCURVE",
"350 618 OFFCURVE",
"350 640 CURVE SMOOTH",
"350 643 OFFCURVE",
"349 646 OFFCURVE",
"345 646 CURVE SMOOTH",
"335 646 OFFCURVE",
"327 636 OFFCURVE",
"327 626 CURVE SMOOTH",
"327 600 OFFCURVE",
"344 583 OFFCURVE",
"370 583 CURVE SMOOTH",
"401 583 OFFCURVE",
"432 604 OFFCURVE",
"451 628 CURVE SMOOTH",
"454 632 OFFCURVE",
"460 640 OFFCURVE",
"460 645 CURVE SMOOTH"
);
}
);
width = 443;
}
);
note = Ebreve;
unicode = 0114;
},
{
color = 11;
glyphname = Ecaron;
lastChange = "2021-07-14 20:19:39 +0000";
layers = (
{
hints = (
{
horizontal = 1;
place = "{-8, 11}";
type = Stem;
},
{
horizontal = 1;
place = "{225, 13}";
type = Stem;
},
{
horizontal = 1;
place = "{427, 10}";
type = Stem;
},
{
horizontal = 1;
place = "{428, 15}";
type = Stem;
},
{
place = "{135, 61}";
type = Stem;
}
);
layerId = "DB049CBD-EE5A-4C6A-B8D5-3A4D87564362";
paths = (
{
closed = 1;
nodes = (
"366 292 OFFCURVE",
"371 299 OFFCURVE",
"365 299 CURVE SMOOTH",
"311 299 OFFCURVE",
"259 298 OFFCURVE",
"206 297 CURVE SMOOTH",
"193 296 OFFCURVE",
"179 296 OFFCURVE",
"166 296 CURVE",
"200 376 OFFCURVE",
"235 451 OFFCURVE",
"253 490 CURVE SMOOTH",
"261 506 OFFCURVE",
"269 519 OFFCURVE",
"293 522 CURVE SMOOTH",
"325 526 OFFCURVE",
"362 526 OFFCURVE",
"395 525 CURVE SMOOTH",
"450 523 OFFCURVE",
"478 515 OFFCURVE",
"473 489 CURVE SMOOTH",
"471 476 OFFCURVE",
"460 441 OFFCURVE",
"455 431 CURVE SMOOTH",
"453 428 OFFCURVE",
"462 428 OFFCURVE",
"463 432 CURVE SMOOTH",
"473 462 OFFCURVE",
"482 495 OFFCURVE",
"495 526 CURVE",
"495 527 OFFCURVE",
"500 534 OFFCURVE",
"494 534 CURVE SMOOTH",
"440 534 OFFCURVE",
"389 533 OFFCURVE",
"335 532 CURVE SMOOTH",
"307 531 OFFCURVE",
"281 531 OFFCURVE",
"253 531 CURVE SMOOTH",
"229 531 OFFCURVE",
"183 533 OFFCURVE",
"163 534 CURVE SMOOTH",
"159 534 OFFCURVE",
"154 525 OFFCURVE",
"159 525 CURVE SMOOTH",
"172 525 OFFCURVE",
"191 526 OFFCURVE",
"206 526 CURVE SMOOTH",
"225 526 OFFCURVE",
"235 523 OFFCURVE",
"226 495 CURVE SMOOTH",
"203 430 OFFCURVE",
"178 363 OFFCURVE",
"151 296 CURVE",
"113 296 LINE SMOOTH",
"100 296 OFFCURVE",
"85 281 OFFCURVE",
"90 282 CURVE SMOOTH",
"109 284 OFFCURVE",
"128 285 OFFCURVE",
"148 286 CURVE",
"121 220 OFFCURVE",
"93 155 OFFCURVE",
"66 93 CURVE SMOOTH",
"27 6 OFFCURVE",
"33 -2 OFFCURVE",
"42 -2 CURVE SMOOTH",
"100 -2 OFFCURVE",
"334 -7 OFFCURVE",
"382 2 CURVE SMOOTH",
"393 4 OFFCURVE",
"411 64 OFFCURVE",
"422 97 CURVE SMOOTH",
"423 101 OFFCURVE",
"414 102 OFFCURVE",
"413 100 CURVE",
"408 66 OFFCURVE",
"387 37 OFFCURVE",
"382 33 CURVE SMOOTH",
"362 19 OFFCURVE",
"322 13 OFFCURVE",
"280 9 CURVE SMOOTH",
"226 5 OFFCURVE",
"146 7 OFFCURVE",
"118 10 CURVE SMOOTH",
"66 14 OFFCURVE",
"67 34 OFFCURVE",
"80 72 CURVE SMOOTH",
"98 128 OFFCURVE",
"130 209 OFFCURVE",
"163 287 CURVE",
"203 289 OFFCURVE",
"244 288 OFFCURVE",
"285 288 CURVE SMOOTH",
"340 287 OFFCURVE",
"347 274 OFFCURVE",
"343 251 CURVE SMOOTH",
"341 238 OFFCURVE",
"337 230 OFFCURVE",
"334 225 CURVE SMOOTH",
"332 222 OFFCURVE",
"343 224 OFFCURVE",
"344 227 CURVE SMOOTH",
"349 243 OFFCURVE",
"353 260 OFFCURVE",
"366 291 CURVE"
);
},
{
closed = 1;
nodes = (
"451 653 OFFCURVE",
"450 669 OFFCURVE",
"446 664 CURVE SMOOTH",
"427 640 OFFCURVE",
"388 588 OFFCURVE",
"378 578 CURVE",
"373 587 OFFCURVE",
"347 653 OFFCURVE",
"347 661 CURVE",
"333 661 LINE",
"336 655 OFFCURVE",
"360 600 OFFCURVE",
"370 569 CURVE",
"378 569 LINE",
"378 569 OFFCURVE",
"434 637 OFFCURVE",
"448 652 CURVE"
);
}
);
width = 443;
}
);
note = Ecaron;
unicode = 011A;
},
{
color = 11;
glyphname = Ecircumflex;
lastChange = "2021-07-14 20:19:39 +0000";
layers = (
{
hints = (
{
horizontal = 1;
place = "{-8, 11}";
type = Stem;
},
{
horizontal = 1;
place = "{140, 21}";
target = up;
type = BottomGhost;
},
{
horizontal = 1;
place = "{225, 13}";
type = Stem;
},
{
horizontal = 1;
place = "{427, 10}";
type = Stem;
},
{
horizontal = 1;
place = "{428, 15}";
type = Stem;
},
{
horizontal = 1;
place = "{669, 7}";
type = Stem;
},
{
horizontal = 1;
place = "{679, -20}";
target = down;
type = TopGhost;
},
{
place = "{135, 61}";
type = Stem;
},
{
place = "{228, 222}";
type = Stem;
},
{
place = "{402, 48}";
type = Stem;
}
);
layerId = "DB049CBD-EE5A-4C6A-B8D5-3A4D87564362";
paths = (
{
closed = 1;
nodes = (
"366 292 OFFCURVE",
"371 299 OFFCURVE",
"365 299 CURVE SMOOTH",
"311 299 OFFCURVE",
"259 298 OFFCURVE",
"206 297 CURVE SMOOTH",
"193 296 OFFCURVE",
"179 296 OFFCURVE",
"166 296 CURVE",
"200 376 OFFCURVE",
"235 451 OFFCURVE",
"253 490 CURVE SMOOTH",
"261 506 OFFCURVE",
"269 519 OFFCURVE",
"293 522 CURVE SMOOTH",
"325 526 OFFCURVE",
"362 526 OFFCURVE",
"395 525 CURVE SMOOTH",
"450 523 OFFCURVE",
"478 515 OFFCURVE",
"473 489 CURVE SMOOTH",
"471 476 OFFCURVE",
"460 441 OFFCURVE",
"455 431 CURVE SMOOTH",
"453 428 OFFCURVE",
"462 428 OFFCURVE",
"463 432 CURVE SMOOTH",
"473 462 OFFCURVE",
"482 495 OFFCURVE",
"495 526 CURVE",
"495 527 OFFCURVE",
"500 534 OFFCURVE",
"494 534 CURVE SMOOTH",
"440 534 OFFCURVE",
"389 533 OFFCURVE",
"335 532 CURVE SMOOTH",
"307 531 OFFCURVE",
"281 531 OFFCURVE",
"253 531 CURVE SMOOTH",
"229 531 OFFCURVE",
"183 533 OFFCURVE",
"163 534 CURVE SMOOTH",
"159 534 OFFCURVE",
"154 525 OFFCURVE",
"159 525 CURVE SMOOTH",
"172 525 OFFCURVE",
"191 526 OFFCURVE",
"206 526 CURVE SMOOTH",
"225 526 OFFCURVE",
"235 523 OFFCURVE",
"226 495 CURVE SMOOTH",
"203 430 OFFCURVE",
"178 363 OFFCURVE",
"151 296 CURVE",
"113 296 LINE SMOOTH",
"100 296 OFFCURVE",
"85 281 OFFCURVE",
"90 282 CURVE SMOOTH",
"109 284 OFFCURVE",
"128 285 OFFCURVE",
"148 286 CURVE",
"121 220 OFFCURVE",
"93 155 OFFCURVE",
"66 93 CURVE SMOOTH",
"27 6 OFFCURVE",
"33 -2 OFFCURVE",
"42 -2 CURVE SMOOTH",
"100 -2 OFFCURVE",
"334 -7 OFFCURVE",
"382 2 CURVE SMOOTH",
"393 4 OFFCURVE",
"411 64 OFFCURVE",
"422 97 CURVE SMOOTH",
"423 101 OFFCURVE",
"414 102 OFFCURVE",
"413 100 CURVE",
"408 66 OFFCURVE",
"387 37 OFFCURVE",
"382 33 CURVE SMOOTH",
"362 19 OFFCURVE",
"322 13 OFFCURVE",
"280 9 CURVE SMOOTH",
"226 5 OFFCURVE",
"146 7 OFFCURVE",
"118 10 CURVE SMOOTH",
"66 14 OFFCURVE",
"67 34 OFFCURVE",
"80 72 CURVE SMOOTH",
"98 128 OFFCURVE",
"130 209 OFFCURVE",
"163 287 CURVE",
"203 289 OFFCURVE",
"244 288 OFFCURVE",
"285 288 CURVE SMOOTH",
"340 287 OFFCURVE",
"347 274 OFFCURVE",
"343 251 CURVE SMOOTH",
"341 238 OFFCURVE",
"337 230 OFFCURVE",
"334 225 CURVE SMOOTH",
"332 222 OFFCURVE",
"343 224 OFFCURVE",
"344 227 CURVE SMOOTH",
"349 243 OFFCURVE",
"353 260 OFFCURVE",
"366 291 CURVE"
);
},
{
closed = 1;
nodes = (
"287 564 OFFCURVE",
"288 548 OFFCURVE",
"292 553 CURVE SMOOTH",
"311 577 OFFCURVE",
"350 629 OFFCURVE",
"360 639 CURVE",
"365 630 OFFCURVE",
"391 564 OFFCURVE",
"391 556 CURVE",
"405 556 LINE",
"402 562 OFFCURVE",
"378 617 OFFCURVE",
"368 648 CURVE",
"360 648 LINE",
"360 648 OFFCURVE",
"304 580 OFFCURVE",
"290 565 CURVE"
);
}
);
width = 443;
}
);
note = Ecircumflex;
unicode = 00CA;
},
{
color = 11;
glyphname = Edieresis;
lastChange = "2021-07-14 20:19:39 +0000";
layers = (
{
hints = (
{
horizontal = 1;
place = "{-8, 11}";
type = Stem;
},
{
horizontal = 1;
place = "{225, 13}";
type = Stem;
},
{
horizontal = 1;
place = "{427, 10}";
type = Stem;
},
{
horizontal = 1;
place = "{428, 15}";
type = Stem;
},
{
horizontal = 1;
place = "{571, 55}";
type = Stem;
},
{
place = "{135, 61}";
type = Stem;
},
{
place = "{265, 173}";
type = Stem;
},
{
place = "{390, 48}";
type = Stem;
}
);
layerId = "DB049CBD-EE5A-4C6A-B8D5-3A4D87564362";
paths = (
{
closed = 1;
nodes = (
"366 292 OFFCURVE",
"371 299 OFFCURVE",
"365 299 CURVE SMOOTH",
"311 299 OFFCURVE",
"259 298 OFFCURVE",
"206 297 CURVE SMOOTH",
"193 296 OFFCURVE",
"179 296 OFFCURVE",
"166 296 CURVE",
"200 376 OFFCURVE",
"235 451 OFFCURVE",
"253 490 CURVE SMOOTH",
"261 506 OFFCURVE",
"269 519 OFFCURVE",
"293 522 CURVE SMOOTH",
"325 526 OFFCURVE",
"362 526 OFFCURVE",
"395 525 CURVE SMOOTH",
"450 523 OFFCURVE",
"478 515 OFFCURVE",
"473 489 CURVE SMOOTH",
"471 476 OFFCURVE",
"460 441 OFFCURVE",
"455 431 CURVE SMOOTH",
"453 428 OFFCURVE",
"462 428 OFFCURVE",
"463 432 CURVE SMOOTH",
"473 462 OFFCURVE",
"482 495 OFFCURVE",
"495 526 CURVE",
"495 527 OFFCURVE",
"500 534 OFFCURVE",
"494 534 CURVE SMOOTH",
"440 534 OFFCURVE",
"389 533 OFFCURVE",
"335 532 CURVE SMOOTH",
"307 531 OFFCURVE",
"281 531 OFFCURVE",
"253 531 CURVE SMOOTH",
"229 531 OFFCURVE",
"183 533 OFFCURVE",
"163 534 CURVE SMOOTH",
"159 534 OFFCURVE",
"154 525 OFFCURVE",
"159 525 CURVE SMOOTH",
"172 525 OFFCURVE",
"191 526 OFFCURVE",
"206 526 CURVE SMOOTH",
"225 526 OFFCURVE",
"235 523 OFFCURVE",
"226 495 CURVE SMOOTH",
"203 430 OFFCURVE",
"178 363 OFFCURVE",
"151 296 CURVE",
"113 296 LINE SMOOTH",
"100 296 OFFCURVE",
"85 281 OFFCURVE",
"90 282 CURVE SMOOTH",
"109 284 OFFCURVE",
"128 285 OFFCURVE",
"148 286 CURVE",
"121 220 OFFCURVE",
"93 155 OFFCURVE",
"66 93 CURVE SMOOTH",
"27 6 OFFCURVE",
"33 -2 OFFCURVE",
"42 -2 CURVE SMOOTH",
"100 -2 OFFCURVE",
"334 -7 OFFCURVE",
"382 2 CURVE SMOOTH",
"393 4 OFFCURVE",
"411 64 OFFCURVE",
"422 97 CURVE SMOOTH",
"423 101 OFFCURVE",
"414 102 OFFCURVE",
"413 100 CURVE",
"408 66 OFFCURVE",
"387 37 OFFCURVE",
"382 33 CURVE SMOOTH",
"362 19 OFFCURVE",
"322 13 OFFCURVE",
"280 9 CURVE SMOOTH",
"226 5 OFFCURVE",
"146 7 OFFCURVE",
"118 10 CURVE SMOOTH",
"66 14 OFFCURVE",
"67 34 OFFCURVE",
"80 72 CURVE SMOOTH",
"98 128 OFFCURVE",
"130 209 OFFCURVE",
"163 287 CURVE",
"203 289 OFFCURVE",
"244 288 OFFCURVE",
"285 288 CURVE SMOOTH",
"340 287 OFFCURVE",
"347 274 OFFCURVE",
"343 251 CURVE SMOOTH",
"341 238 OFFCURVE",
"337 230 OFFCURVE",
"334 225 CURVE SMOOTH",
"332 222 OFFCURVE",
"343 224 OFFCURVE",
"344 227 CURVE SMOOTH",
"349 243 OFFCURVE",
"353 260 OFFCURVE",
"366 291 CURVE"
);
},
{
closed = 1;
nodes = (
"417 626 OFFCURVE",
"384 612 OFFCURVE",
"380 593 CURVE SMOOTH",
"377 582 OFFCURVE",
"390 571 OFFCURVE",
"401 583 CURVE SMOOTH",
"407 589 OFFCURVE",
"415 603 OFFCURVE",
"416 612 CURVE SMOOTH"
);
},
{
closed = 1;
nodes = (
"338 626 OFFCURVE",
"305 612 OFFCURVE",
"301 593 CURVE",
"297 582 OFFCURVE",
"310 571 OFFCURVE",
"320 583 CURVE SMOOTH",
"326 589 OFFCURVE",
"335 603 OFFCURVE",
"336 612 CURVE SMOOTH"
);
}
);
width = 443;
}
);
note = Edieresis;
unicode = 00CB;
},
{
color = 11;
glyphname = Edotaccent;
lastChange = "2021-07-14 20:19:39 +0000";
layers = (
{
hints = (
{
horizontal = 1;
place = "{-8, 11}";
type = Stem;
},
{
horizontal = 1;
place = "{225, 13}";
type = Stem;
},
{
horizontal = 1;
place = "{427, 10}";
type = Stem;
},
{
horizontal = 1;
place = "{428, 15}";
type = Stem;
},
{
place = "{135, 61}";
type = Stem;
}
);
layerId = "DB049CBD-EE5A-4C6A-B8D5-3A4D87564362";
paths = (
{
closed = 1;
nodes = (
"366 292 OFFCURVE",
"371 299 OFFCURVE",
"365 299 CURVE SMOOTH",
"311 299 OFFCURVE",
"259 298 OFFCURVE",
"206 297 CURVE SMOOTH",
"193 296 OFFCURVE",
"179 296 OFFCURVE",
"166 296 CURVE",
"200 376 OFFCURVE",
"235 451 OFFCURVE",
"253 490 CURVE SMOOTH",
"261 506 OFFCURVE",
"269 519 OFFCURVE",
"293 522 CURVE SMOOTH",
"325 526 OFFCURVE",
"362 526 OFFCURVE",
"395 525 CURVE SMOOTH",
"450 523 OFFCURVE",
"478 515 OFFCURVE",
"473 489 CURVE SMOOTH",
"471 476 OFFCURVE",
"460 441 OFFCURVE",
"455 431 CURVE SMOOTH",
"453 428 OFFCURVE",
"462 428 OFFCURVE",
"463 432 CURVE SMOOTH",
"473 462 OFFCURVE",
"482 495 OFFCURVE",
"495 526 CURVE",
"495 527 OFFCURVE",
"500 534 OFFCURVE",
"494 534 CURVE SMOOTH",
"440 534 OFFCURVE",
"389 533 OFFCURVE",
"335 532 CURVE SMOOTH",
"307 531 OFFCURVE",
"281 531 OFFCURVE",
"253 531 CURVE SMOOTH",
"229 531 OFFCURVE",
"183 533 OFFCURVE",
"163 534 CURVE SMOOTH",
"159 534 OFFCURVE",
"154 525 OFFCURVE",
"159 525 CURVE SMOOTH",
"172 525 OFFCURVE",
"191 526 OFFCURVE",
"206 526 CURVE SMOOTH",
"225 526 OFFCURVE",
"235 523 OFFCURVE",
"226 495 CURVE SMOOTH",
"203 430 OFFCURVE",
"178 363 OFFCURVE",
"151 296 CURVE",
"113 296 LINE SMOOTH",
"100 296 OFFCURVE",
"85 281 OFFCURVE",
"90 282 CURVE SMOOTH",
"109 284 OFFCURVE",
"128 285 OFFCURVE",
"148 286 CURVE",
"121 220 OFFCURVE",
"93 155 OFFCURVE",
"66 93 CURVE SMOOTH",
"27 6 OFFCURVE",
"33 -2 OFFCURVE",
"42 -2 CURVE SMOOTH",
"100 -2 OFFCURVE",
"334 -7 OFFCURVE",
"382 2 CURVE SMOOTH",
"393 4 OFFCURVE",
"411 64 OFFCURVE",
"422 97 CURVE SMOOTH",
"423 101 OFFCURVE",
"414 102 OFFCURVE",
"413 100 CURVE",
"408 66 OFFCURVE",
"387 37 OFFCURVE",
"382 33 CURVE SMOOTH",
"362 19 OFFCURVE",
"322 13 OFFCURVE",
"280 9 CURVE SMOOTH",
"226 5 OFFCURVE",
"146 7 OFFCURVE",
"118 10 CURVE SMOOTH",
"66 14 OFFCURVE",
"67 34 OFFCURVE",
"80 72 CURVE SMOOTH",
"98 128 OFFCURVE",
"130 209 OFFCURVE",
"163 287 CURVE",
"203 289 OFFCURVE",
"244 288 OFFCURVE",
"285 288 CURVE SMOOTH",
"340 287 OFFCURVE",
"347 274 OFFCURVE",
"343 251 CURVE SMOOTH",
"341 238 OFFCURVE",
"337 230 OFFCURVE",
"334 225 CURVE SMOOTH",
"332 222 OFFCURVE",
"343 224 OFFCURVE",
"344 227 CURVE SMOOTH",
"349 243 OFFCURVE",
"353 260 OFFCURVE",
"366 291 CURVE"
);
},
{
closed = 1;
nodes = (
"399 652 OFFCURVE",
"354 634 OFFCURVE",
"348 607 CURVE SMOOTH",
"344 591 OFFCURVE",
"362 577 OFFCURVE",
"376 592 CURVE SMOOTH",
"384 601 OFFCURVE",
"395 621 OFFCURVE",
"396 632 CURVE SMOOTH"
);
}
);
width = 443;
}
);
note = Edotaccent;
unicode = 0116;
},
{
color = 11;
glyphname = Egrave;
lastChange = "2021-07-14 20:19:39 +0000";
layers = (
{
hints = (
{
horizontal = 1;
place = "{-8, 11}";
type = Stem;
},
{
horizontal = 1;
place = "{225, 13}";
type = Stem;
},
{
horizontal = 1;
place = "{427, 10}";
type = Stem;
},
{
horizontal = 1;
place = "{428, 15}";
type = Stem;
},
{
horizontal = 1;
place = "{549, 117}";
type = Stem;
},
{
horizontal = 1;
place = "{558, 103}";
type = Stem;
},
{
place = "{135, 61}";
type = Stem;
},
{
place = "{224, 151}";
type = Stem;
},
{
place = "{277, 76}";
type = Stem;
}
);
layerId = "DB049CBD-EE5A-4C6A-B8D5-3A4D87564362";
paths = (
{
closed = 1;
nodes = (
"366 292 OFFCURVE",
"371 299 OFFCURVE",
"365 299 CURVE SMOOTH",
"311 299 OFFCURVE",
"259 298 OFFCURVE",
"206 297 CURVE SMOOTH",
"193 296 OFFCURVE",
"179 296 OFFCURVE",
"166 296 CURVE",
"200 376 OFFCURVE",
"235 451 OFFCURVE",
"253 490 CURVE SMOOTH",
"261 506 OFFCURVE",
"269 519 OFFCURVE",
"293 522 CURVE SMOOTH",
"325 526 OFFCURVE",
"362 526 OFFCURVE",
"395 525 CURVE SMOOTH",
"450 523 OFFCURVE",
"478 515 OFFCURVE",
"473 489 CURVE SMOOTH",
"471 476 OFFCURVE",
"460 441 OFFCURVE",
"455 431 CURVE SMOOTH",
"453 428 OFFCURVE",
"462 428 OFFCURVE",
"463 432 CURVE SMOOTH",
"473 462 OFFCURVE",
"482 495 OFFCURVE",
"495 526 CURVE",
"495 527 OFFCURVE",
"500 534 OFFCURVE",
"494 534 CURVE SMOOTH",
"440 534 OFFCURVE",
"389 533 OFFCURVE",
"335 532 CURVE SMOOTH",
"307 531 OFFCURVE",
"281 531 OFFCURVE",
"253 531 CURVE SMOOTH",
"229 531 OFFCURVE",
"183 533 OFFCURVE",
"163 534 CURVE SMOOTH",
"159 534 OFFCURVE",
"154 525 OFFCURVE",
"159 525 CURVE SMOOTH",
"172 525 OFFCURVE",
"191 526 OFFCURVE",
"206 526 CURVE SMOOTH",
"225 526 OFFCURVE",
"235 523 OFFCURVE",
"226 495 CURVE SMOOTH",
"203 430 OFFCURVE",
"178 363 OFFCURVE",
"151 296 CURVE",
"113 296 LINE SMOOTH",
"100 296 OFFCURVE",
"85 281 OFFCURVE",
"90 282 CURVE SMOOTH",
"109 284 OFFCURVE",
"128 285 OFFCURVE",
"148 286 CURVE",
"121 220 OFFCURVE",
"93 155 OFFCURVE",
"66 93 CURVE SMOOTH",
"27 6 OFFCURVE",
"33 -2 OFFCURVE",
"42 -2 CURVE SMOOTH",
"100 -2 OFFCURVE",
"334 -7 OFFCURVE",
"382 2 CURVE SMOOTH",
"393 4 OFFCURVE",
"411 64 OFFCURVE",
"422 97 CURVE SMOOTH",
"423 101 OFFCURVE",
"414 102 OFFCURVE",
"413 100 CURVE",
"408 66 OFFCURVE",
"387 37 OFFCURVE",
"382 33 CURVE SMOOTH",
"362 19 OFFCURVE",
"322 13 OFFCURVE",
"280 9 CURVE SMOOTH",
"226 5 OFFCURVE",
"146 7 OFFCURVE",
"118 10 CURVE SMOOTH",
"66 14 OFFCURVE",
"67 34 OFFCURVE",
"80 72 CURVE SMOOTH",
"98 128 OFFCURVE",
"130 209 OFFCURVE",
"163 287 CURVE",
"203 289 OFFCURVE",
"244 288 OFFCURVE",
"285 288 CURVE SMOOTH",
"340 287 OFFCURVE",
"347 274 OFFCURVE",
"343 251 CURVE SMOOTH",
"341 238 OFFCURVE",
"337 230 OFFCURVE",
"334 225 CURVE SMOOTH",
"332 222 OFFCURVE",
"343 224 OFFCURVE",
"344 227 CURVE SMOOTH",
"349 243 OFFCURVE",
"353 260 OFFCURVE",
"366 291 CURVE"
);
},
{
closed = 1;
nodes = (
"339 574 OFFCURVE",
"301 642 OFFCURVE",
"292 654 CURVE SMOOTH",
"290 657 OFFCURVE",
"278 651 OFFCURVE",
"280 649 CURVE",
"343 559 LINE SMOOTH",
"345 556 OFFCURVE",
"353 555 OFFCURVE",
"350 559 CURVE SMOOTH"
);
}
);
width = 443;
}
);
note = Egrave;
unicode = 00C8;
},
{
color = 11;
glyphname = Emacron;
lastChange = "2021-07-14 20:19:39 +0000";
layers = (
{
hints = (
{
horizontal = 1;
place = "{-8, 11}";
type = Stem;
},
{
horizontal = 1;
place = "{225, 13}";
type = Stem;
},
{
horizontal = 1;
place = "{364, 16}";
type = Stem;
},
{
horizontal = 1;
place = "{427, 10}";
type = Stem;
},
{
horizontal = 1;
place = "{428, 15}";
type = Stem;
},
{
place = "{135, 61}";
type = Stem;
},
{
place = "{232, 197}";
type = Stem;
}
);
layerId = "DB049CBD-EE5A-4C6A-B8D5-3A4D87564362";
paths = (
{
closed = 1;
nodes = (
"366 292 OFFCURVE",
"371 299 OFFCURVE",
"365 299 CURVE SMOOTH",
"311 299 OFFCURVE",
"259 298 OFFCURVE",
"206 297 CURVE SMOOTH",
"193 296 OFFCURVE",
"179 296 OFFCURVE",
"166 296 CURVE",
"200 376 OFFCURVE",
"235 451 OFFCURVE",
"253 490 CURVE SMOOTH",
"261 506 OFFCURVE",
"269 519 OFFCURVE",
"293 522 CURVE SMOOTH",
"325 526 OFFCURVE",
"362 526 OFFCURVE",
"395 525 CURVE SMOOTH",
"450 523 OFFCURVE",
"478 515 OFFCURVE",
"473 489 CURVE SMOOTH",
"471 476 OFFCURVE",
"460 441 OFFCURVE",
"455 431 CURVE SMOOTH",
"453 428 OFFCURVE",
"462 428 OFFCURVE",
"463 432 CURVE SMOOTH",
"473 462 OFFCURVE",
"482 495 OFFCURVE",
"495 526 CURVE",
"495 527 OFFCURVE",
"500 534 OFFCURVE",
"494 534 CURVE SMOOTH",
"440 534 OFFCURVE",
"389 533 OFFCURVE",
"335 532 CURVE SMOOTH",
"307 531 OFFCURVE",
"281 531 OFFCURVE",
"253 531 CURVE SMOOTH",
"229 531 OFFCURVE",
"183 533 OFFCURVE",
"163 534 CURVE SMOOTH",
"159 534 OFFCURVE",
"154 525 OFFCURVE",
"159 525 CURVE SMOOTH",
"172 525 OFFCURVE",
"191 526 OFFCURVE",
"206 526 CURVE SMOOTH",
"225 526 OFFCURVE",
"235 523 OFFCURVE",
"226 495 CURVE SMOOTH",
"203 430 OFFCURVE",
"178 363 OFFCURVE",
"151 296 CURVE",
"113 296 LINE SMOOTH",
"100 296 OFFCURVE",
"85 281 OFFCURVE",
"90 282 CURVE SMOOTH",
"109 284 OFFCURVE",
"128 285 OFFCURVE",
"148 286 CURVE",
"121 220 OFFCURVE",
"93 155 OFFCURVE",
"66 93 CURVE SMOOTH",
"27 6 OFFCURVE",
"33 -2 OFFCURVE",
"42 -2 CURVE SMOOTH",
"100 -2 OFFCURVE",
"334 -7 OFFCURVE",
"382 2 CURVE SMOOTH",
"393 4 OFFCURVE",
"411 64 OFFCURVE",
"422 97 CURVE SMOOTH",
"423 101 OFFCURVE",
"414 102 OFFCURVE",
"413 100 CURVE",
"408 66 OFFCURVE",
"387 37 OFFCURVE",
"382 33 CURVE SMOOTH",
"362 19 OFFCURVE",
"322 13 OFFCURVE",
"280 9 CURVE SMOOTH",
"226 5 OFFCURVE",
"146 7 OFFCURVE",
"118 10 CURVE SMOOTH",
"66 14 OFFCURVE",
"67 34 OFFCURVE",
"80 72 CURVE SMOOTH",
"98 128 OFFCURVE",
"130 209 OFFCURVE",
"163 287 CURVE",
"203 289 OFFCURVE",
"244 288 OFFCURVE",
"285 288 CURVE SMOOTH",
"340 287 OFFCURVE",
"347 274 OFFCURVE",
"343 251 CURVE SMOOTH",
"341 238 OFFCURVE",
"337 230 OFFCURVE",
"334 225 CURVE SMOOTH",
"332 222 OFFCURVE",
"343 224 OFFCURVE",
"344 227 CURVE SMOOTH",
"349 243 OFFCURVE",
"353 260 OFFCURVE",
"366 291 CURVE"
);
},
{
closed = 1;
nodes = (
"308 606 LINE SMOOTH",
"305 606 OFFCURVE",
"300 589 OFFCURVE",
"303 590 CURVE",
"319 591 OFFCURVE",
"407 590 OFFCURVE",
"426 590 CURVE SMOOTH",
"428 590 OFFCURVE",
"433 606 OFFCURVE",
"430 606 CURVE SMOOTH"
);
}
);
width = 443;
}
);
note = Emacron;
unicode = 0112;
},
{
color = 11;
glyphname = Eogonek;
lastChange = "2021-07-14 20:19:39 +0000";
layers = (
{
hints = (
{
horizontal = 1;
place = "{-8, 11}";
type = Stem;
},
{
horizontal = 1;
place = "{225, 13}";
type = Stem;
},
{
horizontal = 1;
place = "{427, 10}";
type = Stem;
},
{
horizontal = 1;
place = "{428, 15}";
type = Stem;
},
{
place = "{135, 61}";
type = Stem;
}
);
layerId = "DB049CBD-EE5A-4C6A-B8D5-3A4D87564362";
paths = (
{
closed = 1;
nodes = (
"366 292 OFFCURVE",
"371 299 OFFCURVE",
"365 299 CURVE SMOOTH",
"311 299 OFFCURVE",
"259 298 OFFCURVE",
"206 297 CURVE SMOOTH",
"193 296 OFFCURVE",
"179 296 OFFCURVE",
"166 296 CURVE",
"200 376 OFFCURVE",
"235 451 OFFCURVE",
"253 490 CURVE SMOOTH",
"261 506 OFFCURVE",
"269 519 OFFCURVE",
"293 522 CURVE SMOOTH",
"325 526 OFFCURVE",
"362 526 OFFCURVE",
"395 525 CURVE SMOOTH",
"450 523 OFFCURVE",
"478 515 OFFCURVE",
"473 489 CURVE SMOOTH",
"471 476 OFFCURVE",
"460 441 OFFCURVE",
"455 431 CURVE SMOOTH",
"453 428 OFFCURVE",
"462 428 OFFCURVE",
"463 432 CURVE SMOOTH",
"473 462 OFFCURVE",
"482 495 OFFCURVE",
"495 526 CURVE",
"495 527 OFFCURVE",
"500 534 OFFCURVE",
"494 534 CURVE SMOOTH",
"440 534 OFFCURVE",
"389 533 OFFCURVE",
"335 532 CURVE SMOOTH",
"307 531 OFFCURVE",
"281 531 OFFCURVE",
"253 531 CURVE SMOOTH",
"229 531 OFFCURVE",
"183 533 OFFCURVE",
"163 534 CURVE SMOOTH",
"159 534 OFFCURVE",
"154 525 OFFCURVE",
"159 525 CURVE SMOOTH",
"172 525 OFFCURVE",
"191 526 OFFCURVE",
"206 526 CURVE SMOOTH",
"225 526 OFFCURVE",
"235 523 OFFCURVE",
"226 495 CURVE SMOOTH",
"203 430 OFFCURVE",
"178 363 OFFCURVE",
"151 296 CURVE",
"113 296 LINE SMOOTH",
"100 296 OFFCURVE",
"85 281 OFFCURVE",
"90 282 CURVE SMOOTH",
"109 284 OFFCURVE",
"128 285 OFFCURVE",
"148 286 CURVE",
"121 220 OFFCURVE",
"93 155 OFFCURVE",
"66 93 CURVE SMOOTH",
"27 6 OFFCURVE",
"33 -2 OFFCURVE",
"42 -2 CURVE SMOOTH",
"100 -2 OFFCURVE",
"334 -7 OFFCURVE",
"382 2 CURVE SMOOTH",
"393 4 OFFCURVE",
"411 64 OFFCURVE",
"422 97 CURVE SMOOTH",
"423 101 OFFCURVE",
"414 102 OFFCURVE",
"413 100 CURVE",
"408 66 OFFCURVE",
"387 37 OFFCURVE",
"382 33 CURVE SMOOTH",
"362 19 OFFCURVE",
"322 13 OFFCURVE",
"280 9 CURVE SMOOTH",
"226 5 OFFCURVE",
"146 7 OFFCURVE",
"118 10 CURVE SMOOTH",
"66 14 OFFCURVE",
"67 34 OFFCURVE",
"80 72 CURVE SMOOTH",
"98 128 OFFCURVE",
"130 209 OFFCURVE",
"163 287 CURVE",
"203 289 OFFCURVE",
"244 288 OFFCURVE",
"285 288 CURVE SMOOTH",
"340 287 OFFCURVE",
"347 274 OFFCURVE",
"343 251 CURVE SMOOTH",
"341 238 OFFCURVE",
"337 230 OFFCURVE",
"334 225 CURVE SMOOTH",
"332 222 OFFCURVE",
"343 224 OFFCURVE",
"344 227 CURVE SMOOTH",
"349 243 OFFCURVE",
"353 260 OFFCURVE",
"366 291 CURVE"
);
},
{
closed = 1;
nodes = (
"211 -108 OFFCURVE",
"207 -101 OFFCURVE",
"206 -103 CURVE SMOOTH",
"192 -122 OFFCURVE",
"168 -157 OFFCURVE",
"148 -170 CURVE SMOOTH",
"131 -181 OFFCURVE",
"122 -180 OFFCURVE",
"122 -159 CURVE SMOOTH",
"122 -93 OFFCURVE",
"168 -32 OFFCURVE",
"200 -13 CURVE",
"205 -11 OFFCURVE",
"205 1 OFFCURVE",
"198 -4 CURVE SMOOTH",
"150 -41 OFFCURVE",
"105 -111 OFFCURVE",
"105 -171 CURVE SMOOTH",
"105 -202 OFFCURVE",
"129 -191 OFFCURVE",
"148 -176 CURVE SMOOTH",
"168 -161 OFFCURVE",
"193 -132 OFFCURVE",
"207 -113 CURVE SMOOTH"
);
}
);
width = 443;
}
);
note = Eogonek;
unicode = 0118;
},
{
color = 5;
glyphname = F;
lastChange = "2021-04-20 17:45:09 +0000";
layers = (
{
hints = (
{
horizontal = 1;
place = "{-5, 9}";
type = Stem;
},
{
horizontal = 1;
place = "{209, 9}";
type = Stem;
},
{
horizontal = 1;
place = "{231, -20}";
target = down;
type = TopGhost;
},
{
horizontal = 1;
place = "{428, 11}";
type = Stem;
},
{
place = "{52, 70}";
type = Stem;
},
{
place = "{52, 483}";
type = Stem;
}
);
layerId = "DB049CBD-EE5A-4C6A-B8D5-3A4D87564362";
paths = (
{
closed = 1;
nodes = (
"344 292 OFFCURVE",
"348 299 OFFCURVE",
"342 299 CURVE SMOOTH",
"297 299 OFFCURVE",
"254 298 OFFCURVE",
"209 297 CURVE SMOOTH",
"188 297 OFFCURVE",
"166 296 OFFCURVE",
"144 296 CURVE",
"178 376 OFFCURVE",
"212 452 OFFCURVE",
"231 490 CURVE SMOOTH",
"238 506 OFFCURVE",
"247 519 OFFCURVE",
"271 522 CURVE SMOOTH",
"302 526 OFFCURVE",
"340 526 OFFCURVE",
"373 525 CURVE SMOOTH",
"427 523 OFFCURVE",
"455 515 OFFCURVE",
"451 489 CURVE SMOOTH",
"448 476 OFFCURVE",
"438 441 OFFCURVE",
"433 431 CURVE SMOOTH",
"431 428 OFFCURVE",
"439 428 OFFCURVE",
"441 432 CURVE",
"451 462 OFFCURVE",
"460 495 OFFCURVE",
"473 526 CURVE",
"473 527 OFFCURVE",
"478 534 OFFCURVE",
"472 534 CURVE SMOOTH",
"418 534 OFFCURVE",
"366 533 OFFCURVE",
"313 532 CURVE SMOOTH",
"283 531 OFFCURVE",
"254 531 OFFCURVE",
"223 531 CURVE SMOOTH",
"196 531 OFFCURVE",
"164 533 OFFCURVE",
"141 534 CURVE SMOOTH",
"137 534 OFFCURVE",
"129 523 OFFCURVE",
"134 524 CURVE SMOOTH",
"139 524 OFFCURVE",
"169 526 OFFCURVE",
"184 526 CURVE SMOOTH",
"202 526 OFFCURVE",
"213 523 OFFCURVE",
"204 499 CURVE SMOOTH",
"182 433 OFFCURVE",
"156 364 OFFCURVE",
"129 296 CURVE",
"112 296 LINE SMOOTH",
"99 296 OFFCURVE",
"88 279 OFFCURVE",
"93 280 CURVE SMOOTH",
"101 281 OFFCURVE",
"112 283 OFFCURVE",
"124 284 CURVE",
"98 219 OFFCURVE",
"70 154 OFFCURVE",
"44 93 CURVE SMOOTH",
"22 44 OFFCURVE",
"13 20 OFFCURVE",
"13 9 CURVE SMOOTH",
"13 -3 OFFCURVE",
"23 -2 OFFCURVE",
"32 0 CURVE",
"54 2 OFFCURVE",
"107 -1 OFFCURVE",
"132 0 CURVE SMOOTH",
"136 0 OFFCURVE",
"141 8 OFFCURVE",
"137 7 CURVE SMOOTH",
"121 5 OFFCURVE",
"85 5 OFFCURVE",
"68 11 CURVE SMOOTH",
"57 15 OFFCURVE",
"51 24 OFFCURVE",
"50 36 CURVE SMOOTH",
"49 48 OFFCURVE",
"54 61 OFFCURVE",
"57 72 CURVE SMOOTH",
"75 127 OFFCURVE",
"108 208 OFFCURVE",
"140 286 CURVE",
"163 288 OFFCURVE",
"189 289 OFFCURVE",
"211 289 CURVE SMOOTH",
"230 289 OFFCURVE",
"283 289 OFFCURVE",
"301 284 CURVE SMOOTH",
"321 278 OFFCURVE",
"323 267 OFFCURVE",
"321 251 CURVE SMOOTH",
"318 238 OFFCURVE",
"314 230 OFFCURVE",
"312 225 CURVE SMOOTH",
"310 222 OFFCURVE",
"321 224 OFFCURVE",
"322 227 CURVE SMOOTH",
"326 243 OFFCURVE",
"330 260 OFFCURVE",
"343 291 CURVE"
);
}
);
width = 371;
}
);
note = F;
unicode = 0046;
},
{
color = 5;
glyphname = G;
lastChange = "2021-04-20 17:45:09 +0000";
layers = (
{
hints = (
{
horizontal = 1;
place = "{-264, 21}";
target = up;
type = BottomGhost;
},
{
horizontal = 1;
place = "{-13, 21}";
target = up;
type = BottomGhost;
},
{
horizontal = 1;
place = "{-5, 21}";
target = up;
type = BottomGhost;
},
{
horizontal = 1;
place = "{443, -20}";
target = down;
type = TopGhost;
},
{
place = "{111, 43}";
type = Stem;
}
);
layerId = "DB049CBD-EE5A-4C6A-B8D5-3A4D87564362";
paths = (
{
closed = 1;
nodes = (
"609 281 OFFCURVE",
"569 277 OFFCURVE",
"540 278 CURVE SMOOTH",
"516 278 OFFCURVE",
"457 280 OFFCURVE",
"437 281 CURVE SMOOTH",
"433 281 OFFCURVE",
"429 274 OFFCURVE",
"434 274 CURVE SMOOTH",
"447 274 OFFCURVE",
"472 275 OFFCURVE",
"493 272 CURVE SMOOTH",
"529 266 OFFCURVE",
"533 248 OFFCURVE",
"527 226 CURVE SMOOTH",
"513 178 OFFCURVE",
"495 147 OFFCURVE",
"482 130 CURVE SMOOTH",
"418 39 OFFCURVE",
"332 -6 OFFCURVE",
"247 -6 CURVE SMOOTH",
"7 -6 OFFCURVE",
"34 268 OFFCURVE",
"184 424 CURVE SMOOTH",
"245 488 OFFCURVE",
"347 536 OFFCURVE",
"444 536 CURVE SMOOTH",
"478 536 OFFCURVE",
"513 529 OFFCURVE",
"544 516 CURVE SMOOTH",
"567 506 OFFCURVE",
"583 489 OFFCURVE",
"579 461 CURVE SMOOTH",
"577 447 OFFCURVE",
"567 412 OFFCURVE",
"562 403 CURVE SMOOTH",
"560 399 OFFCURVE",
"568 400 OFFCURVE",
"570 403 CURVE",
"570 403 OFFCURVE",
"576 425 OFFCURVE",
"582 446 CURVE SMOOTH",
"588 466 OFFCURVE",
"595 485 OFFCURVE",
"603 505 CURVE SMOOTH",
"605 511 OFFCURVE",
"609 519 OFFCURVE",
"594 522 CURVE SMOOTH",
"542 534 OFFCURVE",
"491 543 OFFCURVE",
"443 543 CURVE SMOOTH",
"347 543 OFFCURVE",
"260 513 OFFCURVE",
"178 438 CURVE SMOOTH",
"1 279 OFFCURVE",
"-26 -12 OFFCURVE",
"247 -12 CURVE SMOOTH",
"361 -12 OFFCURVE",
"453 68 OFFCURVE",
"494 133 CURVE",
"449 18 OFFCURVE",
"378 -152 OFFCURVE",
"326 -213 CURVE SMOOTH",
"291 -253 OFFCURVE",
"249 -276 OFFCURVE",
"189 -276 CURVE SMOOTH",
"145 -276 OFFCURVE",
"106 -249 OFFCURVE",
"111 -194 CURVE SMOOTH",
"112 -181 OFFCURVE",
"115 -167 OFFCURVE",
"123 -152 CURVE SMOOTH",
"126 -146 OFFCURVE",
"133 -137 OFFCURVE",
"140 -130 CURVE",
"143 -125 OFFCURVE",
"139 -120 OFFCURVE",
"134 -129 CURVE SMOOTH",
"118 -152 LINE SMOOTH",
"104 -175 OFFCURVE",
"98 -197 OFFCURVE",
"97 -216 CURVE SMOOTH",
"92 -274 OFFCURVE",
"132 -297 OFFCURVE",
"178 -297 CURVE SMOOTH",
"243 -297 OFFCURVE",
"294 -264 OFFCURVE",
"335 -217 CURVE SMOOTH",
"419 -119 OFFCURVE",
"491 86 OFFCURVE",
"541 207 CURVE SMOOTH",
"552 233 OFFCURVE",
"562 248 OFFCURVE",
"569 256 CURVE SMOOTH",
"587 278 OFFCURVE",
"614 275 OFFCURVE",
"633 274 CURVE SMOOTH",
"635 274 OFFCURVE",
"639 281 OFFCURVE",
"636 281 CURVE SMOOTH"
);
}
);
width = 564;
}
);
note = G;
unicode = 0047;
},
{
color = 11;
glyphname = Gbreve;
lastChange = "2021-07-14 20:19:39 +0000";
layers = (
{
hints = (
{
horizontal = 1;
place = "{-264, 21}";
target = up;
type = BottomGhost;
},
{
horizontal = 1;
place = "{-13, 21}";
target = up;
type = BottomGhost;
},
{
horizontal = 1;
place = "{-5, 21}";
target = up;
type = BottomGhost;
},
{
horizontal = 1;
place = "{443, -20}";
target = down;
type = TopGhost;
},
{
place = "{111, 43}";
type = Stem;
}
);
layerId = "DB049CBD-EE5A-4C6A-B8D5-3A4D87564362";
paths = (
{
closed = 1;
nodes = (
"609 281 OFFCURVE",
"569 277 OFFCURVE",
"540 278 CURVE SMOOTH",
"516 278 OFFCURVE",
"457 280 OFFCURVE",
"437 281 CURVE SMOOTH",
"433 281 OFFCURVE",
"429 274 OFFCURVE",
"434 274 CURVE SMOOTH",
"447 274 OFFCURVE",
"472 275 OFFCURVE",
"493 272 CURVE SMOOTH",
"529 266 OFFCURVE",
"533 248 OFFCURVE",
"527 226 CURVE SMOOTH",
"513 178 OFFCURVE",
"495 147 OFFCURVE",
"482 130 CURVE SMOOTH",
"418 39 OFFCURVE",
"332 -6 OFFCURVE",
"247 -6 CURVE SMOOTH",
"7 -6 OFFCURVE",
"34 268 OFFCURVE",
"184 424 CURVE SMOOTH",
"245 488 OFFCURVE",
"347 536 OFFCURVE",
"444 536 CURVE SMOOTH",
"478 536 OFFCURVE",
"513 529 OFFCURVE",
"544 516 CURVE SMOOTH",
"567 506 OFFCURVE",
"583 489 OFFCURVE",
"579 461 CURVE SMOOTH",
"577 447 OFFCURVE",
"567 412 OFFCURVE",
"562 403 CURVE SMOOTH",
"560 399 OFFCURVE",
"568 400 OFFCURVE",
"570 403 CURVE",
"570 403 OFFCURVE",
"576 425 OFFCURVE",
"582 446 CURVE SMOOTH",
"588 466 OFFCURVE",
"595 485 OFFCURVE",
"603 505 CURVE SMOOTH",
"605 511 OFFCURVE",
"609 519 OFFCURVE",
"594 522 CURVE SMOOTH",
"542 534 OFFCURVE",
"491 543 OFFCURVE",
"443 543 CURVE SMOOTH",
"347 543 OFFCURVE",
"260 513 OFFCURVE",
"178 438 CURVE SMOOTH",
"1 279 OFFCURVE",
"-26 -12 OFFCURVE",
"247 -12 CURVE SMOOTH",
"361 -12 OFFCURVE",
"453 68 OFFCURVE",
"494 133 CURVE",
"449 18 OFFCURVE",
"378 -152 OFFCURVE",
"326 -213 CURVE SMOOTH",
"291 -253 OFFCURVE",
"249 -276 OFFCURVE",
"189 -276 CURVE SMOOTH",
"145 -276 OFFCURVE",
"106 -249 OFFCURVE",
"111 -194 CURVE SMOOTH",
"112 -181 OFFCURVE",
"115 -167 OFFCURVE",
"123 -152 CURVE SMOOTH",
"126 -146 OFFCURVE",
"133 -137 OFFCURVE",
"140 -130 CURVE",
"143 -125 OFFCURVE",
"139 -120 OFFCURVE",
"134 -129 CURVE SMOOTH",
"118 -152 LINE SMOOTH",
"104 -175 OFFCURVE",
"98 -197 OFFCURVE",
"97 -216 CURVE SMOOTH",
"92 -274 OFFCURVE",
"132 -297 OFFCURVE",
"178 -297 CURVE SMOOTH",
"243 -297 OFFCURVE",
"294 -264 OFFCURVE",
"335 -217 CURVE SMOOTH",
"419 -119 OFFCURVE",
"491 86 OFFCURVE",
"541 207 CURVE SMOOTH",
"552 233 OFFCURVE",
"562 248 OFFCURVE",
"569 256 CURVE SMOOTH",
"587 278 OFFCURVE",
"614 275 OFFCURVE",
"633 274 CURVE SMOOTH",
"635 274 OFFCURVE",
"639 281 OFFCURVE",
"636 281 CURVE SMOOTH"
);
},
{
closed = 1;
nodes = (
"563 663 OFFCURVE",
"562 663 OFFCURVE",
"560 663 CURVE SMOOTH",
"558 663 LINE",
"538 642 OFFCURVE",
"519 613 OFFCURVE",
"485 613 CURVE SMOOTH",
"459 613 OFFCURVE",
"453 634 OFFCURVE",
"453 656 CURVE SMOOTH",
"453 659 OFFCURVE",
"452 662 OFFCURVE",
"448 662 CURVE SMOOTH",
"438 662 OFFCURVE",
"430 652 OFFCURVE",
"430 642 CURVE SMOOTH",
"430 616 OFFCURVE",
"447 599 OFFCURVE",
"473 599 CURVE SMOOTH",
"504 599 OFFCURVE",
"535 620 OFFCURVE",
"554 644 CURVE SMOOTH",
"557 648 OFFCURVE",
"563 656 OFFCURVE",
"563 661 CURVE SMOOTH"
);
}
);
width = 564;
}
);
note = Gbreve;
unicode = 011E;
},
{
color = 11;
glyphname = Gcircumflex;
lastChange = "2021-07-14 20:19:39 +0000";
layers = (
{
hints = (
{
horizontal = 1;
place = "{-264, 21}";
target = up;
type = BottomGhost;
},
{
horizontal = 1;
place = "{-13, 21}";
target = up;
type = BottomGhost;
},
{
horizontal = 1;
place = "{154, 21}";
target = up;
type = BottomGhost;
},
{
horizontal = 1;
place = "{443, -20}";
target = down;
type = TopGhost;
},
{
horizontal = 1;
place = "{683, 7}";
type = Stem;
},
{
place = "{111, 43}";
type = Stem;
},
{
place = "{367, 222}";
type = Stem;
},
{
place = "{541, 48}";
type = Stem;
}
);
layerId = "DB049CBD-EE5A-4C6A-B8D5-3A4D87564362";
paths = (
{
closed = 1;
nodes = (
"609 281 OFFCURVE",
"569 277 OFFCURVE",
"540 278 CURVE SMOOTH",
"516 278 OFFCURVE",
"457 280 OFFCURVE",
"437 281 CURVE SMOOTH",
"433 281 OFFCURVE",
"429 274 OFFCURVE",
"434 274 CURVE SMOOTH",
"447 274 OFFCURVE",
"472 275 OFFCURVE",
"493 272 CURVE SMOOTH",
"529 266 OFFCURVE",
"533 248 OFFCURVE",
"527 226 CURVE SMOOTH",
"513 178 OFFCURVE",
"495 147 OFFCURVE",
"482 130 CURVE SMOOTH",
"418 39 OFFCURVE",
"332 -6 OFFCURVE",
"247 -6 CURVE SMOOTH",
"7 -6 OFFCURVE",
"34 268 OFFCURVE",
"184 424 CURVE SMOOTH",
"245 488 OFFCURVE",
"347 536 OFFCURVE",
"444 536 CURVE SMOOTH",
"478 536 OFFCURVE",
"513 529 OFFCURVE",
"544 516 CURVE SMOOTH",
"567 506 OFFCURVE",
"583 489 OFFCURVE",
"579 461 CURVE SMOOTH",
"577 447 OFFCURVE",
"567 412 OFFCURVE",
"562 403 CURVE SMOOTH",
"560 399 OFFCURVE",
"568 400 OFFCURVE",
"570 403 CURVE",
"570 403 OFFCURVE",
"576 425 OFFCURVE",
"582 446 CURVE SMOOTH",
"588 466 OFFCURVE",
"595 485 OFFCURVE",
"603 505 CURVE SMOOTH",
"605 511 OFFCURVE",
"609 519 OFFCURVE",
"594 522 CURVE SMOOTH",
"542 534 OFFCURVE",
"491 543 OFFCURVE",
"443 543 CURVE SMOOTH",
"347 543 OFFCURVE",
"260 513 OFFCURVE",
"178 438 CURVE SMOOTH",
"1 279 OFFCURVE",
"-26 -12 OFFCURVE",
"247 -12 CURVE SMOOTH",
"361 -12 OFFCURVE",
"453 68 OFFCURVE",
"494 133 CURVE",
"449 18 OFFCURVE",
"378 -152 OFFCURVE",
"326 -213 CURVE SMOOTH",
"291 -253 OFFCURVE",
"249 -276 OFFCURVE",
"189 -276 CURVE SMOOTH",
"145 -276 OFFCURVE",
"106 -249 OFFCURVE",
"111 -194 CURVE SMOOTH",
"112 -181 OFFCURVE",
"115 -167 OFFCURVE",
"123 -152 CURVE SMOOTH",
"126 -146 OFFCURVE",
"133 -137 OFFCURVE",
"140 -130 CURVE",
"143 -125 OFFCURVE",
"139 -120 OFFCURVE",
"134 -129 CURVE SMOOTH",
"118 -152 LINE SMOOTH",
"104 -175 OFFCURVE",
"98 -197 OFFCURVE",
"97 -216 CURVE SMOOTH",
"92 -274 OFFCURVE",
"132 -297 OFFCURVE",
"178 -297 CURVE SMOOTH",
"243 -297 OFFCURVE",
"294 -264 OFFCURVE",
"335 -217 CURVE SMOOTH",
"419 -119 OFFCURVE",
"491 86 OFFCURVE",
"541 207 CURVE SMOOTH",
"552 233 OFFCURVE",
"562 248 OFFCURVE",
"569 256 CURVE SMOOTH",
"587 278 OFFCURVE",
"614 275 OFFCURVE",
"633 274 CURVE SMOOTH",
"635 274 OFFCURVE",
"639 281 OFFCURVE",
"636 281 CURVE SMOOTH"
);
},
{
closed = 1;
nodes = (
"426 578 OFFCURVE",
"427 562 OFFCURVE",
"431 567 CURVE SMOOTH",
"450 591 OFFCURVE",
"489 643 OFFCURVE",
"499 653 CURVE",
"504 644 OFFCURVE",
"530 578 OFFCURVE",
"530 570 CURVE",
"544 570 LINE",
"541 576 OFFCURVE",
"517 631 OFFCURVE",
"507 662 CURVE",
"499 662 LINE",
"499 662 OFFCURVE",
"443 594 OFFCURVE",
"429 579 CURVE"
);
}
);
width = 564;
}
);
note = Gcircumflex;
unicode = 011C;
},
{
color = 11;
glyphname = Gcommaaccent;
lastChange = "2021-07-14 20:19:39 +0000";
layers = (
{
hints = (
{
horizontal = 1;
place = "{-264, 21}";
target = up;
type = BottomGhost;
},
{
horizontal = 1;
place = "{-91, 17}";
type = Stem;
},
{
horizontal = 1;
place = "{-91, 46}";
type = Stem;
},
{
horizontal = 1;
place = "{-13, 21}";
target = up;
type = BottomGhost;
},
{
horizontal = 1;
place = "{-5, 21}";
target = up;
type = BottomGhost;
},
{
horizontal = 1;
place = "{443, -20}";
target = down;
type = TopGhost;
},
{
place = "{111, 43}";
type = Stem;
},
{
place = "{226, 72}";
type = Stem;
}
);
layerId = "DB049CBD-EE5A-4C6A-B8D5-3A4D87564362";
paths = (
{
closed = 1;
nodes = (
"609 281 OFFCURVE",
"569 277 OFFCURVE",
"540 278 CURVE SMOOTH",
"516 278 OFFCURVE",
"457 280 OFFCURVE",
"437 281 CURVE SMOOTH",
"433 281 OFFCURVE",
"429 274 OFFCURVE",
"434 274 CURVE SMOOTH",
"447 274 OFFCURVE",
"472 275 OFFCURVE",
"493 272 CURVE SMOOTH",
"529 266 OFFCURVE",
"533 248 OFFCURVE",
"527 226 CURVE SMOOTH",
"513 178 OFFCURVE",
"495 147 OFFCURVE",
"482 130 CURVE SMOOTH",
"418 39 OFFCURVE",
"332 -6 OFFCURVE",
"247 -6 CURVE SMOOTH",
"7 -6 OFFCURVE",
"34 268 OFFCURVE",
"184 424 CURVE SMOOTH",
"245 488 OFFCURVE",
"347 536 OFFCURVE",
"444 536 CURVE SMOOTH",
"478 536 OFFCURVE",
"513 529 OFFCURVE",
"544 516 CURVE SMOOTH",
"567 506 OFFCURVE",
"583 489 OFFCURVE",
"579 461 CURVE SMOOTH",
"577 447 OFFCURVE",
"567 412 OFFCURVE",
"562 403 CURVE SMOOTH",
"560 399 OFFCURVE",
"568 400 OFFCURVE",
"570 403 CURVE",
"570 403 OFFCURVE",
"576 425 OFFCURVE",
"582 446 CURVE SMOOTH",
"588 466 OFFCURVE",
"595 485 OFFCURVE",
"603 505 CURVE SMOOTH",
"605 511 OFFCURVE",
"609 519 OFFCURVE",
"594 522 CURVE SMOOTH",
"542 534 OFFCURVE",
"491 543 OFFCURVE",
"443 543 CURVE SMOOTH",
"347 543 OFFCURVE",
"260 513 OFFCURVE",
"178 438 CURVE SMOOTH",
"1 279 OFFCURVE",
"-26 -12 OFFCURVE",
"247 -12 CURVE SMOOTH",
"361 -12 OFFCURVE",
"453 68 OFFCURVE",
"494 133 CURVE",
"449 18 OFFCURVE",
"378 -152 OFFCURVE",
"326 -213 CURVE SMOOTH",
"291 -253 OFFCURVE",
"249 -276 OFFCURVE",
"189 -276 CURVE SMOOTH",
"145 -276 OFFCURVE",
"106 -249 OFFCURVE",
"111 -194 CURVE SMOOTH",
"112 -181 OFFCURVE",
"115 -167 OFFCURVE",
"123 -152 CURVE SMOOTH",
"126 -146 OFFCURVE",
"133 -137 OFFCURVE",
"140 -130 CURVE",
"143 -125 OFFCURVE",
"139 -120 OFFCURVE",
"134 -129 CURVE SMOOTH",
"118 -152 LINE SMOOTH",
"104 -175 OFFCURVE",
"98 -197 OFFCURVE",
"97 -216 CURVE SMOOTH",
"92 -274 OFFCURVE",
"132 -297 OFFCURVE",
"178 -297 CURVE SMOOTH",
"243 -297 OFFCURVE",
"294 -264 OFFCURVE",
"335 -217 CURVE SMOOTH",
"419 -119 OFFCURVE",
"491 86 OFFCURVE",
"541 207 CURVE SMOOTH",
"552 233 OFFCURVE",
"562 248 OFFCURVE",
"569 256 CURVE SMOOTH",
"587 278 OFFCURVE",
"614 275 OFFCURVE",
"633 274 CURVE SMOOTH",
"635 274 OFFCURVE",
"639 281 OFFCURVE",
"636 281 CURVE SMOOTH"
);
},
{
closed = 1;
nodes = (
"301 -33 OFFCURVE",
"265 -54 OFFCURVE",
"256 -76 CURVE SMOOTH",
"252 -84 OFFCURVE",
"260 -86 OFFCURVE",
"263 -90 CURVE",
"259 -98 OFFCURVE",
"237 -136 OFFCURVE",
"228 -148 CURVE",
"226 -149 OFFCURVE",
"227 -155 OFFCURVE",
"229 -154 CURVE",
"239 -145 OFFCURVE",
"296 -65 OFFCURVE",
"298 -51 CURVE SMOOTH"
);
}
);
width = 564;
}
);
note = Gcommaaccent;
unicode = 0122;
},
{
color = 11;
glyphname = Gdotaccent;
lastChange = "2021-07-14 20:19:39 +0000";
layers = (
{
hints = (
{
horizontal = 1;
place = "{-264, 21}";
target = up;
type = BottomGhost;
},
{
horizontal = 1;
place = "{-13, 21}";
target = up;
type = BottomGhost;
},
{
horizontal = 1;
place = "{-5, 21}";
target = up;
type = BottomGhost;
},
{
horizontal = 1;
place = "{443, -20}";
target = down;
type = TopGhost;
},
{
place = "{111, 43}";
type = Stem;
}
);
layerId = "DB049CBD-EE5A-4C6A-B8D5-3A4D87564362";
paths = (
{
closed = 1;
nodes = (
"609 281 OFFCURVE",
"569 277 OFFCURVE",
"540 278 CURVE SMOOTH",
"516 278 OFFCURVE",
"457 280 OFFCURVE",
"437 281 CURVE SMOOTH",
"433 281 OFFCURVE",
"429 274 OFFCURVE",
"434 274 CURVE SMOOTH",
"447 274 OFFCURVE",
"472 275 OFFCURVE",
"493 272 CURVE SMOOTH",
"529 266 OFFCURVE",
"533 248 OFFCURVE",
"527 226 CURVE SMOOTH",
"513 178 OFFCURVE",
"495 147 OFFCURVE",
"482 130 CURVE SMOOTH",
"418 39 OFFCURVE",
"332 -6 OFFCURVE",
"247 -6 CURVE SMOOTH",
"7 -6 OFFCURVE",
"34 268 OFFCURVE",
"184 424 CURVE SMOOTH",
"245 488 OFFCURVE",
"347 536 OFFCURVE",
"444 536 CURVE SMOOTH",
"478 536 OFFCURVE",
"513 529 OFFCURVE",
"544 516 CURVE SMOOTH",
"567 506 OFFCURVE",
"583 489 OFFCURVE",
"579 461 CURVE SMOOTH",
"577 447 OFFCURVE",
"567 412 OFFCURVE",
"562 403 CURVE SMOOTH",
"560 399 OFFCURVE",
"568 400 OFFCURVE",
"570 403 CURVE",
"570 403 OFFCURVE",
"576 425 OFFCURVE",
"582 446 CURVE SMOOTH",
"588 466 OFFCURVE",
"595 485 OFFCURVE",
"603 505 CURVE SMOOTH",
"605 511 OFFCURVE",
"609 519 OFFCURVE",
"594 522 CURVE SMOOTH",
"542 534 OFFCURVE",
"491 543 OFFCURVE",
"443 543 CURVE SMOOTH",
"347 543 OFFCURVE",
"260 513 OFFCURVE",
"178 438 CURVE SMOOTH",
"1 279 OFFCURVE",
"-26 -12 OFFCURVE",
"247 -12 CURVE SMOOTH",
"361 -12 OFFCURVE",
"453 68 OFFCURVE",
"494 133 CURVE",
"449 18 OFFCURVE",
"378 -152 OFFCURVE",
"326 -213 CURVE SMOOTH",
"291 -253 OFFCURVE",
"249 -276 OFFCURVE",
"189 -276 CURVE SMOOTH",
"145 -276 OFFCURVE",
"106 -249 OFFCURVE",
"111 -194 CURVE SMOOTH",
"112 -181 OFFCURVE",
"115 -167 OFFCURVE",
"123 -152 CURVE SMOOTH",
"126 -146 OFFCURVE",
"133 -137 OFFCURVE",
"140 -130 CURVE",
"143 -125 OFFCURVE",
"139 -120 OFFCURVE",
"134 -129 CURVE SMOOTH",
"118 -152 LINE SMOOTH",
"104 -175 OFFCURVE",
"98 -197 OFFCURVE",
"97 -216 CURVE SMOOTH",
"92 -274 OFFCURVE",
"132 -297 OFFCURVE",
"178 -297 CURVE SMOOTH",
"243 -297 OFFCURVE",
"294 -264 OFFCURVE",
"335 -217 CURVE SMOOTH",
"419 -119 OFFCURVE",
"491 86 OFFCURVE",
"541 207 CURVE SMOOTH",
"552 233 OFFCURVE",
"562 248 OFFCURVE",
"569 256 CURVE SMOOTH",
"587 278 OFFCURVE",
"614 275 OFFCURVE",
"633 274 CURVE SMOOTH",
"635 274 OFFCURVE",
"639 281 OFFCURVE",
"636 281 CURVE SMOOTH"
);
},
{
closed = 1;
nodes = (
"510 658 OFFCURVE",
"465 640 OFFCURVE",
"459 613 CURVE SMOOTH",
"455 597 OFFCURVE",
"473 583 OFFCURVE",
"487 598 CURVE SMOOTH",
"495 607 OFFCURVE",
"506 627 OFFCURVE",
"507 638 CURVE SMOOTH"
);
}
);
width = 564;
}
);
note = Gdotaccent;
unicode = 0120;
},
{
color = 5;
glyphname = H;
lastChange = "2021-04-20 17:45:09 +0000";
layers = (
{
hints = (
{
horizontal = 1;
place = "{-9, 23}";
type = Stem;
},
{
horizontal = 1;
place = "{222, 35}";
type = Stem;
},
{
horizontal = 1;
place = "{459, 10}";
type = Stem;
},
{
horizontal = 1;
place = "{543, 10}";
type = Stem;
},
{
place = "{468, 56}";
type = Stem;
},
{
horizontal = 1;
place = "{239, 9}";
type = Stem;
},
{
horizontal = 1;
place = "{-4, 21}";
type = Stem;
}
);
layerId = "DB049CBD-EE5A-4C6A-B8D5-3A4D87564362";
paths = (
{
closed = 1;
nodes = (
"237 530 OFFCURVE",
"233 530 OFFCURVE",
"226 528 CURVE SMOOTH",
"221 527 OFFCURVE",
"212 526 OFFCURVE",
"207 526 CURVE SMOOTH",
"198 525 OFFCURVE",
"118 525 OFFCURVE",
"117 525 CURVE",
"114 523 OFFCURVE",
"111 517 OFFCURVE",
"115 517 CURVE",
"124 519 OFFCURVE",
"165 520 OFFCURVE",
"178 520 CURVE SMOOTH",
"202 520 OFFCURVE",
"190 490 OFFCURVE",
"181 459 CURVE SMOOTH",
"166 408 OFFCURVE",
"133 317 OFFCURVE",
"107 249 CURVE",
"101 249 OFFCURVE",
"95 248 OFFCURVE",
"90 248 CURVE SMOOTH",
"77 247 OFFCURVE",
"54 229 OFFCURVE",
"60 229 CURVE",
"70 231 OFFCURVE",
"85 232 OFFCURVE",
"102 234 CURVE",
"69 148 OFFCURVE",
"37 68 OFFCURVE",
"20 32 CURVE SMOOTH",
"16 24 OFFCURVE",
"8 14 OFFCURVE",
"14 1 CURVE SMOOTH",
"17 -5 OFFCURVE",
"26 -22 OFFCURVE",
"31 -4 CURVE SMOOTH",
"55 77 OFFCURVE",
"82 156 OFFCURVE",
"113 235 CURVE",
"207 242 OFFCURVE",
"366 243 OFFCURVE",
"434 233 CURVE",
"387 110 OFFCURVE",
"351 -10 OFFCURVE",
"343 -64 CURVE SMOOTH",
"338 -97 OFFCURVE",
"369 -82 OFFCURVE",
"385 -75 CURVE SMOOTH",
"418 -61 OFFCURVE",
"448 -38 OFFCURVE",
"473 -12 CURVE SMOOTH",
"478 -6 OFFCURVE",
"478 2 OFFCURVE",
"472 -5 CURVE SMOOTH",
"453 -26 OFFCURVE",
"430 -45 OFFCURVE",
"404 -58 CURVE SMOOTH",
"388 -66 OFFCURVE",
"375 -66 OFFCURVE",
"377 -37 CURVE SMOOTH",
"381 28 OFFCURVE",
"413 139 OFFCURVE",
"446 231 CURVE",
"459 230 OFFCURVE",
"471 234 OFFCURVE",
"482 245 CURVE SMOOTH",
"488 251 OFFCURVE",
"489 253 OFFCURVE",
"476 253 CURVE SMOOTH",
"454 253 LINE",
"487 340 OFFCURVE",
"526 429 OFFCURVE",
"573 510 CURVE SMOOTH",
"598 552 OFFCURVE",
"622 583 OFFCURVE",
"643 595 CURVE SMOOTH",
"646 597 OFFCURVE",
"648 606 OFFCURVE",
"646 604 CURVE",
"625 593 OFFCURVE",
"582 568 OFFCURVE",
"571 550 CURVE SMOOTH",
"530 482 OFFCURVE",
"475 341 OFFCURVE",
"441 253 CURVE",
"373 253 OFFCURVE",
"230 253 OFFCURVE",
"119 249 CURVE",
"155 342 OFFCURVE",
"196 434 OFFCURVE",
"235 526 CURVE SMOOTH"
);
}
);
width = 504;
}
);
note = H;
unicode = 0048;
},
{
color = 11;
glyphname = Hbar;
lastChange = "2021-07-14 20:19:39 +0000";
layers = (
{
hints = (
{
horizontal = 1;
place = "{-9, 23}";
type = Stem;
},
{
horizontal = 1;
place = "{222, 35}";
type = Stem;
},
{
horizontal = 1;
place = "{459, 10}";
type = Stem;
},
{
horizontal = 1;
place = "{543, 10}";
type = Stem;
},
{
place = "{468, 56}";
type = Stem;
},
{
horizontal = 1;
place = "{239, 9}";
type = Stem;
},
{
horizontal = 1;
place = "{-4, 21}";
type = Stem;
},
{
horizontal = 1;
place = "{246, 14}";
type = Stem;
},
{
place = "{-87, 646}";
type = Stem;
}
);
layerId = "DB049CBD-EE5A-4C6A-B8D5-3A4D87564362";
paths = (
{
closed = 1;
nodes = (
"237 530 OFFCURVE",
"233 530 OFFCURVE",
"226 528 CURVE SMOOTH",
"221 527 OFFCURVE",
"212 526 OFFCURVE",
"207 526 CURVE SMOOTH",
"198 525 OFFCURVE",
"118 525 OFFCURVE",
"117 525 CURVE",
"114 523 OFFCURVE",
"111 517 OFFCURVE",
"115 517 CURVE",
"124 519 OFFCURVE",
"165 520 OFFCURVE",
"178 520 CURVE SMOOTH",
"202 520 OFFCURVE",
"190 490 OFFCURVE",
"181 459 CURVE SMOOTH",
"166 408 OFFCURVE",
"133 317 OFFCURVE",
"107 249 CURVE",
"101 249 OFFCURVE",
"95 248 OFFCURVE",
"90 248 CURVE SMOOTH",
"77 247 OFFCURVE",
"54 229 OFFCURVE",
"60 229 CURVE",
"70 231 OFFCURVE",
"85 232 OFFCURVE",
"102 234 CURVE",
"69 148 OFFCURVE",
"37 68 OFFCURVE",
"20 32 CURVE SMOOTH",
"16 24 OFFCURVE",
"8 14 OFFCURVE",
"14 1 CURVE SMOOTH",
"17 -5 OFFCURVE",
"26 -22 OFFCURVE",
"31 -4 CURVE SMOOTH",
"55 77 OFFCURVE",
"82 156 OFFCURVE",
"113 235 CURVE",
"207 242 OFFCURVE",
"366 243 OFFCURVE",
"434 233 CURVE",
"387 110 OFFCURVE",
"351 -10 OFFCURVE",
"343 -64 CURVE SMOOTH",
"338 -97 OFFCURVE",
"369 -82 OFFCURVE",
"385 -75 CURVE SMOOTH",
"418 -61 OFFCURVE",
"448 -38 OFFCURVE",
"473 -12 CURVE SMOOTH",
"478 -6 OFFCURVE",
"478 2 OFFCURVE",
"472 -5 CURVE SMOOTH",
"453 -26 OFFCURVE",
"430 -45 OFFCURVE",
"404 -58 CURVE SMOOTH",
"388 -66 OFFCURVE",
"375 -66 OFFCURVE",
"377 -37 CURVE SMOOTH",
"381 28 OFFCURVE",
"413 139 OFFCURVE",
"446 231 CURVE",
"459 230 OFFCURVE",
"471 234 OFFCURVE",
"482 245 CURVE SMOOTH",
"488 251 OFFCURVE",
"489 253 OFFCURVE",
"476 253 CURVE SMOOTH",
"454 253 LINE",
"487 340 OFFCURVE",
"526 429 OFFCURVE",
"573 510 CURVE SMOOTH",
"598 552 OFFCURVE",
"622 583 OFFCURVE",
"643 595 CURVE SMOOTH",
"646 597 OFFCURVE",
"648 606 OFFCURVE",
"646 604 CURVE",
"625 593 OFFCURVE",
"582 568 OFFCURVE",
"571 550 CURVE SMOOTH",
"530 482 OFFCURVE",
"475 341 OFFCURVE",
"441 253 CURVE",
"373 253 OFFCURVE",
"230 253 OFFCURVE",
"119 249 CURVE",
"155 342 OFFCURVE",
"196 434 OFFCURVE",
"235 526 CURVE SMOOTH"
);
},
{
closed = 1;
nodes = (
"162 446 LINE SMOOTH",
"153 446 OFFCURVE",
"136 432 OFFCURVE",
"146 433 CURVE",
"198 433 OFFCURVE",
"487 433 OFFCURVE",
"549 433 CURVE SMOOTH",
"556 433 OFFCURVE",
"572 446 OFFCURVE",
"562 446 CURVE SMOOTH"
);
}
);
width = 504;
}
);
note = Hbar;
unicode = 0126;
},
{
color = 11;
glyphname = Hcircumflex;
lastChange = "2021-07-14 20:19:39 +0000";
layers = (
{
hints = (
{
horizontal = 1;
place = "{-9, 23}";
type = Stem;
},
{
horizontal = 1;
place = "{150, 21}";
target = up;
type = BottomGhost;
},
{
horizontal = 1;
place = "{222, 35}";
type = Stem;
},
{
horizontal = 1;
place = "{459, 10}";
type = Stem;
},
{
horizontal = 1;
place = "{543, 10}";
type = Stem;
},
{
horizontal = 1;
place = "{679, 7}";
type = Stem;
},
{
place = "{468, 56}";
type = Stem;
},
{
horizontal = 1;
place = "{239, 9}";
type = Stem;
},
{
horizontal = 1;
place = "{-4, 21}";
type = Stem;
}
);
layerId = "DB049CBD-EE5A-4C6A-B8D5-3A4D87564362";
paths = (
{
closed = 1;
nodes = (
"237 530 OFFCURVE",
"233 530 OFFCURVE",
"226 528 CURVE SMOOTH",
"221 527 OFFCURVE",
"212 526 OFFCURVE",
"207 526 CURVE SMOOTH",
"198 525 OFFCURVE",
"118 525 OFFCURVE",
"117 525 CURVE",
"114 523 OFFCURVE",
"111 517 OFFCURVE",
"115 517 CURVE",
"124 519 OFFCURVE",
"165 520 OFFCURVE",
"178 520 CURVE SMOOTH",
"202 520 OFFCURVE",
"190 490 OFFCURVE",
"181 459 CURVE SMOOTH",
"166 408 OFFCURVE",
"133 317 OFFCURVE",
"107 249 CURVE",
"101 249 OFFCURVE",
"95 248 OFFCURVE",
"90 248 CURVE SMOOTH",
"77 247 OFFCURVE",
"54 229 OFFCURVE",
"60 229 CURVE",
"70 231 OFFCURVE",
"85 232 OFFCURVE",
"102 234 CURVE",
"69 148 OFFCURVE",
"37 68 OFFCURVE",
"20 32 CURVE SMOOTH",
"16 24 OFFCURVE",
"8 14 OFFCURVE",
"14 1 CURVE SMOOTH",
"17 -5 OFFCURVE",
"26 -22 OFFCURVE",
"31 -4 CURVE SMOOTH",
"55 77 OFFCURVE",
"82 156 OFFCURVE",
"113 235 CURVE",
"207 242 OFFCURVE",
"366 243 OFFCURVE",
"434 233 CURVE",
"387 110 OFFCURVE",
"351 -10 OFFCURVE",
"343 -64 CURVE SMOOTH",
"338 -97 OFFCURVE",
"369 -82 OFFCURVE",
"385 -75 CURVE SMOOTH",
"418 -61 OFFCURVE",
"448 -38 OFFCURVE",
"473 -12 CURVE SMOOTH",
"478 -6 OFFCURVE",
"478 2 OFFCURVE",
"472 -5 CURVE SMOOTH",
"453 -26 OFFCURVE",
"430 -45 OFFCURVE",
"404 -58 CURVE SMOOTH",
"388 -66 OFFCURVE",
"375 -66 OFFCURVE",
"377 -37 CURVE SMOOTH",
"381 28 OFFCURVE",
"413 139 OFFCURVE",
"446 231 CURVE",
"459 230 OFFCURVE",
"471 234 OFFCURVE",
"482 245 CURVE SMOOTH",
"488 251 OFFCURVE",
"489 253 OFFCURVE",
"476 253 CURVE SMOOTH",
"454 253 LINE",
"487 340 OFFCURVE",
"526 429 OFFCURVE",
"573 510 CURVE SMOOTH",
"598 552 OFFCURVE",
"622 583 OFFCURVE",
"643 595 CURVE SMOOTH",
"646 597 OFFCURVE",
"648 606 OFFCURVE",
"646 604 CURVE",
"625 593 OFFCURVE",
"582 568 OFFCURVE",
"571 550 CURVE SMOOTH",
"530 482 OFFCURVE",
"475 341 OFFCURVE",
"441 253 CURVE",
"373 253 OFFCURVE",
"230 253 OFFCURVE",
"119 249 CURVE",
"155 342 OFFCURVE",
"196 434 OFFCURVE",
"235 526 CURVE SMOOTH"
);
},
{
closed = 1;
nodes = (
"353 574 OFFCURVE",
"354 558 OFFCURVE",
"358 563 CURVE SMOOTH",
"377 587 OFFCURVE",
"416 639 OFFCURVE",
"426 649 CURVE",
"431 640 OFFCURVE",
"457 574 OFFCURVE",
"457 566 CURVE",
"471 566 LINE",
"468 572 OFFCURVE",
"444 627 OFFCURVE",
"434 658 CURVE",
"426 658 LINE",
"426 658 OFFCURVE",
"370 590 OFFCURVE",
"356 575 CURVE"
);
}
);
width = 504;
}
);
note = Hcircumflex;
unicode = 0124;
},
{
color = 5;
glyphname = I;
lastChange = "2021-04-20 17:45:09 +0000";
layers = (
{
hints = (
{
horizontal = 1;
place = "{-2, 21}";
target = up;
type = BottomGhost;
},
{
horizontal = 1;
place = "{426, 8}";
type = Stem;
},
{
place = "{62, 341}";
type = Stem;
}
);
layerId = "DB049CBD-EE5A-4C6A-B8D5-3A4D87564362";
paths = (
{
closed = 1;
nodes = (
"280 539 OFFCURVE",
"254 534 OFFCURVE",
"249 534 CURVE SMOOTH",
"228 532 OFFCURVE",
"159 534 OFFCURVE",
"158 534 CURVE SMOOTH",
"151 533 OFFCURVE",
"155 523 OFFCURVE",
"158 523 CURVE",
"167 526 OFFCURVE",
"205 527 OFFCURVE",
"214 527 CURVE SMOOTH",
"226 527 OFFCURVE",
"230 522 OFFCURVE",
"230 514 CURVE SMOOTH",
"230 496 OFFCURVE",
"157 308 OFFCURVE",
"149 288 CURVE SMOOTH",
"122 222 OFFCURVE",
"92 156 OFFCURVE",
"64 93 CURVE SMOOTH",
"42 44 OFFCURVE",
"33 20 OFFCURVE",
"33 9 CURVE SMOOTH",
"33 -3 OFFCURVE",
"43 -2 OFFCURVE",
"52 0 CURVE",
"74 2 OFFCURVE",
"127 -1 OFFCURVE",
"152 0 CURVE SMOOTH",
"156 0 OFFCURVE",
"161 8 OFFCURVE",
"157 7 CURVE SMOOTH",
"141 5 OFFCURVE",
"105 5 OFFCURVE",
"88 11 CURVE SMOOTH",
"77 15 OFFCURVE",
"71 24 OFFCURVE",
"70 36 CURVE SMOOTH",
"69 48 OFFCURVE",
"74 61 OFFCURVE",
"77 72 CURVE SMOOTH",
"96 128 OFFCURVE",
"130 212 OFFCURVE",
"162 290 CURVE SMOOTH",
"196 372 OFFCURVE",
"234 449 OFFCURVE",
"273 526 CURVE SMOOTH"
);
}
);
width = 219;
}
);
note = I;
unicode = 0049;
},
{
color = 5;
glyphname = IJ;
lastChange = "2021-04-20 17:45:09 +0000";
layers = (
{
hints = (
{
horizontal = 1;
place = "{-2, 21}";
target = up;
type = BottomGhost;
},
{
horizontal = 1;
place = "{426, 8}";
type = Stem;
},
{
place = "{62, 341}";
type = Stem;
},
{
horizontal = 1;
place = "{-53, 12}";
type = Stem;
},
{
horizontal = 1;
place = "{492, 8}";
type = Stem;
},
{
place = "{56, 9}";
type = Stem;
},
{
place = "{347, 16}";
type = Stem;
}
);
layerId = "DB049CBD-EE5A-4C6A-B8D5-3A4D87564362";
paths = (
{
closed = 1;
nodes = (
"280 539 OFFCURVE",
"254 534 OFFCURVE",
"249 534 CURVE SMOOTH",
"228 532 OFFCURVE",
"159 534 OFFCURVE",
"158 534 CURVE SMOOTH",
"151 533 OFFCURVE",
"155 523 OFFCURVE",
"158 523 CURVE",
"167 526 OFFCURVE",
"205 527 OFFCURVE",
"214 527 CURVE SMOOTH",
"226 527 OFFCURVE",
"230 522 OFFCURVE",
"230 514 CURVE SMOOTH",
"230 496 OFFCURVE",
"157 308 OFFCURVE",
"149 288 CURVE SMOOTH",
"122 222 OFFCURVE",
"92 156 OFFCURVE",
"64 93 CURVE SMOOTH",
"42 44 OFFCURVE",
"33 20 OFFCURVE",
"33 9 CURVE SMOOTH",
"33 -3 OFFCURVE",
"43 -2 OFFCURVE",
"52 0 CURVE",
"74 2 OFFCURVE",
"127 -1 OFFCURVE",
"152 0 CURVE SMOOTH",
"156 0 OFFCURVE",
"161 8 OFFCURVE",
"157 7 CURVE SMOOTH",
"141 5 OFFCURVE",
"105 5 OFFCURVE",
"88 11 CURVE SMOOTH",
"77 15 OFFCURVE",
"71 24 OFFCURVE",
"70 36 CURVE SMOOTH",
"69 48 OFFCURVE",
"74 61 OFFCURVE",
"77 72 CURVE SMOOTH",
"96 128 OFFCURVE",
"130 212 OFFCURVE",
"162 290 CURVE SMOOTH",
"196 372 OFFCURVE",
"234 449 OFFCURVE",
"273 526 CURVE SMOOTH"
);
},
{
closed = 1;
nodes = (
"677 534 OFFCURVE",
"646 532 OFFCURVE",
"619 532 CURVE SMOOTH",
"595 532 OFFCURVE",
"553 533 OFFCURVE",
"533 534 CURVE SMOOTH",
"529 534 OFFCURVE",
"525 525 OFFCURVE",
"530 525 CURVE SMOOTH",
"543 525 OFFCURVE",
"559 527 OFFCURVE",
"574 527 CURVE SMOOTH",
"593 527 OFFCURVE",
"601 512 OFFCURVE",
"593 484 CURVE SMOOTH",
"581 443 OFFCURVE",
"530 283 OFFCURVE",
"492 185 CURVE SMOOTH",
"449 74 OFFCURVE",
"388 -32 OFFCURVE",
"274 -32 CURVE SMOOTH",
"230 -32 OFFCURVE",
"189 -5 OFFCURVE",
"189 50 CURVE SMOOTH",
"189 81 OFFCURVE",
"198 92 OFFCURVE",
"214 114 CURVE SMOOTH",
"218 119 OFFCURVE",
"212 121 OFFCURVE",
"207 115 CURVE SMOOTH",
"189 91 OFFCURVE",
"177 58 OFFCURVE",
"177 28 CURVE SMOOTH",
"177 -30 OFFCURVE",
"219 -53 OFFCURVE",
"265 -53 CURVE SMOOTH",
"389 -53 OFFCURVE",
"460 63 OFFCURVE",
"506 184 CURVE SMOOTH",
"541 277 OFFCURVE",
"607 457 OFFCURVE",
"617 481 CURVE SMOOTH",
"628 509 OFFCURVE",
"633 521 OFFCURVE",
"668 526 CURVE SMOOTH",
"679 527 OFFCURVE",
"692 527 OFFCURVE",
"701 527 CURVE SMOOTH",
"703 527 OFFCURVE",
"707 534 OFFCURVE",
"704 534 CURVE SMOOTH"
);
}
);
width = 593;
}
);
note = IJ;
unicode = 0132;
},
{
color = 11;
glyphname = Iacute;
lastChange = "2021-07-14 20:19:39 +0000";
layers = (
{
hints = (
{
horizontal = 1;
place = "{-2, 21}";
target = up;
type = BottomGhost;
},
{
horizontal = 1;
place = "{426, 8}";
type = Stem;
},
{
place = "{62, 341}";
type = Stem;
},
{
horizontal = 1;
place = "{545, 103}";
type = Stem;
},
{
place = "{184, 151}";
type = Stem;
}
);
layerId = "DB049CBD-EE5A-4C6A-B8D5-3A4D87564362";
paths = (
{
closed = 1;
nodes = (
"280 539 OFFCURVE",
"254 534 OFFCURVE",
"249 534 CURVE SMOOTH",
"228 532 OFFCURVE",
"159 534 OFFCURVE",
"158 534 CURVE SMOOTH",
"151 533 OFFCURVE",
"155 523 OFFCURVE",
"158 523 CURVE",
"167 526 OFFCURVE",
"205 527 OFFCURVE",
"214 527 CURVE SMOOTH",
"226 527 OFFCURVE",
"230 522 OFFCURVE",
"230 514 CURVE SMOOTH",
"230 496 OFFCURVE",
"157 308 OFFCURVE",
"149 288 CURVE SMOOTH",
"122 222 OFFCURVE",
"92 156 OFFCURVE",
"64 93 CURVE SMOOTH",
"42 44 OFFCURVE",
"33 20 OFFCURVE",
"33 9 CURVE SMOOTH",
"33 -3 OFFCURVE",
"43 -2 OFFCURVE",
"52 0 CURVE",
"74 2 OFFCURVE",
"127 -1 OFFCURVE",
"152 0 CURVE SMOOTH",
"156 0 OFFCURVE",
"161 8 OFFCURVE",
"157 7 CURVE SMOOTH",
"141 5 OFFCURVE",
"105 5 OFFCURVE",
"88 11 CURVE SMOOTH",
"77 15 OFFCURVE",
"71 24 OFFCURVE",
"70 36 CURVE SMOOTH",
"69 48 OFFCURVE",
"74 61 OFFCURVE",
"77 72 CURVE SMOOTH",
"96 128 OFFCURVE",
"130 212 OFFCURVE",
"162 290 CURVE SMOOTH",
"196 372 OFFCURVE",
"234 449 OFFCURVE",
"273 526 CURVE SMOOTH"
);
},
{
closed = 1;
nodes = (
"238 576 OFFCURVE",
"306 614 OFFCURVE",
"318 623 CURVE SMOOTH",
"321 625 OFFCURVE",
"315 637 OFFCURVE",
"313 635 CURVE",
"223 572 LINE SMOOTH",
"220 570 OFFCURVE",
"219 562 OFFCURVE",
"223 565 CURVE SMOOTH"
);
}
);
width = 219;
}
);
note = Iacute;
unicode = 00CD;
},
{
color = 11;
glyphname = Ibreve;
lastChange = "2021-07-14 20:19:39 +0000";
layers = (
{
hints = (
{
horizontal = 1;
place = "{-2, 21}";
target = up;
type = BottomGhost;
},
{
horizontal = 1;
place = "{426, 8}";
type = Stem;
},
{
place = "{62, 341}";
type = Stem;
}
);
layerId = "DB049CBD-EE5A-4C6A-B8D5-3A4D87564362";
paths = (
{
closed = 1;
nodes = (
"280 539 OFFCURVE",
"254 534 OFFCURVE",
"249 534 CURVE SMOOTH",
"228 532 OFFCURVE",
"159 534 OFFCURVE",
"158 534 CURVE SMOOTH",
"151 533 OFFCURVE",
"155 523 OFFCURVE",
"158 523 CURVE",
"167 526 OFFCURVE",
"205 527 OFFCURVE",
"214 527 CURVE SMOOTH",
"226 527 OFFCURVE",
"230 522 OFFCURVE",
"230 514 CURVE SMOOTH",
"230 496 OFFCURVE",
"157 308 OFFCURVE",
"149 288 CURVE SMOOTH",
"122 222 OFFCURVE",
"92 156 OFFCURVE",
"64 93 CURVE SMOOTH",
"42 44 OFFCURVE",
"33 20 OFFCURVE",
"33 9 CURVE SMOOTH",
"33 -3 OFFCURVE",
"43 -2 OFFCURVE",
"52 0 CURVE",
"74 2 OFFCURVE",
"127 -1 OFFCURVE",
"152 0 CURVE SMOOTH",
"156 0 OFFCURVE",
"161 8 OFFCURVE",
"157 7 CURVE SMOOTH",
"141 5 OFFCURVE",
"105 5 OFFCURVE",
"88 11 CURVE SMOOTH",
"77 15 OFFCURVE",
"71 24 OFFCURVE",
"70 36 CURVE SMOOTH",
"69 48 OFFCURVE",
"74 61 OFFCURVE",
"77 72 CURVE SMOOTH",
"96 128 OFFCURVE",
"130 212 OFFCURVE",
"162 290 CURVE SMOOTH",
"196 372 OFFCURVE",
"234 449 OFFCURVE",
"273 526 CURVE SMOOTH"
);
},
{
closed = 1;
nodes = (
"349 651 OFFCURVE",
"348 651 OFFCURVE",
"346 651 CURVE SMOOTH",
"344 651 LINE",
"324 630 OFFCURVE",
"305 601 OFFCURVE",
"271 601 CURVE SMOOTH",
"245 601 OFFCURVE",
"239 622 OFFCURVE",
"239 644 CURVE SMOOTH",
"239 647 OFFCURVE",
"238 650 OFFCURVE",
"234 650 CURVE SMOOTH",
"224 650 OFFCURVE",
"216 640 OFFCURVE",
"216 630 CURVE SMOOTH",
"216 604 OFFCURVE",
"233 587 OFFCURVE",
"259 587 CURVE SMOOTH",
"290 587 OFFCURVE",
"321 608 OFFCURVE",
"340 632 CURVE SMOOTH",
"343 636 OFFCURVE",
"349 644 OFFCURVE",
"349 649 CURVE SMOOTH"
);
}
);
width = 219;
}
);
note = Ibreve;
unicode = 012C;
},
{
color = 11;
glyphname = Icircumflex;
lastChange = "2021-07-14 20:19:39 +0000";
layers = (
{
hints = (
{
horizontal = 1;
place = "{-2, 21}";
target = up;
type = BottomGhost;
},
{
horizontal = 1;
place = "{146, 21}";
target = up;
type = BottomGhost;
},
{
horizontal = 1;
place = "{426, 8}";
type = Stem;
},
{
horizontal = 1;
place = "{675, 7}";
type = Stem;
},
{
horizontal = 1;
place = "{685, -20}";
target = down;
type = TopGhost;
},
{
place = "{62, 341}";
type = Stem;
},
{
place = "{128, 222}";
type = Stem;
},
{
place = "{302, 48}";
type = Stem;
}
);
layerId = "DB049CBD-EE5A-4C6A-B8D5-3A4D87564362";
paths = (
{
closed = 1;
nodes = (
"280 539 OFFCURVE",
"254 534 OFFCURVE",
"249 534 CURVE SMOOTH",
"228 532 OFFCURVE",
"159 534 OFFCURVE",
"158 534 CURVE SMOOTH",
"151 533 OFFCURVE",
"155 523 OFFCURVE",
"158 523 CURVE",
"167 526 OFFCURVE",
"205 527 OFFCURVE",
"214 527 CURVE SMOOTH",
"226 527 OFFCURVE",
"230 522 OFFCURVE",
"230 514 CURVE SMOOTH",
"230 496 OFFCURVE",
"157 308 OFFCURVE",
"149 288 CURVE SMOOTH",
"122 222 OFFCURVE",
"92 156 OFFCURVE",
"64 93 CURVE SMOOTH",
"42 44 OFFCURVE",
"33 20 OFFCURVE",
"33 9 CURVE SMOOTH",
"33 -3 OFFCURVE",
"43 -2 OFFCURVE",
"52 0 CURVE",
"74 2 OFFCURVE",
"127 -1 OFFCURVE",
"152 0 CURVE SMOOTH",
"156 0 OFFCURVE",
"161 8 OFFCURVE",
"157 7 CURVE SMOOTH",
"141 5 OFFCURVE",
"105 5 OFFCURVE",
"88 11 CURVE SMOOTH",
"77 15 OFFCURVE",
"71 24 OFFCURVE",
"70 36 CURVE SMOOTH",
"69 48 OFFCURVE",
"74 61 OFFCURVE",
"77 72 CURVE SMOOTH",
"96 128 OFFCURVE",
"130 212 OFFCURVE",
"162 290 CURVE SMOOTH",
"196 372 OFFCURVE",
"234 449 OFFCURVE",
"273 526 CURVE SMOOTH"
);
},
{
closed = 1;
nodes = (
"187 570 OFFCURVE",
"188 554 OFFCURVE",
"192 559 CURVE SMOOTH",
"211 583 OFFCURVE",
"250 635 OFFCURVE",
"260 645 CURVE",
"265 636 OFFCURVE",
"291 570 OFFCURVE",
"291 562 CURVE",
"305 562 LINE",
"302 568 OFFCURVE",
"278 623 OFFCURVE",
"268 654 CURVE",
"260 654 LINE",
"260 654 OFFCURVE",
"204 586 OFFCURVE",
"190 571 CURVE"
);
}
);
width = 219;
}
);
note = Icircumflex;
unicode = 00CE;
},
{
color = 11;
glyphname = Idieresis;
lastChange = "2021-07-14 20:19:39 +0000";
layers = (
{
hints = (
{
horizontal = 1;
place = "{-2, 21}";
target = up;
type = BottomGhost;
},
{
horizontal = 1;
place = "{426, 8}";
type = Stem;
},
{
horizontal = 1;
place = "{567, 55}";
type = Stem;
},
{
place = "{62, 341}";
type = Stem;
},
{
place = "{160, 173}";
type = Stem;
},
{
place = "{285, 48}";
type = Stem;
}
);
layerId = "DB049CBD-EE5A-4C6A-B8D5-3A4D87564362";
paths = (
{
closed = 1;
nodes = (
"280 539 OFFCURVE",
"254 534 OFFCURVE",
"249 534 CURVE SMOOTH",
"228 532 OFFCURVE",
"159 534 OFFCURVE",
"158 534 CURVE SMOOTH",
"151 533 OFFCURVE",
"155 523 OFFCURVE",
"158 523 CURVE",
"167 526 OFFCURVE",
"205 527 OFFCURVE",
"214 527 CURVE SMOOTH",
"226 527 OFFCURVE",
"230 522 OFFCURVE",
"230 514 CURVE SMOOTH",
"230 496 OFFCURVE",
"157 308 OFFCURVE",
"149 288 CURVE SMOOTH",
"122 222 OFFCURVE",
"92 156 OFFCURVE",
"64 93 CURVE SMOOTH",
"42 44 OFFCURVE",
"33 20 OFFCURVE",
"33 9 CURVE SMOOTH",
"33 -3 OFFCURVE",
"43 -2 OFFCURVE",
"52 0 CURVE",
"74 2 OFFCURVE",
"127 -1 OFFCURVE",
"152 0 CURVE SMOOTH",
"156 0 OFFCURVE",
"161 8 OFFCURVE",
"157 7 CURVE SMOOTH",
"141 5 OFFCURVE",
"105 5 OFFCURVE",
"88 11 CURVE SMOOTH",
"77 15 OFFCURVE",
"71 24 OFFCURVE",
"70 36 CURVE SMOOTH",
"69 48 OFFCURVE",
"74 61 OFFCURVE",
"77 72 CURVE SMOOTH",
"96 128 OFFCURVE",
"130 212 OFFCURVE",
"162 290 CURVE SMOOTH",
"196 372 OFFCURVE",
"234 449 OFFCURVE",
"273 526 CURVE SMOOTH"
);
},
{
closed = 1;
nodes = (
"312 622 OFFCURVE",
"279 608 OFFCURVE",
"275 589 CURVE SMOOTH",
"272 578 OFFCURVE",
"285 567 OFFCURVE",
"296 579 CURVE SMOOTH",
"302 585 OFFCURVE",
"310 599 OFFCURVE",
"311 608 CURVE SMOOTH"
);
},
{
closed = 1;
nodes = (
"233 622 OFFCURVE",
"200 608 OFFCURVE",
"196 589 CURVE",
"192 578 OFFCURVE",
"205 567 OFFCURVE",
"215 579 CURVE SMOOTH",
"221 585 OFFCURVE",
"230 599 OFFCURVE",
"231 608 CURVE SMOOTH"
);
}
);
width = 219;
}
);
note = Idieresis;
unicode = 00CF;
},
{
color = 11;
glyphname = Idotaccent;
lastChange = "2021-07-14 20:19:39 +0000";
layers = (
{
hints = (
{
horizontal = 1;
place = "{-2, 21}";
target = up;
type = BottomGhost;
},
{
horizontal = 1;
place = "{426, 8}";
type = Stem;
},
{
place = "{62, 341}";
type = Stem;
}
);
layerId = "DB049CBD-EE5A-4C6A-B8D5-3A4D87564362";
paths = (
{
closed = 1;
nodes = (
"280 539 OFFCURVE",
"254 534 OFFCURVE",
"249 534 CURVE SMOOTH",
"228 532 OFFCURVE",
"159 534 OFFCURVE",
"158 534 CURVE SMOOTH",
"151 533 OFFCURVE",
"155 523 OFFCURVE",
"158 523 CURVE",
"167 526 OFFCURVE",
"205 527 OFFCURVE",
"214 527 CURVE SMOOTH",
"226 527 OFFCURVE",
"230 522 OFFCURVE",
"230 514 CURVE SMOOTH",
"230 496 OFFCURVE",
"157 308 OFFCURVE",
"149 288 CURVE SMOOTH",
"122 222 OFFCURVE",
"92 156 OFFCURVE",
"64 93 CURVE SMOOTH",
"42 44 OFFCURVE",
"33 20 OFFCURVE",
"33 9 CURVE SMOOTH",
"33 -3 OFFCURVE",
"43 -2 OFFCURVE",
"52 0 CURVE",
"74 2 OFFCURVE",
"127 -1 OFFCURVE",
"152 0 CURVE SMOOTH",
"156 0 OFFCURVE",
"161 8 OFFCURVE",
"157 7 CURVE SMOOTH",
"141 5 OFFCURVE",
"105 5 OFFCURVE",
"88 11 CURVE SMOOTH",
"77 15 OFFCURVE",
"71 24 OFFCURVE",
"70 36 CURVE SMOOTH",
"69 48 OFFCURVE",
"74 61 OFFCURVE",
"77 72 CURVE SMOOTH",
"96 128 OFFCURVE",
"130 212 OFFCURVE",
"162 290 CURVE SMOOTH",
"196 372 OFFCURVE",
"234 449 OFFCURVE",
"273 526 CURVE SMOOTH"
);
},
{
closed = 1;
nodes = (
"316 659 OFFCURVE",
"271 641 OFFCURVE",
"265 614 CURVE SMOOTH",
"261 598 OFFCURVE",
"279 584 OFFCURVE",
"293 599 CURVE SMOOTH",
"301 608 OFFCURVE",
"312 628 OFFCURVE",
"313 639 CURVE SMOOTH"
);
}
);
width = 219;
}
);
note = Idotaccent;
unicode = 0130;
},
{
color = 11;
glyphname = Igrave;
lastChange = "2021-07-14 20:19:39 +0000";
layers = (
{
hints = (
{
horizontal = 1;
place = "{-2, 21}";
target = up;
type = BottomGhost;
},
{
horizontal = 1;
place = "{426, 8}";
type = Stem;
},
{
horizontal = 1;
place = "{548, 117}";
type = Stem;
},
{
horizontal = 1;
place = "{557, 103}";
type = Stem;
},
{
place = "{62, 341}";
type = Stem;
},
{
place = "{132, 151}";
type = Stem;
},
{
place = "{185, 76}";
type = Stem;
}
);
layerId = "DB049CBD-EE5A-4C6A-B8D5-3A4D87564362";
paths = (
{
closed = 1;
nodes = (
"280 539 OFFCURVE",
"254 534 OFFCURVE",
"249 534 CURVE SMOOTH",
"228 532 OFFCURVE",
"159 534 OFFCURVE",
"158 534 CURVE SMOOTH",
"151 533 OFFCURVE",
"155 523 OFFCURVE",
"158 523 CURVE",
"167 526 OFFCURVE",
"205 527 OFFCURVE",
"214 527 CURVE SMOOTH",
"226 527 OFFCURVE",
"230 522 OFFCURVE",
"230 514 CURVE SMOOTH",
"230 496 OFFCURVE",
"157 308 OFFCURVE",
"149 288 CURVE SMOOTH",
"122 222 OFFCURVE",
"92 156 OFFCURVE",
"64 93 CURVE SMOOTH",
"42 44 OFFCURVE",
"33 20 OFFCURVE",
"33 9 CURVE SMOOTH",
"33 -3 OFFCURVE",
"43 -2 OFFCURVE",
"52 0 CURVE",
"74 2 OFFCURVE",
"127 -1 OFFCURVE",
"152 0 CURVE SMOOTH",
"156 0 OFFCURVE",
"161 8 OFFCURVE",
"157 7 CURVE SMOOTH",
"141 5 OFFCURVE",
"105 5 OFFCURVE",
"88 11 CURVE SMOOTH",
"77 15 OFFCURVE",
"71 24 OFFCURVE",
"70 36 CURVE SMOOTH",
"69 48 OFFCURVE",
"74 61 OFFCURVE",
"77 72 CURVE SMOOTH",
"96 128 OFFCURVE",
"130 212 OFFCURVE",
"162 290 CURVE SMOOTH",
"196 372 OFFCURVE",
"234 449 OFFCURVE",
"273 526 CURVE SMOOTH"
);
},
{
closed = 1;
nodes = (
"247 573 OFFCURVE",
"209 641 OFFCURVE",
"200 653 CURVE SMOOTH",
"198 656 OFFCURVE",
"186 650 OFFCURVE",
"188 648 CURVE",
"251 558 LINE SMOOTH",
"253 555 OFFCURVE",
"261 554 OFFCURVE",
"258 558 CURVE SMOOTH"
);
}
);
width = 219;
}
);
note = Igrave;
unicode = 00CC;
},
{
color = 11;
glyphname = Imacron;
lastChange = "2021-07-14 20:19:39 +0000";
layers = (
{
hints = (
{
horizontal = 1;
place = "{-2, 21}";
target = up;
type = BottomGhost;
},
{
horizontal = 1;
place = "{426, 8}";
type = Stem;
},
{
place = "{62, 341}";
type = Stem;
},
{
horizontal = 1;
place = "{361, 16}";
type = Stem;
},
{
place = "{120, 197}";
type = Stem;
}
);
layerId = "DB049CBD-EE5A-4C6A-B8D5-3A4D87564362";
paths = (
{
closed = 1;
nodes = (
"280 539 OFFCURVE",
"254 534 OFFCURVE",
"249 534 CURVE SMOOTH",
"228 532 OFFCURVE",
"159 534 OFFCURVE",
"158 534 CURVE SMOOTH",
"151 533 OFFCURVE",
"155 523 OFFCURVE",
"158 523 CURVE",
"167 526 OFFCURVE",
"205 527 OFFCURVE",
"214 527 CURVE SMOOTH",
"226 527 OFFCURVE",
"230 522 OFFCURVE",
"230 514 CURVE SMOOTH",
"230 496 OFFCURVE",
"157 308 OFFCURVE",
"149 288 CURVE SMOOTH",
"122 222 OFFCURVE",
"92 156 OFFCURVE",
"64 93 CURVE SMOOTH",
"42 44 OFFCURVE",
"33 20 OFFCURVE",
"33 9 CURVE SMOOTH",
"33 -3 OFFCURVE",
"43 -2 OFFCURVE",
"52 0 CURVE",
"74 2 OFFCURVE",
"127 -1 OFFCURVE",
"152 0 CURVE SMOOTH",
"156 0 OFFCURVE",
"161 8 OFFCURVE",
"157 7 CURVE SMOOTH",
"141 5 OFFCURVE",
"105 5 OFFCURVE",
"88 11 CURVE SMOOTH",
"77 15 OFFCURVE",
"71 24 OFFCURVE",
"70 36 CURVE SMOOTH",
"69 48 OFFCURVE",
"74 61 OFFCURVE",
"77 72 CURVE SMOOTH",
"96 128 OFFCURVE",
"130 212 OFFCURVE",
"162 290 CURVE SMOOTH",
"196 372 OFFCURVE",
"234 449 OFFCURVE",
"273 526 CURVE SMOOTH"
);
},
{
closed = 1;
nodes = (
"196 603 LINE SMOOTH",
"193 603 OFFCURVE",
"188 586 OFFCURVE",
"191 587 CURVE",
"207 588 OFFCURVE",
"295 587 OFFCURVE",
"314 587 CURVE SMOOTH",
"316 587 OFFCURVE",
"321 603 OFFCURVE",
"318 603 CURVE SMOOTH"
);
}
);
width = 219;
}
);
note = Imacron;
unicode = 012A;
},
{
color = 11;
glyphname = Iogonek;
lastChange = "2021-07-14 20:19:39 +0000";
layers = (
{
hints = (
{
horizontal = 1;
place = "{-2, 21}";
target = up;
type = BottomGhost;
},
{
horizontal = 1;
place = "{426, 8}";
type = Stem;
},
{
place = "{62, 341}";
type = Stem;
}
);
layerId = "DB049CBD-EE5A-4C6A-B8D5-3A4D87564362";
paths = (
{
closed = 1;
nodes = (
"280 539 OFFCURVE",
"254 534 OFFCURVE",
"249 534 CURVE SMOOTH",
"228 532 OFFCURVE",
"159 534 OFFCURVE",
"158 534 CURVE SMOOTH",
"151 533 OFFCURVE",
"155 523 OFFCURVE",
"158 523 CURVE",
"167 526 OFFCURVE",
"205 527 OFFCURVE",
"214 527 CURVE SMOOTH",
"226 527 OFFCURVE",
"230 522 OFFCURVE",
"230 514 CURVE SMOOTH",
"230 496 OFFCURVE",
"157 308 OFFCURVE",
"149 288 CURVE SMOOTH",
"122 222 OFFCURVE",
"92 156 OFFCURVE",
"64 93 CURVE SMOOTH",
"42 44 OFFCURVE",
"33 20 OFFCURVE",
"33 9 CURVE SMOOTH",
"33 -3 OFFCURVE",
"43 -2 OFFCURVE",
"52 0 CURVE",
"74 2 OFFCURVE",
"127 -1 OFFCURVE",
"152 0 CURVE SMOOTH",
"156 0 OFFCURVE",
"161 8 OFFCURVE",
"157 7 CURVE SMOOTH",
"141 5 OFFCURVE",
"105 5 OFFCURVE",
"88 11 CURVE SMOOTH",
"77 15 OFFCURVE",
"71 24 OFFCURVE",
"70 36 CURVE SMOOTH",
"69 48 OFFCURVE",
"74 61 OFFCURVE",
"77 72 CURVE SMOOTH",
"96 128 OFFCURVE",
"130 212 OFFCURVE",
"162 290 CURVE SMOOTH",
"196 372 OFFCURVE",
"234 449 OFFCURVE",
"273 526 CURVE SMOOTH"
);
},
{
closed = 1;
nodes = (
"84 -101 OFFCURVE",
"80 -94 OFFCURVE",
"79 -96 CURVE SMOOTH",
"65 -115 OFFCURVE",
"41 -150 OFFCURVE",
"21 -163 CURVE SMOOTH",
"4 -174 OFFCURVE",
"-5 -173 OFFCURVE",
"-5 -152 CURVE SMOOTH",
"-5 -86 OFFCURVE",
"41 -25 OFFCURVE",
"73 -6 CURVE",
"78 -4 OFFCURVE",
"78 8 OFFCURVE",
"71 3 CURVE SMOOTH",
"23 -34 OFFCURVE",
"-22 -104 OFFCURVE",
"-22 -164 CURVE SMOOTH",
"-22 -195 OFFCURVE",
"2 -184 OFFCURVE",
"21 -169 CURVE SMOOTH",
"41 -154 OFFCURVE",
"66 -125 OFFCURVE",
"80 -106 CURVE SMOOTH"
);
}
);
width = 219;
}
);
note = Iogonek;
unicode = 012E;
},
{
color = 11;
glyphname = Itilde;
lastChange = "2021-07-14 20:19:39 +0000";
layers = (
{
hints = (
{
horizontal = 1;
place = "{-2, 21}";
target = up;
type = BottomGhost;
},
{
horizontal = 1;
place = "{426, 8}";
type = Stem;
},
{
place = "{62, 341}";
type = Stem;
},
{
horizontal = 1;
place = "{585, 15}";
type = Stem;
},
{
horizontal = 1;
place = "{623, 15}";
type = Stem;
},
{
place = "{168, 204}";
type = Stem;
}
);
layerId = "DB049CBD-EE5A-4C6A-B8D5-3A4D87564362";
paths = (
{
closed = 1;
nodes = (
"280 539 OFFCURVE",
"254 534 OFFCURVE",
"249 534 CURVE SMOOTH",
"228 532 OFFCURVE",
"159 534 OFFCURVE",
"158 534 CURVE SMOOTH",
"151 533 OFFCURVE",
"155 523 OFFCURVE",
"158 523 CURVE",
"167 526 OFFCURVE",
"205 527 OFFCURVE",
"214 527 CURVE SMOOTH",
"226 527 OFFCURVE",
"230 522 OFFCURVE",
"230 514 CURVE SMOOTH",
"230 496 OFFCURVE",
"157 308 OFFCURVE",
"149 288 CURVE SMOOTH",
"122 222 OFFCURVE",
"92 156 OFFCURVE",
"64 93 CURVE SMOOTH",
"42 44 OFFCURVE",
"33 20 OFFCURVE",
"33 9 CURVE SMOOTH",
"33 -3 OFFCURVE",
"43 -2 OFFCURVE",
"52 0 CURVE",
"74 2 OFFCURVE",
"127 -1 OFFCURVE",
"152 0 CURVE SMOOTH",
"156 0 OFFCURVE",
"161 8 OFFCURVE",
"157 7 CURVE SMOOTH",
"141 5 OFFCURVE",
"105 5 OFFCURVE",
"88 11 CURVE SMOOTH",
"77 15 OFFCURVE",
"71 24 OFFCURVE",
"70 36 CURVE SMOOTH",
"69 48 OFFCURVE",
"74 61 OFFCURVE",
"77 72 CURVE SMOOTH",
"96 128 OFFCURVE",
"130 212 OFFCURVE",
"162 290 CURVE SMOOTH",
"196 372 OFFCURVE",
"234 449 OFFCURVE",
"273 526 CURVE SMOOTH"
);
},
{
closed = 1;
nodes = (
"357 622 OFFCURVE",
"357 630 OFFCURVE",
"356 627 CURVE SMOOTH",
"338 590 OFFCURVE",
"318 593 OFFCURVE",
"272 624 CURVE SMOOTH",
"229 653 OFFCURVE",
"200 629 OFFCURVE",
"187 598 CURVE SMOOTH",
"186 595 OFFCURVE",
"186 587 OFFCURVE",
"187 590 CURVE SMOOTH",
"200 620 OFFCURVE",
"222 637 OFFCURVE",
"263 609 CURVE SMOOTH",
"309 578 OFFCURVE",
"338 577 OFFCURVE",
"356 619 CURVE SMOOTH"
);
}
);
width = 219;
}
);
note = Itilde;
unicode = 0128;
},
{
color = 5;
glyphname = J;
lastChange = "2021-04-20 17:45:09 +0000";
layers = (
{
hints = (
{
horizontal = 1;
place = "{-53, 12}";
type = Stem;
},
{
horizontal = 1;
place = "{492, 8}";
type = Stem;
},
{
place = "{-163, 9}";
type = Stem;
},
{
place = "{128, 16}";
type = Stem;
}
);
layerId = "DB049CBD-EE5A-4C6A-B8D5-3A4D87564362";
paths = (
{
closed = 1;
nodes = (
"458 534 OFFCURVE",
"427 532 OFFCURVE",
"400 532 CURVE SMOOTH",
"376 532 OFFCURVE",
"334 533 OFFCURVE",
"314 534 CURVE SMOOTH",
"310 534 OFFCURVE",
"306 525 OFFCURVE",
"311 525 CURVE SMOOTH",
"324 525 OFFCURVE",
"340 527 OFFCURVE",
"355 527 CURVE SMOOTH",
"374 527 OFFCURVE",
"382 512 OFFCURVE",
"374 484 CURVE SMOOTH",
"362 443 OFFCURVE",
"311 283 OFFCURVE",
"273 185 CURVE SMOOTH",
"230 74 OFFCURVE",
"169 -32 OFFCURVE",
"55 -32 CURVE SMOOTH",
"11 -32 OFFCURVE",
"-30 -5 OFFCURVE",
"-30 50 CURVE SMOOTH",
"-30 81 OFFCURVE",
"-21 92 OFFCURVE",
"-5 114 CURVE SMOOTH",
"-1 119 OFFCURVE",
"-7 121 OFFCURVE",
"-12 115 CURVE SMOOTH",
"-30 91 OFFCURVE",
"-42 58 OFFCURVE",
"-42 28 CURVE SMOOTH",
"-42 -30 OFFCURVE",
"0 -53 OFFCURVE",
"46 -53 CURVE SMOOTH",
"170 -53 OFFCURVE",
"241 63 OFFCURVE",
"287 184 CURVE SMOOTH",
"322 277 OFFCURVE",
"388 457 OFFCURVE",
"398 481 CURVE SMOOTH",
"409 509 OFFCURVE",
"414 521 OFFCURVE",
"449 526 CURVE SMOOTH",
"460 527 OFFCURVE",
"473 527 OFFCURVE",
"482 527 CURVE SMOOTH",
"484 527 OFFCURVE",
"488 534 OFFCURVE",
"485 534 CURVE SMOOTH"
);
}
);
width = 374;
}
);
note = J;
unicode = 004A;
},
{
color = 11;
glyphname = Jcircumflex;
lastChange = "2021-07-14 20:19:39 +0000";
layers = (
{
hints = (
{
horizontal = 1;
place = "{-53, 12}";
type = Stem;
},
{
horizontal = 1;
place = "{148, 21}";
target = up;
type = BottomGhost;
},
{
horizontal = 1;
place = "{492, 8}";
type = Stem;
},
{
horizontal = 1;
place = "{677, 7}";
type = Stem;
},
{
horizontal = 1;
place = "{687, -20}";
target = down;
type = TopGhost;
},
{
place = "{-163, 9}";
type = Stem;
},
{
place = "{128, 16}";
type = Stem;
},
{
place = "{312, 222}";
type = Stem;
},
{
place = "{486, 48}";
type = Stem;
}
);
layerId = "DB049CBD-EE5A-4C6A-B8D5-3A4D87564362";
paths = (
{
closed = 1;
nodes = (
"458 534 OFFCURVE",
"427 532 OFFCURVE",
"400 532 CURVE SMOOTH",
"376 532 OFFCURVE",
"334 533 OFFCURVE",
"314 534 CURVE SMOOTH",
"310 534 OFFCURVE",
"306 525 OFFCURVE",
"311 525 CURVE SMOOTH",
"324 525 OFFCURVE",
"340 527 OFFCURVE",
"355 527 CURVE SMOOTH",
"374 527 OFFCURVE",
"382 512 OFFCURVE",
"374 484 CURVE SMOOTH",
"362 443 OFFCURVE",
"311 283 OFFCURVE",
"273 185 CURVE SMOOTH",
"230 74 OFFCURVE",
"169 -32 OFFCURVE",
"55 -32 CURVE SMOOTH",
"11 -32 OFFCURVE",
"-30 -5 OFFCURVE",
"-30 50 CURVE SMOOTH",
"-30 81 OFFCURVE",
"-21 92 OFFCURVE",
"-5 114 CURVE SMOOTH",
"-1 119 OFFCURVE",
"-7 121 OFFCURVE",
"-12 115 CURVE SMOOTH",
"-30 91 OFFCURVE",
"-42 58 OFFCURVE",
"-42 28 CURVE SMOOTH",
"-42 -30 OFFCURVE",
"0 -53 OFFCURVE",
"46 -53 CURVE SMOOTH",
"170 -53 OFFCURVE",
"241 63 OFFCURVE",
"287 184 CURVE SMOOTH",
"322 277 OFFCURVE",
"388 457 OFFCURVE",
"398 481 CURVE SMOOTH",
"409 509 OFFCURVE",
"414 521 OFFCURVE",
"449 526 CURVE SMOOTH",
"460 527 OFFCURVE",
"473 527 OFFCURVE",
"482 527 CURVE SMOOTH",
"484 527 OFFCURVE",
"488 534 OFFCURVE",
"485 534 CURVE SMOOTH"
);
},
{
closed = 1;
nodes = (
"371 572 OFFCURVE",
"372 556 OFFCURVE",
"376 561 CURVE SMOOTH",
"395 585 OFFCURVE",
"434 637 OFFCURVE",
"444 647 CURVE",
"449 638 OFFCURVE",
"475 572 OFFCURVE",
"475 564 CURVE",
"489 564 LINE",
"486 570 OFFCURVE",
"462 625 OFFCURVE",
"452 656 CURVE",
"444 656 LINE",
"444 656 OFFCURVE",
"388 588 OFFCURVE",
"374 573 CURVE"
);
}
);
width = 374;
}
);
note = Jcircumflex;
unicode = 0134;
},
{
color = 5;
glyphname = K;
lastChange = "2021-04-20 17:45:09 +0000";
layers = (
{
hints = (
{
horizontal = 1;
place = "{-158, 10}";
type = Stem;
},
{
horizontal = 1;
place = "{0, 21}";
target = up;
type = BottomGhost;
},
{
horizontal = 1;
place = "{430, 8}";
type = Stem;
},
{
horizontal = 1;
place = "{434, 9}";
type = Stem;
},
{
place = "{54, 827}";
type = Stem;
}
);
layerId = "DB049CBD-EE5A-4C6A-B8D5-3A4D87564362";
paths = (
{
closed = 1;
nodes = (
"237 530 OFFCURVE",
"233 530 OFFCURVE",
"226 528 CURVE SMOOTH",
"221 527 OFFCURVE",
"212 526 OFFCURVE",
"207 526 CURVE SMOOTH",
"187 524 OFFCURVE",
"126 525 OFFCURVE",
"126 525 CURVE",
"122 523 OFFCURVE",
"123 520 OFFCURVE",
"126 521 CURVE",
"162 521 LINE SMOOTH",
"191 521 OFFCURVE",
"190 490 OFFCURVE",
"181 459 CURVE SMOOTH",
"166 406 OFFCURVE",
"131 311 OFFCURVE",
"105 242 CURVE SMOOTH",
"71 153 OFFCURVE",
"38 69 OFFCURVE",
"20 32 CURVE SMOOTH",
"16 24 OFFCURVE",
"8 14 OFFCURVE",
"14 1 CURVE SMOOTH",
"17 -5 OFFCURVE",
"25 -22 OFFCURVE",
"31 -4 CURVE SMOOTH",
"60 90 OFFCURVE",
"94 184 OFFCURVE",
"131 276 CURVE",
"207 166 OFFCURVE",
"375 -68 OFFCURVE",
"505 10 CURVE",
"507 12 OFFCURVE",
"505 16 OFFCURVE",
"502 15 CURVE",
"404 -45 OFFCURVE",
"215 185 OFFCURVE",
"149 283 CURVE",
"230 342 OFFCURVE",
"377 437 OFFCURVE",
"460 480 CURVE SMOOTH",
"472 486 OFFCURVE",
"500 504 OFFCURVE",
"522 514 CURVE SMOOTH",
"532 519 OFFCURVE",
"543 522 OFFCURVE",
"548 522 CURVE SMOOTH",
"551 522 OFFCURVE",
"553 526 OFFCURVE",
"549 525 CURVE",
"497 525 LINE SMOOTH",
"495 525 OFFCURVE",
"191 321 OFFCURVE",
"134 284 CURVE",
"166 365 OFFCURVE",
"201 446 OFFCURVE",
"235 526 CURVE SMOOTH"
);
}
);
width = 502;
}
);
note = K;
unicode = 004B;
},
{
color = 11;
glyphname = Kcommaaccent;
lastChange = "2021-07-14 20:19:39 +0000";
layers = (
{
hints = (
{
horizontal = 1;
place = "{-158, 10}";
type = Stem;
},
{
horizontal = 1;
place = "{-91, 17}";
type = Stem;
},
{
horizontal = 1;
place = "{0, 21}";
target = up;
type = BottomGhost;
},
{
horizontal = 1;
place = "{430, 8}";
type = Stem;
},
{
place = "{54, 827}";
type = Stem;
},
{
place = "{141, 72}";
type = Stem;
}
);
layerId = "DB049CBD-EE5A-4C6A-B8D5-3A4D87564362";
paths = (
{
closed = 1;
nodes = (
"237 530 OFFCURVE",
"233 530 OFFCURVE",
"226 528 CURVE SMOOTH",
"221 527 OFFCURVE",
"212 526 OFFCURVE",
"207 526 CURVE SMOOTH",
"187 524 OFFCURVE",
"126 525 OFFCURVE",
"126 525 CURVE",
"122 523 OFFCURVE",
"123 520 OFFCURVE",
"126 521 CURVE",
"162 521 LINE SMOOTH",
"191 521 OFFCURVE",
"190 490 OFFCURVE",
"181 459 CURVE SMOOTH",
"166 406 OFFCURVE",
"131 311 OFFCURVE",
"105 242 CURVE SMOOTH",
"71 153 OFFCURVE",
"38 69 OFFCURVE",
"20 32 CURVE SMOOTH",
"16 24 OFFCURVE",
"8 14 OFFCURVE",
"14 1 CURVE SMOOTH",
"17 -5 OFFCURVE",
"25 -22 OFFCURVE",
"31 -4 CURVE SMOOTH",
"60 90 OFFCURVE",
"94 184 OFFCURVE",
"131 276 CURVE",
"207 166 OFFCURVE",
"375 -68 OFFCURVE",
"505 10 CURVE",
"507 12 OFFCURVE",
"505 16 OFFCURVE",
"502 15 CURVE",
"404 -45 OFFCURVE",
"215 185 OFFCURVE",
"149 283 CURVE",
"230 342 OFFCURVE",
"377 437 OFFCURVE",
"460 480 CURVE SMOOTH",
"472 486 OFFCURVE",
"500 504 OFFCURVE",
"522 514 CURVE SMOOTH",
"532 519 OFFCURVE",
"543 522 OFFCURVE",
"548 522 CURVE SMOOTH",
"551 522 OFFCURVE",
"553 526 OFFCURVE",
"549 525 CURVE",
"497 525 LINE SMOOTH",
"495 525 OFFCURVE",
"191 321 OFFCURVE",
"134 284 CURVE",
"166 365 OFFCURVE",
"201 446 OFFCURVE",
"235 526 CURVE SMOOTH"
);
},
{
closed = 1;
nodes = (
"216 -33 OFFCURVE",
"180 -54 OFFCURVE",
"171 -76 CURVE SMOOTH",
"167 -84 OFFCURVE",
"175 -86 OFFCURVE",
"178 -90 CURVE",
"174 -98 OFFCURVE",
"152 -136 OFFCURVE",
"143 -148 CURVE",
"141 -149 OFFCURVE",
"142 -155 OFFCURVE",
"144 -154 CURVE",
"154 -145 OFFCURVE",
"211 -65 OFFCURVE",
"213 -51 CURVE SMOOTH"
);
}
);
width = 502;
}
);
note = Kcommaaccent;
unicode = 0136;
},
{
color = 5;
glyphname = L;
lastChange = "2021-04-20 17:45:09 +0000";
layers = (
{
hints = (
{
horizontal = 1;
place = "{-3, 20}";
type = Stem;
},
{
horizontal = 1;
place = "{440, 10}";
type = Stem;
},
{
place = "{417, 15}";
type = Stem;
},
{
horizontal = 1;
place = "{-8, 17}";
type = Stem;
},
{
horizontal = 1;
place = "{13, 22}";
type = Stem;
}
);
layerId = "DB049CBD-EE5A-4C6A-B8D5-3A4D87564362";
paths = (
{
closed = 1;
nodes = (
"351 101 OFFCURVE",
"342 102 OFFCURVE",
"342 100 CURVE SMOOTH",
"337 66 OFFCURVE",
"316 37 OFFCURVE",
"310 33 CURVE SMOOTH",
"291 19 OFFCURVE",
"250 13 OFFCURVE",
"208 9 CURVE SMOOTH",
"197 8 OFFCURVE",
"146 7 OFFCURVE",
"118 10 CURVE SMOOTH",
"66 14 OFFCURVE",
"67 34 OFFCURVE",
"80 72 CURVE SMOOTH",
"104 146 OFFCURVE",
"135 220 OFFCURVE",
"166 293 CURVE SMOOTH",
"182 332 OFFCURVE",
"247 487 OFFCURVE",
"267 512 CURVE SMOOTH",
"273 520 OFFCURVE",
"281 523 OFFCURVE",
"299 526 CURVE SMOOTH",
"310 527 OFFCURVE",
"322 527 OFFCURVE",
"331 527 CURVE SMOOTH",
"333 527 OFFCURVE",
"337 534 OFFCURVE",
"334 534 CURVE SMOOTH",
"308 533 OFFCURVE",
"279 532 OFFCURVE",
"250 532 CURVE SMOOTH",
"226 532 OFFCURVE",
"183 533 OFFCURVE",
"163 534 CURVE SMOOTH",
"159 534 OFFCURVE",
"154 525 OFFCURVE",
"159 525 CURVE SMOOTH",
"172 525 OFFCURVE",
"191 526 OFFCURVE",
"206 526 CURVE SMOOTH",
"225 526 OFFCURVE",
"234 523 OFFCURVE",
"225 495 CURVE SMOOTH",
"181 364 OFFCURVE",
"122 220 OFFCURVE",
"66 93 CURVE SMOOTH",
"27 6 OFFCURVE",
"33 -2 OFFCURVE",
"42 -2 CURVE SMOOTH",
"100 -2 OFFCURVE",
"263 -7 OFFCURVE",
"310 2 CURVE SMOOTH",
"322 4 OFFCURVE",
"340 64 OFFCURVE",
"350 97 CURVE SMOOTH"
);
}
);
width = 380;
}
);
note = L;
unicode = 004C;
},
{
color = 11;
glyphname = Lacute;
lastChange = "2021-07-14 20:19:39 +0000";
layers = (
{
hints = (
{
horizontal = 1;
place = "{-3, 20}";
type = Stem;
},
{
horizontal = 1;
place = "{440, 10}";
type = Stem;
},
{
place = "{417, 15}";
type = Stem;
},
{
horizontal = 1;
place = "{-8, 17}";
type = Stem;
},
{
horizontal = 1;
place = "{13, 22}";
type = Stem;
},
{
horizontal = 1;
place = "{568, 103}";
type = Stem;
},
{
place = "{223, 151}";
type = Stem;
}
);
layerId = "DB049CBD-EE5A-4C6A-B8D5-3A4D87564362";
paths = (
{
closed = 1;
nodes = (
"351 101 OFFCURVE",
"342 102 OFFCURVE",
"342 100 CURVE SMOOTH",
"337 66 OFFCURVE",
"316 37 OFFCURVE",
"310 33 CURVE SMOOTH",
"291 19 OFFCURVE",
"250 13 OFFCURVE",
"208 9 CURVE SMOOTH",
"197 8 OFFCURVE",
"146 7 OFFCURVE",
"118 10 CURVE SMOOTH",
"66 14 OFFCURVE",
"67 34 OFFCURVE",
"80 72 CURVE SMOOTH",
"104 146 OFFCURVE",
"135 220 OFFCURVE",
"166 293 CURVE SMOOTH",
"182 332 OFFCURVE",
"247 487 OFFCURVE",
"267 512 CURVE SMOOTH",
"273 520 OFFCURVE",
"281 523 OFFCURVE",
"299 526 CURVE SMOOTH",
"310 527 OFFCURVE",
"322 527 OFFCURVE",
"331 527 CURVE SMOOTH",
"333 527 OFFCURVE",
"337 534 OFFCURVE",
"334 534 CURVE SMOOTH",
"308 533 OFFCURVE",
"279 532 OFFCURVE",
"250 532 CURVE SMOOTH",
"226 532 OFFCURVE",
"183 533 OFFCURVE",
"163 534 CURVE SMOOTH",
"159 534 OFFCURVE",
"154 525 OFFCURVE",
"159 525 CURVE SMOOTH",
"172 525 OFFCURVE",
"191 526 OFFCURVE",
"206 526 CURVE SMOOTH",
"225 526 OFFCURVE",
"234 523 OFFCURVE",
"225 495 CURVE SMOOTH",
"181 364 OFFCURVE",
"122 220 OFFCURVE",
"66 93 CURVE SMOOTH",
"27 6 OFFCURVE",
"33 -2 OFFCURVE",
"42 -2 CURVE SMOOTH",
"100 -2 OFFCURVE",
"263 -7 OFFCURVE",
"310 2 CURVE SMOOTH",
"322 4 OFFCURVE",
"340 64 OFFCURVE",
"350 97 CURVE SMOOTH"
);
},
{
closed = 1;
nodes = (
"277 599 OFFCURVE",
"345 637 OFFCURVE",
"357 646 CURVE SMOOTH",
"360 648 OFFCURVE",
"354 660 OFFCURVE",
"352 658 CURVE",
"262 595 LINE SMOOTH",
"259 593 OFFCURVE",
"258 585 OFFCURVE",
"262 588 CURVE SMOOTH"
);
}
);
width = 380;
}
);
note = Lacute;
unicode = 0139;
},
{
color = 11;
glyphname = Lcaron;
lastChange = "2021-07-29 05:14:13 +0000";
layers = (
{
components = (
{
name = caroncomb.alt;
transform = "{1, 0, 0, 1, 325, -6}";
}
);
hints = (
{
horizontal = 1;
place = "{-3, 20}";
type = Stem;
},
{
horizontal = 1;
place = "{440, 10}";
type = Stem;
},
{
place = "{417, 15}";
type = Stem;
},
{
horizontal = 1;
place = "{-8, 17}";
type = Stem;
},
{
horizontal = 1;
place = "{13, 22}";
type = Stem;
},
{
horizontal = 1;
place = "{446, 130}";
type = Stem;
},
{
place = "{338, 81}";
type = Stem;
}
);
layerId = "DB049CBD-EE5A-4C6A-B8D5-3A4D87564362";
paths = (
{
closed = 1;
nodes = (
"351 101 OFFCURVE",
"342 102 OFFCURVE",
"342 100 CURVE SMOOTH",
"337 66 OFFCURVE",
"316 37 OFFCURVE",
"310 33 CURVE SMOOTH",
"291 19 OFFCURVE",
"250 13 OFFCURVE",
"208 9 CURVE SMOOTH",
"197 8 OFFCURVE",
"146 7 OFFCURVE",
"118 10 CURVE SMOOTH",
"66 14 OFFCURVE",
"67 34 OFFCURVE",
"80 72 CURVE SMOOTH",
"104 146 OFFCURVE",
"135 220 OFFCURVE",
"166 293 CURVE SMOOTH",
"182 332 OFFCURVE",
"247 487 OFFCURVE",
"267 512 CURVE SMOOTH",
"273 520 OFFCURVE",
"281 523 OFFCURVE",
"299 526 CURVE SMOOTH",
"310 527 OFFCURVE",
"322 527 OFFCURVE",
"331 527 CURVE SMOOTH",
"333 527 OFFCURVE",
"337 534 OFFCURVE",
"334 534 CURVE SMOOTH",
"308 533 OFFCURVE",
"279 532 OFFCURVE",
"250 532 CURVE SMOOTH",
"226 532 OFFCURVE",
"183 533 OFFCURVE",
"163 534 CURVE SMOOTH",
"159 534 OFFCURVE",
"154 525 OFFCURVE",
"159 525 CURVE SMOOTH",
"172 525 OFFCURVE",
"191 526 OFFCURVE",
"206 526 CURVE SMOOTH",
"225 526 OFFCURVE",
"234 523 OFFCURVE",
"225 495 CURVE SMOOTH",
"181 364 OFFCURVE",
"122 220 OFFCURVE",
"66 93 CURVE SMOOTH",
"27 6 OFFCURVE",
"33 -2 OFFCURVE",
"42 -2 CURVE SMOOTH",
"100 -2 OFFCURVE",
"263 -7 OFFCURVE",
"310 2 CURVE SMOOTH",
"322 4 OFFCURVE",
"340 64 OFFCURVE",
"350 97 CURVE SMOOTH"
);
}
);
width = 380;
}
);
note = Lcaron;
unicode = 013D;
},
{
color = 11;
glyphname = Lcommaaccent;
lastChange = "2021-07-14 20:19:39 +0000";
layers = (
{
hints = (
{
horizontal = 1;
place = "{-91, 17}";
type = Stem;
},
{
horizontal = 1;
place = "{-3, 20}";
type = Stem;
},
{
horizontal = 1;
place = "{440, 10}";
type = Stem;
},
{
place = "{105, 72}";
type = Stem;
},
{
place = "{417, 15}";
type = Stem;
},
{
horizontal = 1;
place = "{-8, 17}";
type = Stem;
},
{
horizontal = 1;
place = "{13, 22}";
type = Stem;
}
);
layerId = "DB049CBD-EE5A-4C6A-B8D5-3A4D87564362";
paths = (
{
closed = 1;
nodes = (
"351 101 OFFCURVE",
"342 102 OFFCURVE",
"342 100 CURVE SMOOTH",
"337 66 OFFCURVE",
"316 37 OFFCURVE",
"310 33 CURVE SMOOTH",
"291 19 OFFCURVE",
"250 13 OFFCURVE",
"208 9 CURVE SMOOTH",
"197 8 OFFCURVE",
"146 7 OFFCURVE",
"118 10 CURVE SMOOTH",
"66 14 OFFCURVE",
"67 34 OFFCURVE",
"80 72 CURVE SMOOTH",
"104 146 OFFCURVE",
"135 220 OFFCURVE",
"166 293 CURVE SMOOTH",
"182 332 OFFCURVE",
"247 487 OFFCURVE",
"267 512 CURVE SMOOTH",
"273 520 OFFCURVE",
"281 523 OFFCURVE",
"299 526 CURVE SMOOTH",
"310 527 OFFCURVE",
"322 527 OFFCURVE",
"331 527 CURVE SMOOTH",
"333 527 OFFCURVE",
"337 534 OFFCURVE",
"334 534 CURVE SMOOTH",
"308 533 OFFCURVE",
"279 532 OFFCURVE",
"250 532 CURVE SMOOTH",
"226 532 OFFCURVE",
"183 533 OFFCURVE",
"163 534 CURVE SMOOTH",
"159 534 OFFCURVE",
"154 525 OFFCURVE",
"159 525 CURVE SMOOTH",
"172 525 OFFCURVE",
"191 526 OFFCURVE",
"206 526 CURVE SMOOTH",
"225 526 OFFCURVE",
"234 523 OFFCURVE",
"225 495 CURVE SMOOTH",
"181 364 OFFCURVE",
"122 220 OFFCURVE",
"66 93 CURVE SMOOTH",
"27 6 OFFCURVE",
"33 -2 OFFCURVE",
"42 -2 CURVE SMOOTH",
"100 -2 OFFCURVE",
"263 -7 OFFCURVE",
"310 2 CURVE SMOOTH",
"322 4 OFFCURVE",
"340 64 OFFCURVE",
"350 97 CURVE SMOOTH"
);
},
{
closed = 1;
nodes = (
"180 -33 OFFCURVE",
"144 -54 OFFCURVE",
"135 -76 CURVE SMOOTH",
"131 -84 OFFCURVE",
"139 -86 OFFCURVE",
"142 -90 CURVE",
"138 -98 OFFCURVE",
"116 -136 OFFCURVE",
"107 -148 CURVE",
"105 -149 OFFCURVE",
"106 -155 OFFCURVE",
"108 -154 CURVE",
"118 -145 OFFCURVE",
"175 -65 OFFCURVE",
"177 -51 CURVE SMOOTH"
);
}
);
width = 380;
}
);
note = Lcommaaccent;
unicode = 013B;
},
{
color = 11;
glyphname = Ldot;
lastChange = "2021-07-14 20:19:39 +0000";
layers = (
{
hints = (
{
horizontal = 1;
place = "{-3, 20}";
type = Stem;
},
{
horizontal = 1;
place = "{440, 10}";
type = Stem;
},
{
place = "{225, 93}";
type = Stem;
},
{
place = "{417, 15}";
type = Stem;
},
{
horizontal = 1;
place = "{-8, 17}";
type = Stem;
},
{
horizontal = 1;
place = "{13, 22}";
type = Stem;
}
);
layerId = "DB049CBD-EE5A-4C6A-B8D5-3A4D87564362";
paths = (
{
closed = 1;
nodes = (
"351 101 OFFCURVE",
"342 102 OFFCURVE",
"342 100 CURVE SMOOTH",
"337 66 OFFCURVE",
"316 37 OFFCURVE",
"310 33 CURVE SMOOTH",
"291 19 OFFCURVE",
"250 13 OFFCURVE",
"208 9 CURVE SMOOTH",
"197 8 OFFCURVE",
"146 7 OFFCURVE",
"118 10 CURVE SMOOTH",
"66 14 OFFCURVE",
"67 34 OFFCURVE",
"80 72 CURVE SMOOTH",
"104 146 OFFCURVE",
"135 220 OFFCURVE",
"166 293 CURVE SMOOTH",
"182 332 OFFCURVE",
"247 487 OFFCURVE",
"267 512 CURVE SMOOTH",
"273 520 OFFCURVE",
"281 523 OFFCURVE",
"299 526 CURVE SMOOTH",
"310 527 OFFCURVE",
"322 527 OFFCURVE",
"331 527 CURVE SMOOTH",
"333 527 OFFCURVE",
"337 534 OFFCURVE",
"334 534 CURVE SMOOTH",
"308 533 OFFCURVE",
"279 532 OFFCURVE",
"250 532 CURVE SMOOTH",
"226 532 OFFCURVE",
"183 533 OFFCURVE",
"163 534 CURVE SMOOTH",
"159 534 OFFCURVE",
"154 525 OFFCURVE",
"159 525 CURVE SMOOTH",
"172 525 OFFCURVE",
"191 526 OFFCURVE",
"206 526 CURVE SMOOTH",
"225 526 OFFCURVE",
"234 523 OFFCURVE",
"225 495 CURVE SMOOTH",
"181 364 OFFCURVE",
"122 220 OFFCURVE",
"66 93 CURVE SMOOTH",
"27 6 OFFCURVE",
"33 -2 OFFCURVE",
"42 -2 CURVE SMOOTH",
"100 -2 OFFCURVE",
"263 -7 OFFCURVE",
"310 2 CURVE SMOOTH",
"322 4 OFFCURVE",
"340 64 OFFCURVE",
"350 97 CURVE SMOOTH"
);
},
{
closed = 1;
nodes = (
"363 260 OFFCURVE",
"318 241 OFFCURVE",
"312 215 CURVE SMOOTH",
"308 199 OFFCURVE",
"326 184 OFFCURVE",
"340 200 CURVE SMOOTH",
"348 208 OFFCURVE",
"359 229 OFFCURVE",
"360 239 CURVE SMOOTH"
);
}
);
width = 380;
}
);
note = Ldot;
unicode = 013F;
},
{
color = 11;
glyphname = Lslash;
lastChange = "2021-07-14 20:19:39 +0000";
layers = (
{
hints = (
{
horizontal = 1;
place = "{-2, 12}";
type = Stem;
},
{
horizontal = 1;
place = "{517, 8}";
type = Stem;
},
{
place = "{61, 32}";
type = Stem;
},
{
horizontal = 1;
place = "{528, -20}";
target = down;
type = TopGhost;
},
{
place = "{229, 43}";
type = Stem;
}
);
layerId = "DB049CBD-EE5A-4C6A-B8D5-3A4D87564362";
paths = (
{
closed = 1;
nodes = (
"366 99 OFFCURVE",
"356 97 OFFCURVE",
"356 96 CURVE SMOOTH",
"351 62 OFFCURVE",
"331 37 OFFCURVE",
"325 33 CURVE SMOOTH",
"287 6 OFFCURVE",
"180 6 OFFCURVE",
"133 10 CURVE SMOOTH",
"81 15 OFFCURVE",
"90 50 OFFCURVE",
"102 88 CURVE SMOOTH",
"118 140 OFFCURVE",
"136 190 OFFCURVE",
"155 241 CURVE",
"239 272 LINE SMOOTH",
"243 273 OFFCURVE",
"251 291 OFFCURVE",
"248 290 CURVE SMOOTH",
"161 258 LINE",
"196 348 OFFCURVE",
"234 437 OFFCURVE",
"272 526 CURVE SMOOTH",
"274 530 OFFCURVE",
"270 530 OFFCURVE",
"263 528 CURVE SMOOTH",
"259 527 OFFCURVE",
"250 526 OFFCURVE",
"244 526 CURVE SMOOTH",
"236 525 OFFCURVE",
"155 525 OFFCURVE",
"155 525 CURVE",
"152 523 OFFCURVE",
"149 517 OFFCURVE",
"152 517 CURVE",
"161 519 OFFCURVE",
"203 520 OFFCURVE",
"215 520 CURVE SMOOTH",
"239 520 OFFCURVE",
"228 490 OFFCURVE",
"219 459 CURVE SMOOTH",
"199 393 OFFCURVE",
"173 322 OFFCURVE",
"145 252 CURVE",
"60 221 LINE SMOOTH",
"56 220 OFFCURVE",
"47 200 OFFCURVE",
"50 202 CURVE",
"62 207 OFFCURVE",
"99 221 OFFCURVE",
"138 235 CURVE",
"84 101 LINE SMOOTH",
"72 72 OFFCURVE",
"46 -3 OFFCURVE",
"71 -2 CURVE SMOOTH",
"133 -1 OFFCURVE",
"269 0 OFFCURVE",
"326 2 CURVE SMOOTH",
"338 2 OFFCURVE",
"355 64 OFFCURVE",
"365 97 CURVE SMOOTH"
);
}
);
width = 380;
}
);
note = Lslash;
unicode = 0141;
},
{
color = 5;
glyphname = M;
lastChange = "2021-04-20 17:45:09 +0000";
layers = (
{
hints = (
{
horizontal = 1;
place = "{1, 42}";
type = Stem;
},
{
horizontal = 1;
place = "{-7, 21}";
target = up;
type = BottomGhost;
},
{
place = "{832, 61}";
type = Stem;
}
);
layerId = "DB049CBD-EE5A-4C6A-B8D5-3A4D87564362";
paths = (
{
closed = 1;
nodes = (
"781 537 OFFCURVE",
"740 511 OFFCURVE",
"731 494 CURVE",
"728 490 OFFCURVE",
"721 473 OFFCURVE",
"697 444 CURVE SMOOTH",
"626 358 OFFCURVE",
"427 160 OFFCURVE",
"340 53 CURVE",
"348 126 OFFCURVE",
"396 397 OFFCURVE",
"446 534 CURVE SMOOTH",
"448 538 OFFCURVE",
"442 536 OFFCURVE",
"434 535 CURVE SMOOTH",
"401 530 OFFCURVE",
"330 534 OFFCURVE",
"330 534 CURVE",
"326 532 OFFCURVE",
"322 524 OFFCURVE",
"326 524 CURVE SMOOTH",
"334 525 OFFCURVE",
"361 526 OFFCURVE",
"373 526 CURVE SMOOTH",
"418 526 OFFCURVE",
"393 484 OFFCURVE",
"376 466 CURVE SMOOTH",
"258 348 OFFCURVE",
"56 125 OFFCURVE",
"-11 -31 CURVE SMOOTH",
"-20 -52 OFFCURVE",
"-18 -71 OFFCURVE",
"-15 -80 CURVE SMOOTH",
"-7 -101 OFFCURVE",
"11 -114 OFFCURVE",
"6 -100 CURVE SMOOTH",
"-38 26 OFFCURVE",
"301 376 OFFCURVE",
"393 467 CURVE SMOOTH",
"400 474 OFFCURVE",
"401 467 OFFCURVE",
"399 458 CURVE SMOOTH",
"384 377 OFFCURVE",
"354 230 OFFCURVE",
"327 105 CURVE SMOOTH",
"316 56 OFFCURVE",
"309 23 OFFCURVE",
"301 15 CURVE SMOOTH",
"297 12 OFFCURVE",
"298 8 OFFCURVE",
"304 10 CURVE",
"344 31 LINE",
"426 148 OFFCURVE",
"605 333 OFFCURVE",
"708 433 CURVE",
"698 403 OFFCURVE",
"683 362 OFFCURVE",
"673 328 CURVE SMOOTH",
"644 225 OFFCURVE",
"605 104 OFFCURVE",
"603 4 CURVE SMOOTH",
"603 -22 OFFCURVE",
"631 -11 OFFCURVE",
"646 -5 CURVE SMOOTH",
"676 6 OFFCURVE",
"703 25 OFFCURVE",
"724 46 CURVE SMOOTH",
"728 50 OFFCURVE",
"727 57 OFFCURVE",
"722 51 CURVE SMOOTH",
"706 34 OFFCURVE",
"686 20 OFFCURVE",
"662 9 CURVE SMOOTH",
"648 3 OFFCURVE",
"634 2 OFFCURVE",
"632 26 CURVE SMOOTH",
"623 131 OFFCURVE",
"697 359 OFFCURVE",
"740 454 CURVE SMOOTH",
"759 496 OFFCURVE",
"779 527 OFFCURVE",
"800 540 CURVE",
"803 541 OFFCURVE",
"803 550 OFFCURVE",
"801 548 CURVE"
);
}
);
width = 723;
}
);
note = M;
unicode = 004D;
},
{
color = 5;
glyphname = N;
lastChange = "2021-04-20 17:45:09 +0000";
layers = (
{
hints = (
{
horizontal = 1;
place = "{423, 10}";
type = Stem;
},
{
horizontal = 1;
place = "{497, 23}";
type = Stem;
},
{
place = "{98, 25}";
type = Stem;
}
);
layerId = "DB049CBD-EE5A-4C6A-B8D5-3A4D87564362";
paths = (
{
closed = 1;
nodes = (
"636 542 LINE SMOOTH",
"618 536 OFFCURVE",
"612 537 OFFCURVE",
"596 533 CURVE SMOOTH",
"585 530 OFFCURVE",
"568 520 OFFCURVE",
"554 478 CURVE SMOOTH",
"520 378 OFFCURVE",
"450 175 OFFCURVE",
"425 70 CURVE",
"425 182 OFFCURVE",
"248 453 OFFCURVE",
"248 529 CURVE SMOOTH",
"248 540 OFFCURVE",
"239 535 OFFCURVE",
"221 534 CURVE SMOOTH",
"205 533 OFFCURVE",
"188 532 OFFCURVE",
"180 532 CURVE SMOOTH",
"155 532 OFFCURVE",
"132 534 OFFCURVE",
"132 534 CURVE",
"128 531 OFFCURVE",
"124 523 OFFCURVE",
"128 524 CURVE SMOOTH",
"137 526 OFFCURVE",
"168 527 OFFCURVE",
"180 527 CURVE SMOOTH",
"212 527 OFFCURVE",
"211 490 OFFCURVE",
"202 459 CURVE SMOOTH",
"166 339 OFFCURVE",
"96 141 OFFCURVE",
"40 32 CURVE SMOOTH",
"36 24 OFFCURVE",
"29 14 OFFCURVE",
"35 1 CURVE SMOOTH",
"37 -5 OFFCURVE",
"45 -22 OFFCURVE",
"51 -4 CURVE SMOOTH",
"104 162 OFFCURVE",
"177 339 OFFCURVE",
"235 508 CURVE",
"219 457 OFFCURVE",
"415 139 OFFCURVE",
"415 54 CURVE SMOOTH",
"415 48 OFFCURVE",
"414 43 OFFCURVE",
"413 38 CURVE SMOOTH",
"409 23 OFFCURVE",
"403 8 OFFCURVE",
"403 5 CURVE",
"400 -12 OFFCURVE",
"417 -2 OFFCURVE",
"426 30 CURVE SMOOTH",
"462 170 OFFCURVE",
"523 378 OFFCURVE",
"583 488 CURVE SMOOTH",
"593 506 OFFCURVE",
"604 519 OFFCURVE",
"615 526 CURVE SMOOTH",
"624 532 OFFCURVE",
"634 537 OFFCURVE",
"647 541 CURVE SMOOTH",
"650 542 OFFCURVE",
"652 548 OFFCURVE",
"650 547 CURVE SMOOTH"
);
}
);
width = 549;
}
);
note = N;
unicode = 004E;
},
{
color = 11;
glyphname = Nacute;
lastChange = "2021-07-14 20:19:39 +0000";
layers = (
{
hints = (
{
horizontal = 1;
place = "{423, 10}";
type = Stem;
},
{
horizontal = 1;
place = "{497, 23}";
type = Stem;
},
{
place = "{98, 25}";
type = Stem;
},
{
horizontal = 1;
place = "{542, 103}";
type = Stem;
},
{
place = "{354, 151}";
type = Stem;
}
);
layerId = "DB049CBD-EE5A-4C6A-B8D5-3A4D87564362";
paths = (
{
closed = 1;
nodes = (
"636 542 LINE SMOOTH",
"618 536 OFFCURVE",
"612 537 OFFCURVE",
"596 533 CURVE SMOOTH",
"585 530 OFFCURVE",
"568 520 OFFCURVE",
"554 478 CURVE SMOOTH",
"520 378 OFFCURVE",
"450 175 OFFCURVE",
"425 70 CURVE",
"425 182 OFFCURVE",
"248 453 OFFCURVE",
"248 529 CURVE SMOOTH",
"248 540 OFFCURVE",
"239 535 OFFCURVE",
"221 534 CURVE SMOOTH",
"205 533 OFFCURVE",
"188 532 OFFCURVE",
"180 532 CURVE SMOOTH",
"155 532 OFFCURVE",
"132 534 OFFCURVE",
"132 534 CURVE",
"128 531 OFFCURVE",
"124 523 OFFCURVE",
"128 524 CURVE SMOOTH",
"137 526 OFFCURVE",
"168 527 OFFCURVE",
"180 527 CURVE SMOOTH",
"212 527 OFFCURVE",
"211 490 OFFCURVE",
"202 459 CURVE SMOOTH",
"166 339 OFFCURVE",
"96 141 OFFCURVE",
"40 32 CURVE SMOOTH",
"36 24 OFFCURVE",
"29 14 OFFCURVE",
"35 1 CURVE SMOOTH",
"37 -5 OFFCURVE",
"45 -22 OFFCURVE",
"51 -4 CURVE SMOOTH",
"104 162 OFFCURVE",
"177 339 OFFCURVE",
"235 508 CURVE",
"219 457 OFFCURVE",
"415 139 OFFCURVE",
"415 54 CURVE SMOOTH",
"415 48 OFFCURVE",
"414 43 OFFCURVE",
"413 38 CURVE SMOOTH",
"409 23 OFFCURVE",
"403 8 OFFCURVE",
"403 5 CURVE",
"400 -12 OFFCURVE",
"417 -2 OFFCURVE",
"426 30 CURVE SMOOTH",
"462 170 OFFCURVE",
"523 378 OFFCURVE",
"583 488 CURVE SMOOTH",
"593 506 OFFCURVE",
"604 519 OFFCURVE",
"615 526 CURVE SMOOTH",
"624 532 OFFCURVE",
"634 537 OFFCURVE",
"647 541 CURVE SMOOTH",
"650 542 OFFCURVE",
"652 548 OFFCURVE",
"650 547 CURVE SMOOTH"
);
},
{
closed = 1;
nodes = (
"408 573 OFFCURVE",
"476 611 OFFCURVE",
"488 620 CURVE SMOOTH",
"491 622 OFFCURVE",
"485 634 OFFCURVE",
"483 632 CURVE",
"393 569 LINE SMOOTH",
"390 567 OFFCURVE",
"389 559 OFFCURVE",
"393 562 CURVE SMOOTH"
);
}
);
width = 549;
}
);
note = Nacute;
unicode = 0143;
},
{
color = 11;
glyphname = Ncaron;
lastChange = "2021-07-14 20:19:39 +0000";
layers = (
{
hints = (
{
horizontal = 1;
place = "{423, 10}";
type = Stem;
},
{
horizontal = 1;
place = "{497, 23}";
type = Stem;
},
{
place = "{98, 25}";
type = Stem;
}
);
layerId = "DB049CBD-EE5A-4C6A-B8D5-3A4D87564362";
paths = (
{
closed = 1;
nodes = (
"636 542 LINE SMOOTH",
"618 536 OFFCURVE",
"612 537 OFFCURVE",
"596 533 CURVE SMOOTH",
"585 530 OFFCURVE",
"568 520 OFFCURVE",
"554 478 CURVE SMOOTH",
"520 378 OFFCURVE",
"450 175 OFFCURVE",
"425 70 CURVE",
"425 182 OFFCURVE",
"248 453 OFFCURVE",
"248 529 CURVE SMOOTH",
"248 540 OFFCURVE",
"239 535 OFFCURVE",
"221 534 CURVE SMOOTH",
"205 533 OFFCURVE",
"188 532 OFFCURVE",
"180 532 CURVE SMOOTH",
"155 532 OFFCURVE",
"132 534 OFFCURVE",
"132 534 CURVE",
"128 531 OFFCURVE",
"124 523 OFFCURVE",
"128 524 CURVE SMOOTH",
"137 526 OFFCURVE",
"168 527 OFFCURVE",
"180 527 CURVE SMOOTH",
"212 527 OFFCURVE",
"211 490 OFFCURVE",
"202 459 CURVE SMOOTH",
"166 339 OFFCURVE",
"96 141 OFFCURVE",
"40 32 CURVE SMOOTH",
"36 24 OFFCURVE",
"29 14 OFFCURVE",
"35 1 CURVE SMOOTH",
"37 -5 OFFCURVE",
"45 -22 OFFCURVE",
"51 -4 CURVE SMOOTH",
"104 162 OFFCURVE",
"177 339 OFFCURVE",
"235 508 CURVE",
"219 457 OFFCURVE",
"415 139 OFFCURVE",
"415 54 CURVE SMOOTH",
"415 48 OFFCURVE",
"414 43 OFFCURVE",
"413 38 CURVE SMOOTH",
"409 23 OFFCURVE",
"403 8 OFFCURVE",
"403 5 CURVE",
"400 -12 OFFCURVE",
"417 -2 OFFCURVE",
"426 30 CURVE SMOOTH",
"462 170 OFFCURVE",
"523 378 OFFCURVE",
"583 488 CURVE SMOOTH",
"593 506 OFFCURVE",
"604 519 OFFCURVE",
"615 526 CURVE SMOOTH",
"624 532 OFFCURVE",
"634 537 OFFCURVE",
"647 541 CURVE SMOOTH",
"650 542 OFFCURVE",
"652 548 OFFCURVE",
"650 547 CURVE SMOOTH"
);
},
{
closed = 1;
nodes = (
"493 637 OFFCURVE",
"492 653 OFFCURVE",
"488 648 CURVE SMOOTH",
"469 624 OFFCURVE",
"430 572 OFFCURVE",
"420 562 CURVE",
"415 571 OFFCURVE",
"389 637 OFFCURVE",
"389 645 CURVE",
"375 645 LINE",
"378 639 OFFCURVE",
"402 584 OFFCURVE",
"412 553 CURVE",
"420 553 LINE",
"420 553 OFFCURVE",
"476 621 OFFCURVE",
"490 636 CURVE"
);
}
);
width = 549;
}
);
note = Ncaron;
unicode = 0147;
},
{
color = 11;
glyphname = Ncommaaccent;
lastChange = "2021-07-14 20:19:39 +0000";
layers = (
{
hints = (
{
horizontal = 1;
place = "{-91, 17}";
type = Stem;
},
{
horizontal = 1;
place = "{-91, 46}";
type = Stem;
},
{
horizontal = 1;
place = "{423, 10}";
type = Stem;
},
{
horizontal = 1;
place = "{497, 23}";
type = Stem;
},
{
place = "{98, 25}";
type = Stem;
},
{
place = "{172, 72}";
type = Stem;
}
);
layerId = "DB049CBD-EE5A-4C6A-B8D5-3A4D87564362";
paths = (
{
closed = 1;
nodes = (
"636 542 LINE SMOOTH",
"618 536 OFFCURVE",
"612 537 OFFCURVE",
"596 533 CURVE SMOOTH",
"585 530 OFFCURVE",
"568 520 OFFCURVE",
"554 478 CURVE SMOOTH",
"520 378 OFFCURVE",
"450 175 OFFCURVE",
"425 70 CURVE",
"425 182 OFFCURVE",
"248 453 OFFCURVE",
"248 529 CURVE SMOOTH",
"248 540 OFFCURVE",
"239 535 OFFCURVE",
"221 534 CURVE SMOOTH",
"205 533 OFFCURVE",
"188 532 OFFCURVE",
"180 532 CURVE SMOOTH",
"155 532 OFFCURVE",
"132 534 OFFCURVE",
"132 534 CURVE",
"128 531 OFFCURVE",
"124 523 OFFCURVE",
"128 524 CURVE SMOOTH",
"137 526 OFFCURVE",
"168 527 OFFCURVE",
"180 527 CURVE SMOOTH",
"212 527 OFFCURVE",
"211 490 OFFCURVE",
"202 459 CURVE SMOOTH",
"166 339 OFFCURVE",
"96 141 OFFCURVE",
"40 32 CURVE SMOOTH",
"36 24 OFFCURVE",
"29 14 OFFCURVE",
"35 1 CURVE SMOOTH",
"37 -5 OFFCURVE",
"45 -22 OFFCURVE",
"51 -4 CURVE SMOOTH",
"104 162 OFFCURVE",
"177 339 OFFCURVE",
"235 508 CURVE",
"219 457 OFFCURVE",
"415 139 OFFCURVE",
"415 54 CURVE SMOOTH",
"415 48 OFFCURVE",
"414 43 OFFCURVE",
"413 38 CURVE SMOOTH",
"409 23 OFFCURVE",
"403 8 OFFCURVE",
"403 5 CURVE",
"400 -12 OFFCURVE",
"417 -2 OFFCURVE",
"426 30 CURVE SMOOTH",
"462 170 OFFCURVE",
"523 378 OFFCURVE",
"583 488 CURVE SMOOTH",
"593 506 OFFCURVE",
"604 519 OFFCURVE",
"615 526 CURVE SMOOTH",
"624 532 OFFCURVE",
"634 537 OFFCURVE",
"647 541 CURVE SMOOTH",
"650 542 OFFCURVE",
"652 548 OFFCURVE",
"650 547 CURVE SMOOTH"
);
},
{
closed = 1;
nodes = (
"247 -33 OFFCURVE",
"211 -54 OFFCURVE",
"202 -76 CURVE SMOOTH",
"198 -84 OFFCURVE",
"206 -86 OFFCURVE",
"209 -90 CURVE",
"205 -98 OFFCURVE",
"183 -136 OFFCURVE",
"174 -148 CURVE",
"172 -149 OFFCURVE",
"173 -155 OFFCURVE",
"175 -154 CURVE",
"185 -145 OFFCURVE",
"242 -65 OFFCURVE",
"244 -51 CURVE SMOOTH"
);
}
);
width = 549;
}
);
note = Ncommaaccent;
unicode = 0145;
},
{
color = 5;
glyphname = Eng;
lastChange = "2021-04-20 17:45:09 +0000";
layers = (
{
hints = (
{
horizontal = 1;
place = "{-53, 12}";
type = Stem;
},
{
horizontal = 1;
place = "{423, 10}";
type = Stem;
},
{
horizontal = 1;
place = "{492, 8}";
type = Stem;
},
{
horizontal = 1;
place = "{497, 23}";
type = Stem;
},
{
place = "{1, 9}";
type = Stem;
},
{
place = "{98, 25}";
type = Stem;
},
{
place = "{292, 16}";
type = Stem;
}
);
layerId = "DB049CBD-EE5A-4C6A-B8D5-3A4D87564362";
paths = (
{
closed = 1;
nodes = (
"378 -115 OFFCURVE",
"307 -227 OFFCURVE",
"193 -227 CURVE SMOOTH",
"149 -227 OFFCURVE",
"100 -194 OFFCURVE",
"100 -139 CURVE SMOOTH",
"100 -108 OFFCURVE",
"109 -97 OFFCURVE",
"125 -75 CURVE SMOOTH",
"129 -70 OFFCURVE",
"123 -68 OFFCURVE",
"118 -74 CURVE SMOOTH",
"100 -98 OFFCURVE",
"88 -131 OFFCURVE",
"88 -161 CURVE SMOOTH",
"88 -219 OFFCURVE",
"130 -242 OFFCURVE",
"176 -242 CURVE SMOOTH",
"301 -242 OFFCURVE",
"376 -130 OFFCURVE",
"413 -13 CURVE SMOOTH",
"456 125 OFFCURVE",
"523 378 OFFCURVE",
"583 488 CURVE SMOOTH",
"593 506 OFFCURVE",
"604 519 OFFCURVE",
"615 526 CURVE SMOOTH",
"624 532 OFFCURVE",
"634 537 OFFCURVE",
"647 541 CURVE SMOOTH",
"650 542 OFFCURVE",
"652 548 OFFCURVE",
"650 547 CURVE SMOOTH",
"636 542 LINE SMOOTH",
"618 536 OFFCURVE",
"612 537 OFFCURVE",
"596 533 CURVE SMOOTH",
"585 530 OFFCURVE",
"568 520 OFFCURVE",
"554 478 CURVE SMOOTH",
"520 378 OFFCURVE",
"450 175 OFFCURVE",
"425 70 CURVE",
"425 182 OFFCURVE",
"248 453 OFFCURVE",
"248 529 CURVE SMOOTH",
"248 540 OFFCURVE",
"239 535 OFFCURVE",
"221 534 CURVE SMOOTH",
"205 533 OFFCURVE",
"188 532 OFFCURVE",
"180 532 CURVE SMOOTH",
"155 532 OFFCURVE",
"132 534 OFFCURVE",
"132 534 CURVE",
"128 531 OFFCURVE",
"124 523 OFFCURVE",
"128 524 CURVE SMOOTH",
"137 526 OFFCURVE",
"168 527 OFFCURVE",
"180 527 CURVE SMOOTH",
"212 527 OFFCURVE",
"211 490 OFFCURVE",
"202 459 CURVE SMOOTH",
"166 339 OFFCURVE",
"96 141 OFFCURVE",
"40 32 CURVE SMOOTH",
"36 24 OFFCURVE",
"29 14 OFFCURVE",
"35 1 CURVE SMOOTH",
"37 -5 OFFCURVE",
"45 -22 OFFCURVE",
"51 -4 CURVE SMOOTH",
"104 162 OFFCURVE",
"177 339 OFFCURVE",
"235 508 CURVE",
"219 457 OFFCURVE",
"415 139 OFFCURVE",
"415 54 CURVE SMOOTH",
"415 48 OFFCURVE",
"414 43 OFFCURVE",
"413 38 CURVE SMOOTH"
);
}
);
width = 549;
}
);
note = Eng;
unicode = 014A;
},
{
color = 11;
glyphname = Ntilde;
lastChange = "2021-07-14 20:19:39 +0000";
layers = (
{
hints = (
{
horizontal = 1;
place = "{423, 10}";
type = Stem;
},
{
horizontal = 1;
place = "{497, 23}";
type = Stem;
},
{
place = "{98, 25}";
type = Stem;
},
{
horizontal = 1;
place = "{567, 15}";
type = Stem;
},
{
horizontal = 1;
place = "{605, 15}";
type = Stem;
},
{
place = "{317, 204}";
type = Stem;
}
);
layerId = "DB049CBD-EE5A-4C6A-B8D5-3A4D87564362";
paths = (
{
closed = 1;
nodes = (
"636 542 LINE SMOOTH",
"618 536 OFFCURVE",
"612 537 OFFCURVE",
"596 533 CURVE SMOOTH",
"585 530 OFFCURVE",
"568 520 OFFCURVE",
"554 478 CURVE SMOOTH",
"520 378 OFFCURVE",
"450 175 OFFCURVE",
"425 70 CURVE",
"425 182 OFFCURVE",
"248 453 OFFCURVE",
"248 529 CURVE SMOOTH",
"248 540 OFFCURVE",
"239 535 OFFCURVE",
"221 534 CURVE SMOOTH",
"205 533 OFFCURVE",
"188 532 OFFCURVE",
"180 532 CURVE SMOOTH",
"155 532 OFFCURVE",
"132 534 OFFCURVE",
"132 534 CURVE",
"128 531 OFFCURVE",
"124 523 OFFCURVE",
"128 524 CURVE SMOOTH",
"137 526 OFFCURVE",
"168 527 OFFCURVE",
"180 527 CURVE SMOOTH",
"212 527 OFFCURVE",
"211 490 OFFCURVE",
"202 459 CURVE SMOOTH",
"166 339 OFFCURVE",
"96 141 OFFCURVE",
"40 32 CURVE SMOOTH",
"36 24 OFFCURVE",
"29 14 OFFCURVE",
"35 1 CURVE SMOOTH",
"37 -5 OFFCURVE",
"45 -22 OFFCURVE",
"51 -4 CURVE SMOOTH",
"104 162 OFFCURVE",
"177 339 OFFCURVE",
"235 508 CURVE",
"219 457 OFFCURVE",
"415 139 OFFCURVE",
"415 54 CURVE SMOOTH",
"415 48 OFFCURVE",
"414 43 OFFCURVE",
"413 38 CURVE SMOOTH",
"409 23 OFFCURVE",
"403 8 OFFCURVE",
"403 5 CURVE",
"400 -12 OFFCURVE",
"417 -2 OFFCURVE",
"426 30 CURVE SMOOTH",
"462 170 OFFCURVE",
"523 378 OFFCURVE",
"583 488 CURVE SMOOTH",
"593 506 OFFCURVE",
"604 519 OFFCURVE",
"615 526 CURVE SMOOTH",
"624 532 OFFCURVE",
"634 537 OFFCURVE",
"647 541 CURVE SMOOTH",
"650 542 OFFCURVE",
"652 548 OFFCURVE",
"650 547 CURVE SMOOTH"
);
},
{
closed = 1;
nodes = (
"506 604 OFFCURVE",
"506 612 OFFCURVE",
"505 609 CURVE SMOOTH",
"487 572 OFFCURVE",
"467 575 OFFCURVE",
"421 606 CURVE SMOOTH",
"378 635 OFFCURVE",
"349 611 OFFCURVE",
"336 580 CURVE SMOOTH",
"335 577 OFFCURVE",
"335 569 OFFCURVE",
"336 572 CURVE SMOOTH",
"349 602 OFFCURVE",
"371 619 OFFCURVE",
"412 591 CURVE SMOOTH",
"458 560 OFFCURVE",
"487 559 OFFCURVE",
"505 601 CURVE SMOOTH"
);
}
);
width = 549;
}
);
note = Ntilde;
unicode = 00D1;
},
{
color = 5;
glyphname = O;
lastChange = "2021-04-20 17:45:09 +0000";
layers = (
{
hints = (
{
horizontal = 1;
place = "{-11, 11}";
type = Stem;
},
{
horizontal = 1;
place = "{514, 8}";
type = Stem;
},
{
place = "{55, 46}";
type = Stem;
},
{
place = "{504, 48}";
type = Stem;
}
);
layerId = "DB049CBD-EE5A-4C6A-B8D5-3A4D87564362";
paths = (
{
closed = 1;
nodes = (
"430 62 OFFCURVE",
"326 -10 OFFCURVE",
"203 -10 CURVE SMOOTH",
"80 -10 OFFCURVE",
"27 64 OFFCURVE",
"28 157 CURVE SMOOTH",
"29 300 OFFCURVE",
"172 507 OFFCURVE",
"373 500 CURVE SMOOTH",
"401 499 OFFCURVE",
"439 491 OFFCURVE",
"454 481 CURVE SMOOTH",
"468 472 OFFCURVE",
"479 476 OFFCURVE",
"470 483 CURVE SMOOTH",
"458 494 OFFCURVE",
"408 505 OFFCURVE",
"370 506 CURVE SMOOTH",
"145 510 OFFCURVE",
"-1 300 OFFCURVE",
"0 158 CURVE SMOOTH",
"1 62 OFFCURVE",
"62 -16 OFFCURVE",
"200 -16 CURVE SMOOTH",
"561 -16 OFFCURVE",
"793 554 OFFCURVE",
"372 554 CURVE SMOOTH",
"273 554 OFFCURVE",
"137 496 OFFCURVE",
"84 411 CURVE SMOOTH",
"80 405 OFFCURVE",
"78 383 OFFCURVE",
"87 396 CURVE SMOOTH",
"142 476 OFFCURVE",
"269 548 OFFCURVE",
"369 548 CURVE SMOOTH",
"601 548 OFFCURVE",
"612 322 OFFCURVE",
"498 160 CURVE SMOOTH"
);
}
);
width = 593;
}
);
note = O;
unicode = 004F;
},
{
color = 11;
glyphname = Oacute;
lastChange = "2021-07-14 20:19:39 +0000";
layers = (
{
hints = (
{
horizontal = 1;
place = "{-11, 11}";
type = Stem;
},
{
horizontal = 1;
place = "{514, 8}";
type = Stem;
},
{
place = "{55, 46}";
type = Stem;
},
{
place = "{504, 48}";
type = Stem;
},
{
horizontal = 1;
place = "{565, 103}";
type = Stem;
},
{
place = "{350, 151}";
type = Stem;
}
);
layerId = "DB049CBD-EE5A-4C6A-B8D5-3A4D87564362";
paths = (
{
closed = 1;
nodes = (
"430 62 OFFCURVE",
"326 -10 OFFCURVE",
"203 -10 CURVE SMOOTH",
"80 -10 OFFCURVE",
"27 64 OFFCURVE",
"28 157 CURVE SMOOTH",
"29 300 OFFCURVE",
"172 507 OFFCURVE",
"373 500 CURVE SMOOTH",
"401 499 OFFCURVE",
"439 491 OFFCURVE",
"454 481 CURVE SMOOTH",
"468 472 OFFCURVE",
"479 476 OFFCURVE",
"470 483 CURVE SMOOTH",
"458 494 OFFCURVE",
"408 505 OFFCURVE",
"370 506 CURVE SMOOTH",
"145 510 OFFCURVE",
"-1 300 OFFCURVE",
"0 158 CURVE SMOOTH",
"1 62 OFFCURVE",
"62 -16 OFFCURVE",
"200 -16 CURVE SMOOTH",
"561 -16 OFFCURVE",
"793 554 OFFCURVE",
"372 554 CURVE SMOOTH",
"273 554 OFFCURVE",
"137 496 OFFCURVE",
"84 411 CURVE SMOOTH",
"80 405 OFFCURVE",
"78 383 OFFCURVE",
"87 396 CURVE SMOOTH",
"142 476 OFFCURVE",
"269 548 OFFCURVE",
"369 548 CURVE SMOOTH",
"601 548 OFFCURVE",
"612 322 OFFCURVE",
"498 160 CURVE SMOOTH"
);
},
{
closed = 1;
nodes = (
"404 596 OFFCURVE",
"472 634 OFFCURVE",
"484 643 CURVE SMOOTH",
"487 645 OFFCURVE",
"481 657 OFFCURVE",
"479 655 CURVE",
"389 592 LINE SMOOTH",
"386 590 OFFCURVE",
"385 582 OFFCURVE",
"389 585 CURVE SMOOTH"
);
}
);
width = 593;
}
);
note = Oacute;
unicode = 00D3;
},
{
color = 11;
glyphname = Obreve;
lastChange = "2021-07-14 20:19:39 +0000";
layers = (
{
hints = (
{
horizontal = 1;
place = "{-11, 11}";
type = Stem;
},
{
horizontal = 1;
place = "{514, 8}";
type = Stem;
},
{
place = "{55, 46}";
type = Stem;
},
{
place = "{504, 48}";
type = Stem;
}
);
layerId = "DB049CBD-EE5A-4C6A-B8D5-3A4D87564362";
paths = (
{
closed = 1;
nodes = (
"430 62 OFFCURVE",
"326 -10 OFFCURVE",
"203 -10 CURVE SMOOTH",
"80 -10 OFFCURVE",
"27 64 OFFCURVE",
"28 157 CURVE SMOOTH",
"29 300 OFFCURVE",
"172 507 OFFCURVE",
"373 500 CURVE SMOOTH",
"401 499 OFFCURVE",
"439 491 OFFCURVE",
"454 481 CURVE SMOOTH",
"468 472 OFFCURVE",
"479 476 OFFCURVE",
"470 483 CURVE SMOOTH",
"458 494 OFFCURVE",
"408 505 OFFCURVE",
"370 506 CURVE SMOOTH",
"145 510 OFFCURVE",
"-1 300 OFFCURVE",
"0 158 CURVE SMOOTH",
"1 62 OFFCURVE",
"62 -16 OFFCURVE",
"200 -16 CURVE SMOOTH",
"561 -16 OFFCURVE",
"793 554 OFFCURVE",
"372 554 CURVE SMOOTH",
"273 554 OFFCURVE",
"137 496 OFFCURVE",
"84 411 CURVE SMOOTH",
"80 405 OFFCURVE",
"78 383 OFFCURVE",
"87 396 CURVE SMOOTH",
"142 476 OFFCURVE",
"269 548 OFFCURVE",
"369 548 CURVE SMOOTH",
"601 548 OFFCURVE",
"612 322 OFFCURVE",
"498 160 CURVE SMOOTH"
);
},
{
closed = 1;
nodes = (
"519 669 OFFCURVE",
"518 669 OFFCURVE",
"516 669 CURVE SMOOTH",
"514 669 LINE",
"494 648 OFFCURVE",
"475 619 OFFCURVE",
"441 619 CURVE SMOOTH",
"415 619 OFFCURVE",
"409 640 OFFCURVE",
"409 662 CURVE SMOOTH",
"409 665 OFFCURVE",
"408 668 OFFCURVE",
"404 668 CURVE SMOOTH",
"394 668 OFFCURVE",
"386 658 OFFCURVE",
"386 648 CURVE SMOOTH",
"386 622 OFFCURVE",
"403 605 OFFCURVE",
"429 605 CURVE SMOOTH",
"460 605 OFFCURVE",
"491 626 OFFCURVE",
"510 650 CURVE SMOOTH",
"513 654 OFFCURVE",
"519 662 OFFCURVE",
"519 667 CURVE SMOOTH"
);
}
);
width = 593;
}
);
note = Obreve;
unicode = 014E;
},
{
color = 11;
glyphname = Ocircumflex;
lastChange = "2021-07-14 20:19:39 +0000";
layers = (
{
hints = (
{
horizontal = 1;
place = "{-11, 11}";
type = Stem;
},
{
horizontal = 1;
place = "{158, 21}";
target = up;
type = BottomGhost;
},
{
horizontal = 1;
place = "{514, 8}";
type = Stem;
},
{
horizontal = 1;
place = "{687, 7}";
type = Stem;
},
{
place = "{55, 46}";
type = Stem;
},
{
place = "{504, 48}";
type = Stem;
},
{
place = "{470, 48}";
type = Stem;
}
);
layerId = "DB049CBD-EE5A-4C6A-B8D5-3A4D87564362";
paths = (
{
closed = 1;
nodes = (
"430 62 OFFCURVE",
"326 -10 OFFCURVE",
"203 -10 CURVE SMOOTH",
"80 -10 OFFCURVE",
"27 64 OFFCURVE",
"28 157 CURVE SMOOTH",
"29 300 OFFCURVE",
"172 507 OFFCURVE",
"373 500 CURVE SMOOTH",
"401 499 OFFCURVE",
"439 491 OFFCURVE",
"454 481 CURVE SMOOTH",
"468 472 OFFCURVE",
"479 476 OFFCURVE",
"470 483 CURVE SMOOTH",
"458 494 OFFCURVE",
"408 505 OFFCURVE",
"370 506 CURVE SMOOTH",
"145 510 OFFCURVE",
"-1 300 OFFCURVE",
"0 158 CURVE SMOOTH",
"1 62 OFFCURVE",
"62 -16 OFFCURVE",
"200 -16 CURVE SMOOTH",
"561 -16 OFFCURVE",
"793 554 OFFCURVE",
"372 554 CURVE SMOOTH",
"273 554 OFFCURVE",
"137 496 OFFCURVE",
"84 411 CURVE SMOOTH",
"80 405 OFFCURVE",
"78 383 OFFCURVE",
"87 396 CURVE SMOOTH",
"142 476 OFFCURVE",
"269 548 OFFCURVE",
"369 548 CURVE SMOOTH",
"601 548 OFFCURVE",
"612 322 OFFCURVE",
"498 160 CURVE SMOOTH"
);
},
{
closed = 1;
nodes = (
"355 582 OFFCURVE",
"356 566 OFFCURVE",
"360 571 CURVE SMOOTH",
"379 595 OFFCURVE",
"418 647 OFFCURVE",
"428 657 CURVE",
"433 648 OFFCURVE",
"459 582 OFFCURVE",
"459 574 CURVE",
"473 574 LINE",
"470 580 OFFCURVE",
"446 635 OFFCURVE",
"436 666 CURVE",
"428 666 LINE",
"428 666 OFFCURVE",
"372 598 OFFCURVE",
"358 583 CURVE"
);
}
);
width = 593;
}
);
note = Ocircumflex;
unicode = 00D4;
},
{
color = 11;
glyphname = Odieresis;
lastChange = "2021-07-14 20:19:39 +0000";
layers = (
{
hints = (
{
horizontal = 1;
place = "{-11, 11}";
type = Stem;
},
{
horizontal = 1;
place = "{514, 8}";
type = Stem;
},
{
horizontal = 1;
place = "{602, 55}";
type = Stem;
},
{
place = "{55, 46}";
type = Stem;
},
{
place = "{316, 173}";
type = Stem;
},
{
place = "{441, 48}";
type = Stem;
},
{
place = "{504, 48}";
type = Stem;
}
);
layerId = "DB049CBD-EE5A-4C6A-B8D5-3A4D87564362";
paths = (
{
closed = 1;
nodes = (
"430 62 OFFCURVE",
"326 -10 OFFCURVE",
"203 -10 CURVE SMOOTH",
"80 -10 OFFCURVE",
"27 64 OFFCURVE",
"28 157 CURVE SMOOTH",
"29 300 OFFCURVE",
"172 507 OFFCURVE",
"373 500 CURVE SMOOTH",
"401 499 OFFCURVE",
"439 491 OFFCURVE",
"454 481 CURVE SMOOTH",
"468 472 OFFCURVE",
"479 476 OFFCURVE",
"470 483 CURVE SMOOTH",
"458 494 OFFCURVE",
"408 505 OFFCURVE",
"370 506 CURVE SMOOTH",
"145 510 OFFCURVE",
"-1 300 OFFCURVE",
"0 158 CURVE SMOOTH",
"1 62 OFFCURVE",
"62 -16 OFFCURVE",
"200 -16 CURVE SMOOTH",
"561 -16 OFFCURVE",
"793 554 OFFCURVE",
"372 554 CURVE SMOOTH",
"273 554 OFFCURVE",
"137 496 OFFCURVE",
"84 411 CURVE SMOOTH",
"80 405 OFFCURVE",
"78 383 OFFCURVE",
"87 396 CURVE SMOOTH",
"142 476 OFFCURVE",
"269 548 OFFCURVE",
"369 548 CURVE SMOOTH",
"601 548 OFFCURVE",
"612 322 OFFCURVE",
"498 160 CURVE SMOOTH"
);
},
{
closed = 1;
nodes = (
"468 657 OFFCURVE",
"435 643 OFFCURVE",
"431 624 CURVE SMOOTH",
"428 613 OFFCURVE",
"441 602 OFFCURVE",
"452 614 CURVE SMOOTH",
"458 620 OFFCURVE",
"466 634 OFFCURVE",
"467 643 CURVE SMOOTH"
);
},
{
closed = 1;
nodes = (
"389 657 OFFCURVE",
"356 643 OFFCURVE",
"352 624 CURVE",
"348 613 OFFCURVE",
"361 602 OFFCURVE",
"371 614 CURVE SMOOTH",
"377 620 OFFCURVE",
"386 634 OFFCURVE",
"387 643 CURVE SMOOTH"
);
}
);
width = 593;
}
);
note = Odieresis;
unicode = 00D6;
},
{
color = 11;
glyphname = Ograve;
lastChange = "2021-07-14 20:19:39 +0000";
layers = (
{
hints = (
{
horizontal = 1;
place = "{-11, 11}";
type = Stem;
},
{
horizontal = 1;
place = "{514, 8}";
type = Stem;
},
{
horizontal = 1;
place = "{566, 117}";
type = Stem;
},
{
horizontal = 1;
place = "{575, 103}";
type = Stem;
},
{
place = "{55, 46}";
type = Stem;
},
{
place = "{314, 151}";
type = Stem;
},
{
place = "{367, 76}";
type = Stem;
},
{
place = "{504, 48}";
type = Stem;
}
);
layerId = "DB049CBD-EE5A-4C6A-B8D5-3A4D87564362";
paths = (
{
closed = 1;
nodes = (
"430 62 OFFCURVE",
"326 -10 OFFCURVE",
"203 -10 CURVE SMOOTH",
"80 -10 OFFCURVE",
"27 64 OFFCURVE",
"28 157 CURVE SMOOTH",
"29 300 OFFCURVE",
"172 507 OFFCURVE",
"373 500 CURVE SMOOTH",
"401 499 OFFCURVE",
"439 491 OFFCURVE",
"454 481 CURVE SMOOTH",
"468 472 OFFCURVE",
"479 476 OFFCURVE",
"470 483 CURVE SMOOTH",
"458 494 OFFCURVE",
"408 505 OFFCURVE",
"370 506 CURVE SMOOTH",
"145 510 OFFCURVE",
"-1 300 OFFCURVE",
"0 158 CURVE SMOOTH",
"1 62 OFFCURVE",
"62 -16 OFFCURVE",
"200 -16 CURVE SMOOTH",
"561 -16 OFFCURVE",
"793 554 OFFCURVE",
"372 554 CURVE SMOOTH",
"273 554 OFFCURVE",
"137 496 OFFCURVE",
"84 411 CURVE SMOOTH",
"80 405 OFFCURVE",
"78 383 OFFCURVE",
"87 396 CURVE SMOOTH",
"142 476 OFFCURVE",
"269 548 OFFCURVE",
"369 548 CURVE SMOOTH",
"601 548 OFFCURVE",
"612 322 OFFCURVE",
"498 160 CURVE SMOOTH"
);
},
{
closed = 1;
nodes = (
"429 591 OFFCURVE",
"391 659 OFFCURVE",
"382 671 CURVE SMOOTH",
"380 674 OFFCURVE",
"368 668 OFFCURVE",
"370 666 CURVE",
"433 576 LINE SMOOTH",
"435 573 OFFCURVE",
"443 572 OFFCURVE",
"440 576 CURVE SMOOTH"
);
}
);
width = 593;
}
);
note = Ograve;
unicode = 00D2;
},
{
color = 11;
glyphname = Ohungarumlaut;
lastChange = "2021-07-14 20:19:39 +0000";
layers = (
{
hints = (
{
horizontal = 1;
place = "{-11, 11}";
type = Stem;
},
{
horizontal = 1;
place = "{514, 8}";
type = Stem;
},
{
place = "{55, 46}";
type = Stem;
},
{
place = "{504, 48}";
type = Stem;
}
);
layerId = "DB049CBD-EE5A-4C6A-B8D5-3A4D87564362";
paths = (
{
closed = 1;
nodes = (
"430 62 OFFCURVE",
"326 -10 OFFCURVE",
"203 -10 CURVE SMOOTH",
"80 -10 OFFCURVE",
"27 64 OFFCURVE",
"28 157 CURVE SMOOTH",
"29 300 OFFCURVE",
"172 507 OFFCURVE",
"373 500 CURVE SMOOTH",
"401 499 OFFCURVE",
"439 491 OFFCURVE",
"454 481 CURVE SMOOTH",
"468 472 OFFCURVE",
"479 476 OFFCURVE",
"470 483 CURVE SMOOTH",
"458 494 OFFCURVE",
"408 505 OFFCURVE",
"370 506 CURVE SMOOTH",
"145 510 OFFCURVE",
"-1 300 OFFCURVE",
"0 158 CURVE SMOOTH",
"1 62 OFFCURVE",
"62 -16 OFFCURVE",
"200 -16 CURVE SMOOTH",
"561 -16 OFFCURVE",
"793 554 OFFCURVE",
"372 554 CURVE SMOOTH",
"273 554 OFFCURVE",
"137 496 OFFCURVE",
"84 411 CURVE SMOOTH",
"80 405 OFFCURVE",
"78 383 OFFCURVE",
"87 396 CURVE SMOOTH",
"142 476 OFFCURVE",
"269 548 OFFCURVE",
"369 548 CURVE SMOOTH",
"601 548 OFFCURVE",
"612 322 OFFCURVE",
"498 160 CURVE SMOOTH"
);
},
{
closed = 1;
nodes = (
"479 667 OFFCURVE",
"477 677 OFFCURVE",
"471 677 CURVE SMOOTH",
"470 677 OFFCURVE",
"468 673 OFFCURVE",
"468 672 CURVE",
"457 651 OFFCURVE",
"450 626 OFFCURVE",
"443 604 CURVE SMOOTH",
"442 600 OFFCURVE",
"437 586 OFFCURVE",
"437 583 CURVE SMOOTH",
"437 581 OFFCURVE",
"437 580 OFFCURVE",
"438 579 CURVE",
"444 582 OFFCURVE",
"479 654 OFFCURVE",
"479 662 CURVE SMOOTH"
);
},
{
closed = 1;
nodes = (
"414 669 OFFCURVE",
"413 679 OFFCURVE",
"408 679 CURVE SMOOTH",
"407 679 OFFCURVE",
"405 675 OFFCURVE",
"404 674 CURVE",
"394 651 OFFCURVE",
"387 626 OFFCURVE",
"379 602 CURVE SMOOTH",
"378 600 OFFCURVE",
"373 582 OFFCURVE",
"373 580 CURVE SMOOTH",
"373 579 OFFCURVE",
"373 578 OFFCURVE",
"374 578 CURVE",
"375 579 LINE",
"384 596 OFFCURVE",
"414 648 OFFCURVE",
"414 666 CURVE SMOOTH"
);
}
);
width = 593;
}
);
note = Ohungarumlaut;
unicode = 0150;
},
{
color = 11;
glyphname = Omacron;
lastChange = "2021-07-14 20:19:39 +0000";
layers = (
{
hints = (
{
horizontal = 1;
place = "{-11, 11}";
type = Stem;
},
{
horizontal = 1;
place = "{514, 8}";
type = Stem;
},
{
place = "{55, 46}";
type = Stem;
},
{
place = "{504, 48}";
type = Stem;
},
{
horizontal = 1;
place = "{395, 16}";
type = Stem;
},
{
place = "{319, 197}";
type = Stem;
}
);
layerId = "DB049CBD-EE5A-4C6A-B8D5-3A4D87564362";
paths = (
{
closed = 1;
nodes = (
"430 62 OFFCURVE",
"326 -10 OFFCURVE",
"203 -10 CURVE SMOOTH",
"80 -10 OFFCURVE",
"27 64 OFFCURVE",
"28 157 CURVE SMOOTH",
"29 300 OFFCURVE",
"172 507 OFFCURVE",
"373 500 CURVE SMOOTH",
"401 499 OFFCURVE",
"439 491 OFFCURVE",
"454 481 CURVE SMOOTH",
"468 472 OFFCURVE",
"479 476 OFFCURVE",
"470 483 CURVE SMOOTH",
"458 494 OFFCURVE",
"408 505 OFFCURVE",
"370 506 CURVE SMOOTH",
"145 510 OFFCURVE",
"-1 300 OFFCURVE",
"0 158 CURVE SMOOTH",
"1 62 OFFCURVE",
"62 -16 OFFCURVE",
"200 -16 CURVE SMOOTH",
"561 -16 OFFCURVE",
"793 554 OFFCURVE",
"372 554 CURVE SMOOTH",
"273 554 OFFCURVE",
"137 496 OFFCURVE",
"84 411 CURVE SMOOTH",
"80 405 OFFCURVE",
"78 383 OFFCURVE",
"87 396 CURVE SMOOTH",
"142 476 OFFCURVE",
"269 548 OFFCURVE",
"369 548 CURVE SMOOTH",
"601 548 OFFCURVE",
"612 322 OFFCURVE",
"498 160 CURVE SMOOTH"
);
},
{
closed = 1;
nodes = (
"395 637 LINE SMOOTH",
"392 637 OFFCURVE",
"387 620 OFFCURVE",
"390 621 CURVE",
"406 622 OFFCURVE",
"494 621 OFFCURVE",
"513 621 CURVE SMOOTH",
"515 621 OFFCURVE",
"520 637 OFFCURVE",
"517 637 CURVE SMOOTH"
);
}
);
width = 593;
}
);
note = Omacron;
unicode = 014C;
},
{
color = 5;
glyphname = Oslash;
lastChange = "2021-04-20 17:45:09 +0000";
layers = (
{
hints = (
{
horizontal = 1;
place = "{-32, 21}";
target = up;
type = BottomGhost;
},
{
horizontal = 1;
place = "{0, 21}";
target = up;
type = BottomGhost;
},
{
horizontal = 1;
place = "{476, 14}";
type = Stem;
},
{
horizontal = 1;
place = "{541, -20}";
target = down;
type = TopGhost;
},
{
place = "{0, 28}";
type = Stem;
},
{
place = "{569, 28}";
type = Stem;
},
{
horizontal = 1;
place = "{500, 54}";
type = Stem;
},
{
horizontal = 1;
place = "{-32, 41}";
type = Stem;
},
{
horizontal = 1;
place = "{531, -20}";
target = down;
type = TopGhost;
},
{
horizontal = 1;
place = "{-16, 21}";
target = up;
type = BottomGhost;
},
{
horizontal = 1;
place = "{534, -20}";
target = down;
type = TopGhost;
}
);
layerId = "DB049CBD-EE5A-4C6A-B8D5-3A4D87564362";
paths = (
{
closed = 1;
nodes = (
"543 604 LINE SMOOTH",
"548 610 OFFCURVE",
"520 611 OFFCURVE",
"515 604 CURVE SMOOTH",
"504 587 OFFCURVE",
"489 566 OFFCURVE",
"471 541 CURVE",
"443 550 OFFCURVE",
"410 554 OFFCURVE",
"372 554 CURVE SMOOTH",
"273 554 OFFCURVE",
"137 496 OFFCURVE",
"84 411 CURVE SMOOTH",
"80 405 OFFCURVE",
"78 383 OFFCURVE",
"87 396 CURVE SMOOTH",
"142 476 OFFCURVE",
"269 548 OFFCURVE",
"369 548 CURVE SMOOTH",
"406 548 OFFCURVE",
"438 542 OFFCURVE",
"465 531 CURVE",
"439 496 LINE",
"419 501 OFFCURVE",
"392 506 OFFCURVE",
"370 506 CURVE SMOOTH",
"145 511 OFFCURVE",
"-1 300 OFFCURVE",
"0 158 CURVE SMOOTH",
"1 94 OFFCURVE",
"28 39 OFFCURVE",
"86 9 CURVE",
"60 -27 LINE SMOOTH",
"55 -34 OFFCURVE",
"83 -33 OFFCURVE",
"87 -26 CURVE SMOOTH",
"105 0 LINE",
"131 -10 OFFCURVE",
"163 -16 OFFCURVE",
"200 -16 CURVE SMOOTH",
"520 -16 OFFCURVE",
"738 432 OFFCURVE",
"491 534 CURVE"
);
},
{
closed = 1;
nodes = (
"430 62 OFFCURVE",
"326 -10 OFFCURVE",
"203 -10 CURVE SMOOTH",
"166 -10 OFFCURVE",
"135 -4 OFFCURVE",
"111 8 CURVE",
"182 111 OFFCURVE",
"348 340 OFFCURVE",
"453 482 CURVE",
"454 481 LINE SMOOTH",
"468 472 OFFCURVE",
"479 476 OFFCURVE",
"470 483 CURVE SMOOTH",
"468 485 OFFCURVE",
"464 488 OFFCURVE",
"459 490 CURVE",
"483 523 LINE",
"600 460 OFFCURVE",
"589 290 OFFCURVE",
"498 160 CURVE SMOOTH"
);
},
{
closed = 1;
nodes = (
"326 337 OFFCURVE",
"165 116 OFFCURVE",
"93 18 CURVE",
"48 49 OFFCURVE",
"27 99 OFFCURVE",
"28 157 CURVE SMOOTH",
"29 300 OFFCURVE",
"172 507 OFFCURVE",
"373 500 CURVE SMOOTH",
"393 499 OFFCURVE",
"417 495 OFFCURVE",
"435 490 CURVE"
);
}
);
width = 593;
}
);
note = Oslash;
unicode = 00D8;
},
{
color = 11;
glyphname = Oslashacute;
lastChange = "2021-07-14 20:19:39 +0000";
layers = (
{
hints = (
{
horizontal = 1;
place = "{-11, 11}";
type = Stem;
},
{
horizontal = 1;
place = "{514, 8}";
type = Stem;
},
{
place = "{55, 46}";
type = Stem;
},
{
place = "{504, 48}";
type = Stem;
},
{
horizontal = 1;
place = "{528, -20}";
target = down;
type = TopGhost;
},
{
place = "{96, 399}";
type = Stem;
},
{
horizontal = 1;
place = "{571, 103}";
type = Stem;
},
{
place = "{378, 151}";
type = Stem;
}
);
layerId = "DB049CBD-EE5A-4C6A-B8D5-3A4D87564362";
paths = (
{
closed = 1;
nodes = (
"430 62 OFFCURVE",
"326 -10 OFFCURVE",
"203 -10 CURVE SMOOTH",
"80 -10 OFFCURVE",
"27 64 OFFCURVE",
"28 157 CURVE SMOOTH",
"29 300 OFFCURVE",
"172 507 OFFCURVE",
"373 500 CURVE SMOOTH",
"401 499 OFFCURVE",
"439 491 OFFCURVE",
"454 481 CURVE SMOOTH",
"468 472 OFFCURVE",
"479 476 OFFCURVE",
"470 483 CURVE SMOOTH",
"458 494 OFFCURVE",
"408 505 OFFCURVE",
"370 506 CURVE SMOOTH",
"145 510 OFFCURVE",
"-1 300 OFFCURVE",
"0 158 CURVE SMOOTH",
"1 62 OFFCURVE",
"62 -16 OFFCURVE",
"200 -16 CURVE SMOOTH",
"561 -16 OFFCURVE",
"793 554 OFFCURVE",
"372 554 CURVE SMOOTH",
"273 554 OFFCURVE",
"137 496 OFFCURVE",
"84 411 CURVE SMOOTH",
"80 405 OFFCURVE",
"78 383 OFFCURVE",
"87 396 CURVE SMOOTH",
"142 476 OFFCURVE",
"269 548 OFFCURVE",
"369 548 CURVE SMOOTH",
"601 548 OFFCURVE",
"612 322 OFFCURVE",
"498 160 CURVE SMOOTH"
);
},
{
closed = 1;
nodes = (
"500 530 OFFCURVE",
"477 531 OFFCURVE",
"473 525 CURVE SMOOTH",
"394 408 OFFCURVE",
"125 43 OFFCURVE",
"97 3 CURVE SMOOTH",
"93 -2 OFFCURVE",
"116 -1 OFFCURVE",
"119 4 CURVE SMOOTH",
"176 90 OFFCURVE",
"476 499 OFFCURVE",
"496 525 CURVE SMOOTH"
);
},
{
closed = 1;
nodes = (
"432 602 OFFCURVE",
"500 640 OFFCURVE",
"512 649 CURVE SMOOTH",
"515 651 OFFCURVE",
"509 663 OFFCURVE",
"507 661 CURVE",
"417 598 LINE SMOOTH",
"414 596 OFFCURVE",
"413 588 OFFCURVE",
"417 591 CURVE SMOOTH"
);
}
);
width = 593;
}
);
note = Oslashacute;
unicode = 01FE;
},
{
color = 11;
glyphname = Otilde;
lastChange = "2021-07-14 20:19:39 +0000";
layers = (
{
hints = (
{
horizontal = 1;
place = "{-11, 11}";
type = Stem;
},
{
horizontal = 1;
place = "{514, 8}";
type = Stem;
},
{
place = "{55, 46}";
type = Stem;
},
{
place = "{504, 48}";
type = Stem;
},
{
horizontal = 1;
place = "{604, 15}";
type = Stem;
},
{
horizontal = 1;
place = "{642, 15}";
type = Stem;
},
{
place = "{323, 204}";
type = Stem;
}
);
layerId = "DB049CBD-EE5A-4C6A-B8D5-3A4D87564362";
paths = (
{
closed = 1;
nodes = (
"430 62 OFFCURVE",
"326 -10 OFFCURVE",
"203 -10 CURVE SMOOTH",
"80 -10 OFFCURVE",
"27 64 OFFCURVE",
"28 157 CURVE SMOOTH",
"29 300 OFFCURVE",
"172 507 OFFCURVE",
"373 500 CURVE SMOOTH",
"401 499 OFFCURVE",
"439 491 OFFCURVE",
"454 481 CURVE SMOOTH",
"468 472 OFFCURVE",
"479 476 OFFCURVE",
"470 483 CURVE SMOOTH",
"458 494 OFFCURVE",
"408 505 OFFCURVE",
"370 506 CURVE SMOOTH",
"145 510 OFFCURVE",
"-1 300 OFFCURVE",
"0 158 CURVE SMOOTH",
"1 62 OFFCURVE",
"62 -16 OFFCURVE",
"200 -16 CURVE SMOOTH",
"561 -16 OFFCURVE",
"793 554 OFFCURVE",
"372 554 CURVE SMOOTH",
"273 554 OFFCURVE",
"137 496 OFFCURVE",
"84 411 CURVE SMOOTH",
"80 405 OFFCURVE",
"78 383 OFFCURVE",
"87 396 CURVE SMOOTH",
"142 476 OFFCURVE",
"269 548 OFFCURVE",
"369 548 CURVE SMOOTH",
"601 548 OFFCURVE",
"612 322 OFFCURVE",
"498 160 CURVE SMOOTH"
);
},
{
closed = 1;
nodes = (
"512 641 OFFCURVE",
"512 649 OFFCURVE",
"511 646 CURVE SMOOTH",
"493 609 OFFCURVE",
"473 612 OFFCURVE",
"427 643 CURVE SMOOTH",
"384 672 OFFCURVE",
"355 648 OFFCURVE",
"342 617 CURVE SMOOTH",
"341 614 OFFCURVE",
"341 606 OFFCURVE",
"342 609 CURVE SMOOTH",
"355 639 OFFCURVE",
"377 656 OFFCURVE",
"418 628 CURVE SMOOTH",
"464 597 OFFCURVE",
"493 596 OFFCURVE",
"511 638 CURVE SMOOTH"
);
}
);
width = 593;
}
);
note = Otilde;
unicode = 00D5;
},
{
color = 5;
glyphname = OE;
lastChange = "2021-04-20 17:45:09 +0000";
layers = (
{
hints = (
{
horizontal = 1;
place = "{-11, 11}";
type = Stem;
},
{
horizontal = 1;
place = "{514, 8}";
type = Stem;
},
{
place = "{55, 46}";
type = Stem;
},
{
place = "{504, 48}";
type = Stem;
}
);
layerId = "DB049CBD-EE5A-4C6A-B8D5-3A4D87564362";
paths = (
{
closed = 1;
nodes = (
"874 520 OFFCURVE",
"879 527 OFFCURVE",
"873 527 CURVE SMOOTH",
"819 527 OFFCURVE",
"768 526 OFFCURVE",
"714 525 CURVE SMOOTH",
"684 524 OFFCURVE",
"652 524 OFFCURVE",
"620 524 CURVE SMOOTH",
"594 524 OFFCURVE",
"568 524 OFFCURVE",
"544 525 CURVE SMOOTH",
"540 525 OFFCURVE",
"533 516 OFFCURVE",
"538 517 CURVE SMOOTH",
"543 517 OFFCURVE",
"565 520 OFFCURVE",
"581 520 CURVE SMOOTH",
"586 520 OFFCURVE",
"592 519 OFFCURVE",
"596 519 CURVE SMOOTH",
"611 517 OFFCURVE",
"612 511 OFFCURVE",
"607 496 CURVE SMOOTH",
"604 485 OFFCURVE",
"600 474 OFFCURVE",
"596 462 CURVE SMOOTH",
"587 436 LINE",
"562 505 OFFCURVE",
"495 554 OFFCURVE",
"372 554 CURVE SMOOTH",
"273 554 OFFCURVE",
"137 496 OFFCURVE",
"84 411 CURVE SMOOTH",
"80 405 OFFCURVE",
"78 383 OFFCURVE",
"87 396 CURVE SMOOTH",
"142 476 OFFCURVE",
"269 548 OFFCURVE",
"369 548 CURVE SMOOTH",
"499 548 OFFCURVE",
"560 477 OFFCURVE",
"568 386 CURVE",
"556 357 OFFCURVE",
"544 326 OFFCURVE",
"531 296 CURVE",
"494 296 LINE SMOOTH",
"482 296 OFFCURVE",
"466 281 OFFCURVE",
"471 282 CURVE SMOOTH",
"516 287 LINE",
"527 287 LINE",
"500 223 OFFCURVE",
"473 159 OFFCURVE",
"450 101 CURVE",
"385 34 OFFCURVE",
"300 -10 OFFCURVE",
"203 -10 CURVE SMOOTH",
"80 -10 OFFCURVE",
"27 64 OFFCURVE",
"28 157 CURVE SMOOTH",
"29 300 OFFCURVE",
"172 507 OFFCURVE",
"373 500 CURVE SMOOTH",
"401 499 OFFCURVE",
"439 491 OFFCURVE",
"454 481 CURVE SMOOTH",
"468 472 OFFCURVE",
"479 476 OFFCURVE",
"470 483 CURVE SMOOTH",
"458 494 OFFCURVE",
"408 505 OFFCURVE",
"370 506 CURVE SMOOTH",
"145 510 OFFCURVE",
"-1 300 OFFCURVE",
"0 158 CURVE SMOOTH",
"1 62 OFFCURVE",
"62 -16 OFFCURVE",
"200 -16 CURVE SMOOTH",
"291 -16 OFFCURVE",
"374 21 OFFCURVE",
"440 75 CURVE",
"429 42 OFFCURVE",
"418 -2 OFFCURVE",
"437 -2 CURVE SMOOTH",
"496 -2 OFFCURVE",
"716 -7 OFFCURVE",
"764 2 CURVE SMOOTH",
"776 4 OFFCURVE",
"794 64 OFFCURVE",
"804 97 CURVE",
"804 99 OFFCURVE",
"795 97 OFFCURVE",
"795 96 CURVE SMOOTH",
"789 62 OFFCURVE",
"769 37 OFFCURVE",
"763 33 CURVE SMOOTH",
"744 19 OFFCURVE",
"703 12 OFFCURVE",
"662 9 CURVE SMOOTH",
"607 4 OFFCURVE",
"528 8 OFFCURVE",
"500 10 CURVE SMOOTH",
"448 15 OFFCURVE",
"457 50 OFFCURVE",
"468 88 CURVE SMOOTH",
"484 143 OFFCURVE",
"513 217 OFFCURVE",
"542 288 CURVE",
"572 290 OFFCURVE",
"615 291 OFFCURVE",
"648 290 CURVE SMOOTH",
"702 288 OFFCURVE",
"731 281 OFFCURVE",
"726 255 CURVE SMOOTH",
"724 241 OFFCURVE",
"716 221 OFFCURVE",
"714 217 CURVE SMOOTH",
"712 213 OFFCURVE",
"720 213 OFFCURVE",
"722 218 CURVE SMOOTH",
"727 237 OFFCURVE",
"737 266 OFFCURVE",
"739 271 CURVE SMOOTH",
"741 277 OFFCURVE",
"744 287 OFFCURVE",
"747 291 CURVE SMOOTH",
"748 292 OFFCURVE",
"753 300 OFFCURVE",
"747 300 CURVE SMOOTH",
"693 300 OFFCURVE",
"642 298 OFFCURVE",
"588 297 CURVE SMOOTH",
"545 296 LINE",
"578 375 OFFCURVE",
"611 448 OFFCURVE",
"629 487 CURVE SMOOTH",
"639 507 OFFCURVE",
"641 512 OFFCURVE",
"665 515 CURVE SMOOTH",
"699 519 OFFCURVE",
"740 519 OFFCURVE",
"774 518 CURVE SMOOTH",
"828 516 OFFCURVE",
"857 508 OFFCURVE",
"852 482 CURVE SMOOTH",
"850 469 OFFCURVE",
"839 434 OFFCURVE",
"834 424 CURVE SMOOTH",
"832 421 OFFCURVE",
"840 422 OFFCURVE",
"842 425 CURVE",
"842 426 OFFCURVE",
"857 478 OFFCURVE",
"865 499 CURVE SMOOTH",
"867 505 OFFCURVE",
"870 514 OFFCURVE",
"873 519 CURVE SMOOTH"
);
}
);
width = 848;
}
);
note = OE;
unicode = 0152;
},
{
color = 5;
glyphname = P;
lastChange = "2021-04-20 17:45:09 +0000";
layers = (
{
hints = (
{
horizontal = 1;
place = "{-5, 14}";
type = Stem;
},
{
horizontal = 1;
place = "{191, 9}";
type = Stem;
},
{
horizontal = 1;
place = "{419, 16}";
type = Stem;
},
{
horizontal = 1;
place = "{440, 9}";
type = Stem;
},
{
place = "{80, 64}";
type = Stem;
},
{
place = "{500, 47}";
type = Stem;
}
);
layerId = "DB049CBD-EE5A-4C6A-B8D5-3A4D87564362";
paths = (
{
closed = 1;
nodes = (
"168 385 OFFCURVE",
"99 213 OFFCURVE",
"46 93 CURVE SMOOTH",
"24 44 OFFCURVE",
"15 20 OFFCURVE",
"15 9 CURVE SMOOTH",
"15 -3 OFFCURVE",
"25 -2 OFFCURVE",
"34 0 CURVE",
"56 2 OFFCURVE",
"109 -1 OFFCURVE",
"134 0 CURVE SMOOTH",
"138 0 OFFCURVE",
"143 8 OFFCURVE",
"139 7 CURVE SMOOTH",
"123 5 OFFCURVE",
"87 5 OFFCURVE",
"70 11 CURVE SMOOTH",
"59 15 OFFCURVE",
"53 24 OFFCURVE",
"52 36 CURVE SMOOTH",
"49 79 OFFCURVE",
"207 446 OFFCURVE",
"241 506 CURVE SMOOTH",
"259 539 OFFCURVE",
"433 552 OFFCURVE",
"433 426 CURVE SMOOTH",
"433 301 OFFCURVE",
"282 224 OFFCURVE",
"171 247 CURVE SMOOTH",
"156 250 OFFCURVE",
"152 240 OFFCURVE",
"165 238 CURVE SMOOTH",
"276 221 OFFCURVE",
"458 292 OFFCURVE",
"458 425 CURVE SMOOTH",
"458 525 OFFCURVE",
"367 537 OFFCURVE",
"290 535 CURVE SMOOTH",
"241 534 OFFCURVE",
"184 532 OFFCURVE",
"142 533 CURVE SMOOTH",
"137 533 OFFCURVE",
"132 522 OFFCURVE",
"138 523 CURVE SMOOTH",
"144 524 OFFCURVE",
"166 526 OFFCURVE",
"180 526 CURVE SMOOTH",
"204 525 OFFCURVE",
"211 522 OFFCURVE",
"209 510 CURVE SMOOTH",
"208 499 OFFCURVE",
"204 489 OFFCURVE",
"200 479 CURVE SMOOTH"
);
}
);
width = 375;
}
);
note = P;
unicode = 0050;
},
{
color = 5;
glyphname = Thorn;
lastChange = "2021-04-20 17:45:09 +0000";
layers = (
{
hints = (
{
horizontal = 1;
place = "{118, 14}";
type = Stem;
},
{
horizontal = 1;
place = "{398, 7}";
type = Stem;
},
{
horizontal = 1;
place = "{518, 7}";
type = Stem;
},
{
place = "{384, 28}";
type = Stem;
}
);
layerId = "DB049CBD-EE5A-4C6A-B8D5-3A4D87564362";
paths = (
{
closed = 1;
nodes = (
"412 337 OFFCURVE",
"395 368 OFFCURVE",
"361 388 CURVE SMOOTH",
"332 405 OFFCURVE",
"267 409 OFFCURVE",
"211 405 CURVE SMOOTH",
"183 403 LINE",
"186 411 LINE",
"227 519 LINE SMOOTH",
"228 521 OFFCURVE",
"232 528 OFFCURVE",
"225 525 CURVE SMOOTH",
"212 520 OFFCURVE",
"150 521 OFFCURVE",
"131 521 CURVE SMOOTH",
"127 521 OFFCURVE",
"126 518 OFFCURVE",
"131 518 CURVE SMOOTH",
"143 518 OFFCURVE",
"183 518 OFFCURVE",
"199 517 CURVE",
"191 488 OFFCURVE",
"181 451 OFFCURVE",
"167 413 CURVE SMOOTH",
"128 302 OFFCURVE",
"48 85 OFFCURVE",
"2 -9 CURVE SMOOTH",
"-2 -17 OFFCURVE",
"-8 -26 OFFCURVE",
"-3 -39 CURVE SMOOTH",
"-1 -43 OFFCURVE",
"16 -66 OFFCURVE",
"21 -49 CURVE SMOOTH",
"53 57 OFFCURVE",
"139 288 OFFCURVE",
"176 385 CURVE",
"201 399 OFFCURVE",
"263 400 OFFCURVE",
"282 398 CURVE SMOOTH",
"405 384 OFFCURVE",
"408 271 OFFCURVE",
"337 196 CURVE SMOOTH",
"289 145 OFFCURVE",
"200 121 OFFCURVE",
"131 136 CURVE SMOOTH",
"117 139 OFFCURVE",
"90 122 OFFCURVE",
"120 118 CURVE SMOOTH",
"157 113 OFFCURVE",
"210 120 OFFCURVE",
"260 139 CURVE SMOOTH",
"293 152 OFFCURVE",
"327 171 OFFCURVE",
"348 187 CURVE SMOOTH",
"391 221 OFFCURVE",
"412 261 OFFCURVE",
"412 302 CURVE SMOOTH"
);
}
);
width = 447;
}
);
note = Thorn;
unicode = 00DE;
},
{
color = 5;
glyphname = Q;
lastChange = "2021-04-20 17:45:09 +0000";
layers = (
{
hints = (
{
horizontal = 1;
place = "{-152, 27}";
type = Stem;
},
{
horizontal = 1;
place = "{-5, 9}";
type = Stem;
},
{
horizontal = 1;
place = "{83, 13}";
type = Stem;
},
{
horizontal = 1;
place = "{437, 8}";
type = Stem;
},
{
place = "{109, 49}";
type = Stem;
},
{
place = "{556, 41}";
type = Stem;
}
);
layerId = "DB049CBD-EE5A-4C6A-B8D5-3A4D87564362";
paths = (
{
closed = 1;
nodes = (
"701 -272 OFFCURVE",
"697 -266 OFFCURVE",
"695 -268 CURVE",
"653 -286 OFFCURVE",
"596 -283 OFFCURVE",
"555 -239 CURVE SMOOTH",
"486 -166 OFFCURVE",
"407 -61 OFFCURVE",
"356 6 CURVE",
"530 61 OFFCURVE",
"640 237 OFFCURVE",
"640 375 CURVE SMOOTH",
"640 505 OFFCURVE",
"539 556 OFFCURVE",
"438 557 CURVE SMOOTH",
"241 558 OFFCURVE",
"41 362 OFFCURVE",
"42 164 CURVE SMOOTH",
"43 67 OFFCURVE",
"105 -11 OFFCURVE",
"243 -11 CURVE SMOOTH",
"278 -11 OFFCURVE",
"312 -6 OFFCURVE",
"343 3 CURVE",
"413 -95 OFFCURVE",
"446 -149 OFFCURVE",
"537 -251 CURVE SMOOTH",
"576 -295 OFFCURVE",
"644 -297 OFFCURVE",
"697 -273 CURVE"
);
},
{
closed = 1;
nodes = (
"612 183 OFFCURVE",
"429 -5 OFFCURVE",
"246 -5 CURVE SMOOTH",
"123 -5 OFFCURVE",
"70 70 OFFCURVE",
"71 163 CURVE SMOOTH",
"72 352 OFFCURVE",
"249 552 OFFCURVE",
"444 548 CURVE SMOOTH",
"535 546 OFFCURVE",
"612 494 OFFCURVE",
"612 366 CURVE SMOOTH"
);
}
);
width = 644;
}
);
note = Q;
unicode = 0051;
},
{
color = 5;
glyphname = R;
lastChange = "2021-04-20 17:45:09 +0000";
layers = (
{
hints = (
{
horizontal = 1;
place = "{-155, 14}";
type = Stem;
},
{
horizontal = 1;
place = "{0, 21}";
target = up;
type = BottomGhost;
},
{
horizontal = 1;
place = "{225, -20}";
target = down;
type = TopGhost;
},
{
horizontal = 1;
place = "{433, 11}";
type = Stem;
},
{
place = "{527, 57}";
type = Stem;
}
);
layerId = "DB049CBD-EE5A-4C6A-B8D5-3A4D87564362";
paths = (
{
closed = 1;
nodes = (
"507 12 OFFCURVE",
"505 16 OFFCURVE",
"502 15 CURVE",
"416 -38 OFFCURVE",
"304 93 OFFCURVE",
"232 186 CURVE SMOOTH",
"215 207 OFFCURVE",
"198 232 OFFCURVE",
"187 246 CURVE",
"285 242 OFFCURVE",
"473 321 OFFCURVE",
"473 441 CURVE SMOOTH",
"473 501 OFFCURVE",
"413 538 OFFCURVE",
"291 532 CURVE SMOOTH",
"243 529 OFFCURVE",
"147 533 OFFCURVE",
"142 533 CURVE SMOOTH",
"137 533 OFFCURVE",
"132 522 OFFCURVE",
"138 523 CURVE SMOOTH",
"144 524 OFFCURVE",
"166 526 OFFCURVE",
"180 526 CURVE SMOOTH",
"208 525 OFFCURVE",
"213 521 OFFCURVE",
"208 503 CURVE SMOOTH",
"184 428 OFFCURVE",
"125 279 OFFCURVE",
"76 161 CURVE SMOOTH",
"51 101 OFFCURVE",
"22 25 OFFCURVE",
"19 8 CURVE SMOOTH",
"17 -3 OFFCURVE",
"33 -1 OFFCURVE",
"42 0 CURVE SMOOTH",
"62 3 OFFCURVE",
"118 1 OFFCURVE",
"136 0 CURVE SMOOTH",
"140 0 OFFCURVE",
"149 7 OFFCURVE",
"144 7 CURVE SMOOTH",
"136 6 OFFCURVE",
"116 5 OFFCURVE",
"100 6 CURVE SMOOTH",
"57 8 OFFCURVE",
"53 21 OFFCURVE",
"62 67 CURVE SMOOTH",
"68 100 OFFCURVE",
"80 129 OFFCURVE",
"93 162 CURVE SMOOTH",
"144 296 OFFCURVE",
"222 472 OFFCURVE",
"240 505 CURVE SMOOTH",
"252 528 OFFCURVE",
"315 527 OFFCURVE",
"339 524 CURVE SMOOTH",
"410 516 OFFCURVE",
"444 486 OFFCURVE",
"444 440 CURVE SMOOTH",
"444 326 OFFCURVE",
"306 257 OFFCURVE",
"204 257 CURVE SMOOTH",
"164 257 LINE SMOOTH",
"161 257 OFFCURVE",
"164 249 OFFCURVE",
"168 244 CURVE SMOOTH",
"209 185 LINE SMOOTH",
"281 80 OFFCURVE",
"388 -61 OFFCURVE",
"505 10 CURVE"
);
}
);
width = 460;
}
);
note = R;
unicode = 0052;
},
